<?xml version="1.0" encoding="UTF-8" standalone="no"?>
<!DOCTYPE svg PUBLIC "-//W3C//DTD SVG 1.1//EN" "http://www.w3.org/Graphics/SVG/1.1/DTD/svg11.dtd">
<svg width="100%" height="100%" viewBox="0 0 1787 264" version="1.1" xmlns="http://www.w3.org/2000/svg" xmlns:xlink="http://www.w3.org/1999/xlink" xml:space="preserve" xmlns:serif="http://www.serif.com/" style="fill-rule:evenodd;clip-rule:evenodd;stroke-linejoin:round;stroke-miterlimit:2;">
    <g transform="matrix(1,0,0,1,-494.7,-3507.87)">
        <g transform="matrix(1,0,0,1,-247.209,3.04786)">
            <g transform="matrix(300,0,0,300,724.477,3727.78)">
                <path d="M0.282,-0.669L0.294,-0.655C0.246,-0.622 0.21,-0.587 0.186,-0.55C0.155,-0.502 0.14,-0.449 0.14,-0.393C0.14,-0.324 0.163,-0.26 0.208,-0.202C0.228,-0.218 0.239,-0.232 0.243,-0.242C0.247,-0.253 0.249,-0.283 0.249,-0.332L0.249,-0.551L0.458,-0.725C0.507,-0.706 0.545,-0.693 0.573,-0.688C0.601,-0.682 0.634,-0.679 0.672,-0.679L0.683,-0.679L0.691,-0.661L0.61,-0.584C0.556,-0.59 0.495,-0.61 0.427,-0.644L0.432,-0.086L0.451,-0.086C0.497,-0.086 0.54,-0.094 0.578,-0.11C0.617,-0.126 0.657,-0.152 0.698,-0.188L0.713,-0.174C0.683,-0.132 0.653,-0.099 0.624,-0.076C0.595,-0.053 0.56,-0.035 0.519,-0.021C0.478,-0.007 0.437,0 0.396,0C0.337,0 0.28,-0.014 0.227,-0.043C0.174,-0.072 0.133,-0.114 0.103,-0.168C0.073,-0.222 0.058,-0.278 0.058,-0.335C0.058,-0.406 0.079,-0.471 0.122,-0.531C0.155,-0.578 0.208,-0.624 0.282,-0.669ZM0.405,-0.647L0.348,-0.598L0.348,-0.375C0.348,-0.347 0.346,-0.329 0.343,-0.32C0.34,-0.308 0.332,-0.295 0.321,-0.281C0.297,-0.254 0.264,-0.222 0.221,-0.186C0.247,-0.157 0.275,-0.135 0.305,-0.12C0.335,-0.104 0.37,-0.094 0.41,-0.089L0.405,-0.647Z" style="fill:white;fill-rule:nonzero;"/>
            </g>
            <g transform="matrix(300,0,0,300,1003.18,3727.78)">
                <path d="M0.434,-0.73C0.49,-0.724 0.535,-0.716 0.567,-0.706C0.615,-0.69 0.657,-0.669 0.693,-0.64C0.729,-0.612 0.758,-0.579 0.778,-0.541C0.798,-0.502 0.809,-0.46 0.809,-0.416C0.809,-0.374 0.798,-0.333 0.776,-0.292C0.755,-0.252 0.718,-0.207 0.666,-0.156C0.614,-0.106 0.561,-0.067 0.508,-0.04C0.455,-0.013 0.403,0 0.352,0C0.298,0 0.245,-0.014 0.194,-0.041C0.144,-0.068 0.104,-0.105 0.077,-0.152C0.049,-0.199 0.035,-0.252 0.035,-0.309C0.035,-0.342 0.039,-0.374 0.045,-0.404C0.052,-0.434 0.064,-0.47 0.081,-0.51C0.113,-0.526 0.151,-0.548 0.194,-0.576C0.218,-0.591 0.276,-0.628 0.37,-0.687C0.389,-0.699 0.41,-0.713 0.434,-0.73ZM0.396,-0.633C0.374,-0.634 0.353,-0.635 0.331,-0.636L0.331,-0.347C0.331,-0.316 0.329,-0.294 0.325,-0.282C0.32,-0.269 0.313,-0.256 0.301,-0.243L0.211,-0.156C0.242,-0.13 0.27,-0.112 0.298,-0.101C0.325,-0.09 0.358,-0.083 0.396,-0.081L0.396,-0.633ZM0.417,-0.502C0.441,-0.482 0.463,-0.468 0.484,-0.459C0.505,-0.45 0.528,-0.445 0.553,-0.445C0.576,-0.445 0.597,-0.45 0.616,-0.459C0.635,-0.468 0.656,-0.482 0.677,-0.502C0.659,-0.527 0.641,-0.544 0.625,-0.556C0.596,-0.577 0.565,-0.594 0.531,-0.606C0.497,-0.618 0.459,-0.626 0.417,-0.631L0.417,-0.502ZM0.231,-0.572C0.203,-0.551 0.183,-0.534 0.171,-0.52C0.155,-0.501 0.142,-0.479 0.131,-0.452C0.121,-0.425 0.115,-0.396 0.115,-0.364C0.115,-0.295 0.142,-0.231 0.195,-0.171C0.21,-0.185 0.22,-0.199 0.224,-0.213C0.229,-0.227 0.231,-0.254 0.231,-0.294L0.231,-0.572ZM0.417,-0.299C0.441,-0.322 0.462,-0.338 0.482,-0.347C0.502,-0.356 0.525,-0.36 0.552,-0.36C0.579,-0.36 0.604,-0.355 0.626,-0.346C0.649,-0.336 0.672,-0.319 0.698,-0.295C0.707,-0.327 0.711,-0.355 0.711,-0.379C0.711,-0.401 0.709,-0.42 0.706,-0.436C0.703,-0.448 0.698,-0.463 0.69,-0.481C0.662,-0.458 0.637,-0.443 0.616,-0.434C0.595,-0.426 0.572,-0.422 0.547,-0.422C0.524,-0.422 0.503,-0.426 0.483,-0.433C0.464,-0.441 0.442,-0.455 0.417,-0.475L0.417,-0.299ZM0.417,-0.081C0.458,-0.083 0.492,-0.09 0.518,-0.101C0.557,-0.117 0.59,-0.14 0.619,-0.169C0.648,-0.198 0.671,-0.234 0.69,-0.275C0.645,-0.317 0.599,-0.338 0.552,-0.338C0.525,-0.338 0.499,-0.331 0.474,-0.316C0.456,-0.306 0.437,-0.288 0.417,-0.264L0.417,-0.081Z" style="fill:white;fill-rule:nonzero;"/>
            </g>
            <g transform="matrix(300,0,0,300,1316.45,3727.78)">
                <path d="M0.627,-0.582L0.865,-0.74C0.903,-0.686 0.93,-0.637 0.946,-0.593C0.963,-0.55 0.971,-0.507 0.971,-0.465C0.971,-0.423 0.964,-0.385 0.95,-0.349C0.928,-0.292 0.896,-0.237 0.854,-0.186C0.813,-0.134 0.752,-0.072 0.672,0C0.657,-0.018 0.64,-0.031 0.623,-0.039C0.606,-0.047 0.589,-0.051 0.573,-0.051C0.552,-0.051 0.53,-0.048 0.506,-0.041C0.483,-0.034 0.45,-0.02 0.409,0C0.394,-0.017 0.38,-0.029 0.366,-0.036C0.348,-0.044 0.326,-0.048 0.301,-0.048C0.275,-0.048 0.252,-0.045 0.23,-0.038C0.209,-0.031 0.182,-0.019 0.151,0L0.136,-0.011C0.188,-0.101 0.214,-0.173 0.214,-0.228C0.214,-0.259 0.205,-0.285 0.186,-0.306C0.168,-0.326 0.147,-0.336 0.125,-0.336C0.111,-0.336 0.097,-0.331 0.083,-0.319L0.069,-0.33C0.087,-0.368 0.115,-0.387 0.152,-0.387C0.164,-0.387 0.177,-0.384 0.19,-0.378C0.203,-0.372 0.216,-0.362 0.229,-0.35C0.227,-0.467 0.207,-0.557 0.169,-0.62C0.15,-0.651 0.129,-0.667 0.104,-0.667C0.092,-0.667 0.082,-0.662 0.073,-0.652C0.064,-0.642 0.057,-0.622 0.052,-0.592L0.035,-0.597C0.037,-0.642 0.047,-0.677 0.066,-0.702C0.085,-0.727 0.11,-0.74 0.143,-0.74C0.173,-0.74 0.202,-0.727 0.232,-0.703C0.261,-0.678 0.285,-0.638 0.303,-0.582L0.54,-0.74C0.572,-0.7 0.601,-0.647 0.627,-0.582ZM0.309,-0.559C0.317,-0.529 0.322,-0.496 0.325,-0.46C0.348,-0.447 0.367,-0.438 0.383,-0.433C0.399,-0.428 0.417,-0.426 0.435,-0.426C0.454,-0.426 0.471,-0.428 0.488,-0.433C0.504,-0.438 0.525,-0.447 0.548,-0.46C0.541,-0.5 0.533,-0.535 0.522,-0.563C0.511,-0.592 0.493,-0.626 0.468,-0.666L0.309,-0.559ZM0.633,-0.562C0.639,-0.547 0.643,-0.534 0.645,-0.522C0.647,-0.511 0.649,-0.49 0.651,-0.46C0.676,-0.448 0.695,-0.439 0.71,-0.435C0.725,-0.431 0.741,-0.429 0.759,-0.429C0.776,-0.429 0.793,-0.431 0.808,-0.436C0.824,-0.44 0.843,-0.448 0.865,-0.46C0.862,-0.492 0.856,-0.52 0.848,-0.545C0.834,-0.584 0.815,-0.624 0.791,-0.665L0.633,-0.562ZM0.548,-0.437C0.522,-0.423 0.501,-0.414 0.485,-0.41C0.469,-0.405 0.451,-0.403 0.433,-0.403C0.416,-0.403 0.399,-0.405 0.381,-0.41C0.363,-0.415 0.345,-0.423 0.326,-0.433L0.326,-0.42C0.326,-0.378 0.318,-0.33 0.301,-0.278C0.32,-0.286 0.338,-0.292 0.355,-0.296C0.372,-0.3 0.387,-0.302 0.401,-0.302C0.422,-0.302 0.442,-0.299 0.46,-0.293C0.479,-0.288 0.5,-0.277 0.525,-0.262C0.541,-0.312 0.549,-0.361 0.549,-0.408C0.549,-0.414 0.549,-0.424 0.548,-0.437ZM0.865,-0.433C0.84,-0.423 0.821,-0.416 0.806,-0.412C0.791,-0.409 0.775,-0.407 0.758,-0.407C0.742,-0.407 0.725,-0.409 0.707,-0.414C0.689,-0.418 0.671,-0.424 0.653,-0.433C0.652,-0.403 0.649,-0.379 0.645,-0.36C0.641,-0.341 0.632,-0.317 0.619,-0.286C0.634,-0.291 0.649,-0.295 0.662,-0.298C0.676,-0.3 0.689,-0.302 0.702,-0.302C0.726,-0.302 0.748,-0.299 0.768,-0.292C0.788,-0.286 0.809,-0.275 0.831,-0.26C0.854,-0.322 0.866,-0.375 0.866,-0.42C0.866,-0.423 0.866,-0.427 0.865,-0.433ZM0.822,-0.236C0.8,-0.252 0.78,-0.263 0.762,-0.269C0.745,-0.276 0.725,-0.279 0.702,-0.279C0.687,-0.279 0.672,-0.277 0.655,-0.273C0.639,-0.27 0.622,-0.264 0.605,-0.257C0.588,-0.227 0.568,-0.197 0.545,-0.167C0.522,-0.138 0.489,-0.1 0.445,-0.055C0.496,-0.082 0.538,-0.101 0.572,-0.111C0.605,-0.122 0.637,-0.127 0.666,-0.127C0.689,-0.127 0.715,-0.121 0.743,-0.11C0.774,-0.15 0.8,-0.192 0.822,-0.236ZM0.517,-0.236C0.493,-0.253 0.473,-0.264 0.457,-0.27C0.441,-0.275 0.424,-0.278 0.406,-0.278C0.389,-0.278 0.371,-0.276 0.352,-0.271C0.333,-0.265 0.312,-0.257 0.29,-0.247C0.276,-0.21 0.261,-0.177 0.245,-0.148C0.229,-0.119 0.209,-0.087 0.183,-0.051C0.232,-0.077 0.274,-0.095 0.306,-0.105C0.339,-0.115 0.371,-0.12 0.402,-0.12C0.417,-0.12 0.434,-0.118 0.454,-0.115C0.479,-0.154 0.5,-0.195 0.517,-0.236Z" style="fill:white;fill-rule:nonzero;"/>
            </g>
            <g transform="matrix(300,0,0,300,1679.38,3727.78)">
                <path d="M0.657,-0.74C0.691,-0.731 0.716,-0.717 0.733,-0.7C0.758,-0.675 0.77,-0.647 0.77,-0.614C0.77,-0.588 0.761,-0.561 0.741,-0.533C0.722,-0.504 0.687,-0.471 0.636,-0.432C0.68,-0.428 0.712,-0.421 0.732,-0.411C0.753,-0.4 0.767,-0.387 0.775,-0.371C0.783,-0.354 0.787,-0.327 0.787,-0.289L0.787,-0.121C0.671,-0.108 0.573,-0.068 0.491,0C0.463,-0.02 0.436,-0.033 0.41,-0.042C0.369,-0.055 0.325,-0.062 0.278,-0.062C0.221,-0.062 0.175,-0.05 0.14,-0.027C0.116,-0.011 0.104,0.004 0.104,0.02C0.104,0.026 0.108,0.035 0.115,0.046C0.121,0.058 0.125,0.067 0.125,0.074C0.125,0.08 0.122,0.086 0.117,0.091C0.112,0.096 0.107,0.098 0.101,0.098C0.092,0.098 0.084,0.094 0.076,0.085C0.069,0.077 0.065,0.065 0.065,0.052C0.065,0.039 0.07,0.025 0.079,0.009C0.088,-0.008 0.107,-0.031 0.137,-0.061C0.167,-0.091 0.186,-0.113 0.194,-0.127C0.202,-0.141 0.207,-0.154 0.207,-0.167C0.207,-0.181 0.202,-0.193 0.192,-0.202C0.183,-0.211 0.17,-0.216 0.156,-0.216C0.143,-0.216 0.132,-0.212 0.123,-0.205C0.115,-0.197 0.109,-0.185 0.106,-0.167L0.088,-0.168C0.088,-0.174 0.088,-0.178 0.088,-0.181C0.088,-0.209 0.097,-0.231 0.115,-0.249C0.134,-0.266 0.158,-0.275 0.189,-0.275C0.193,-0.275 0.198,-0.275 0.206,-0.274C0.205,-0.306 0.201,-0.329 0.191,-0.344C0.177,-0.367 0.155,-0.378 0.126,-0.378C0.108,-0.378 0.092,-0.374 0.078,-0.364C0.07,-0.359 0.063,-0.349 0.055,-0.334L0.037,-0.341C0.04,-0.372 0.052,-0.397 0.073,-0.415C0.094,-0.434 0.121,-0.443 0.153,-0.443C0.165,-0.443 0.18,-0.442 0.198,-0.44C0.2,-0.486 0.204,-0.519 0.211,-0.54C0.218,-0.561 0.23,-0.58 0.247,-0.598C0.264,-0.615 0.296,-0.639 0.343,-0.67C0.299,-0.655 0.261,-0.648 0.23,-0.648C0.21,-0.648 0.184,-0.652 0.152,-0.66C0.133,-0.664 0.12,-0.666 0.112,-0.666C0.098,-0.666 0.085,-0.661 0.075,-0.651C0.065,-0.641 0.058,-0.624 0.055,-0.598L0.037,-0.598C0.038,-0.628 0.043,-0.653 0.053,-0.673C0.063,-0.693 0.078,-0.709 0.099,-0.721C0.119,-0.734 0.141,-0.74 0.164,-0.74C0.181,-0.74 0.209,-0.735 0.248,-0.725C0.288,-0.715 0.319,-0.71 0.344,-0.71C0.362,-0.71 0.379,-0.712 0.396,-0.716C0.413,-0.72 0.435,-0.728 0.462,-0.74L0.472,-0.718C0.402,-0.684 0.355,-0.651 0.331,-0.618C0.308,-0.586 0.296,-0.543 0.296,-0.489L0.296,-0.288C0.296,-0.244 0.292,-0.21 0.282,-0.186C0.272,-0.161 0.252,-0.134 0.223,-0.102C0.28,-0.127 0.319,-0.153 0.339,-0.181C0.359,-0.209 0.369,-0.25 0.369,-0.304L0.369,-0.448C0.369,-0.516 0.375,-0.563 0.386,-0.59C0.398,-0.618 0.42,-0.641 0.451,-0.661C0.482,-0.681 0.551,-0.707 0.657,-0.74ZM0.573,-0.692C0.537,-0.676 0.514,-0.663 0.501,-0.652C0.489,-0.641 0.481,-0.628 0.476,-0.612C0.471,-0.597 0.469,-0.572 0.469,-0.535L0.469,-0.335C0.469,-0.3 0.465,-0.273 0.459,-0.255C0.452,-0.237 0.44,-0.219 0.421,-0.201C0.403,-0.184 0.365,-0.159 0.309,-0.125C0.339,-0.13 0.368,-0.132 0.394,-0.132C0.439,-0.132 0.481,-0.126 0.521,-0.114L0.521,-0.521L0.543,-0.521L0.543,-0.394C0.588,-0.421 0.621,-0.448 0.643,-0.477C0.664,-0.505 0.675,-0.536 0.675,-0.569C0.675,-0.597 0.666,-0.62 0.65,-0.64C0.633,-0.659 0.607,-0.677 0.573,-0.692ZM0.543,-0.323C0.57,-0.314 0.594,-0.309 0.615,-0.309C0.637,-0.309 0.661,-0.314 0.688,-0.323C0.688,-0.346 0.682,-0.364 0.672,-0.377C0.662,-0.391 0.643,-0.404 0.615,-0.416C0.58,-0.393 0.556,-0.377 0.543,-0.371L0.543,-0.323ZM0.688,-0.302C0.66,-0.292 0.636,-0.287 0.615,-0.287C0.593,-0.287 0.569,-0.292 0.543,-0.302L0.543,-0.215C0.568,-0.224 0.591,-0.229 0.613,-0.229C0.634,-0.229 0.659,-0.224 0.688,-0.215L0.688,-0.302ZM0.688,-0.192C0.658,-0.203 0.632,-0.208 0.611,-0.208C0.59,-0.208 0.567,-0.203 0.543,-0.192L0.543,-0.105C0.557,-0.099 0.57,-0.092 0.583,-0.084C0.616,-0.102 0.651,-0.115 0.688,-0.125L0.688,-0.192Z" style="fill:white;fill-rule:nonzero;"/>
            </g>
            <g transform="matrix(300,0,0,300,1992.5,3727.78)">
                <path d="M0.434,-0.73C0.49,-0.724 0.535,-0.716 0.567,-0.706C0.615,-0.69 0.657,-0.669 0.693,-0.64C0.729,-0.612 0.758,-0.579 0.778,-0.541C0.798,-0.502 0.809,-0.46 0.809,-0.416C0.809,-0.374 0.798,-0.333 0.776,-0.292C0.755,-0.252 0.718,-0.207 0.666,-0.156C0.614,-0.106 0.561,-0.067 0.508,-0.04C0.455,-0.013 0.403,0 0.352,0C0.298,0 0.245,-0.014 0.194,-0.041C0.144,-0.068 0.104,-0.105 0.077,-0.152C0.049,-0.199 0.035,-0.252 0.035,-0.309C0.035,-0.342 0.039,-0.374 0.045,-0.404C0.052,-0.434 0.064,-0.47 0.081,-0.51C0.113,-0.526 0.151,-0.548 0.194,-0.576C0.218,-0.591 0.276,-0.628 0.37,-0.687C0.389,-0.699 0.41,-0.713 0.434,-0.73ZM0.396,-0.633C0.374,-0.634 0.353,-0.635 0.331,-0.636L0.331,-0.347C0.331,-0.316 0.329,-0.294 0.325,-0.282C0.32,-0.269 0.313,-0.256 0.301,-0.243L0.211,-0.156C0.242,-0.13 0.27,-0.112 0.298,-0.101C0.325,-0.09 0.358,-0.083 0.396,-0.081L0.396,-0.633ZM0.417,-0.502C0.441,-0.482 0.463,-0.468 0.484,-0.459C0.505,-0.45 0.528,-0.445 0.553,-0.445C0.576,-0.445 0.597,-0.45 0.616,-0.459C0.635,-0.468 0.656,-0.482 0.677,-0.502C0.659,-0.527 0.641,-0.544 0.625,-0.556C0.596,-0.577 0.565,-0.594 0.531,-0.606C0.497,-0.618 0.459,-0.626 0.417,-0.631L0.417,-0.502ZM0.231,-0.572C0.203,-0.551 0.183,-0.534 0.171,-0.52C0.155,-0.501 0.142,-0.479 0.131,-0.452C0.121,-0.425 0.115,-0.396 0.115,-0.364C0.115,-0.295 0.142,-0.231 0.195,-0.171C0.21,-0.185 0.22,-0.199 0.224,-0.213C0.229,-0.227 0.231,-0.254 0.231,-0.294L0.231,-0.572ZM0.417,-0.299C0.441,-0.322 0.462,-0.338 0.482,-0.347C0.502,-0.356 0.525,-0.36 0.552,-0.36C0.579,-0.36 0.604,-0.355 0.626,-0.346C0.649,-0.336 0.672,-0.319 0.698,-0.295C0.707,-0.327 0.711,-0.355 0.711,-0.379C0.711,-0.401 0.709,-0.42 0.706,-0.436C0.703,-0.448 0.698,-0.463 0.69,-0.481C0.662,-0.458 0.637,-0.443 0.616,-0.434C0.595,-0.426 0.572,-0.422 0.547,-0.422C0.524,-0.422 0.503,-0.426 0.483,-0.433C0.464,-0.441 0.442,-0.455 0.417,-0.475L0.417,-0.299ZM0.417,-0.081C0.458,-0.083 0.492,-0.09 0.518,-0.101C0.557,-0.117 0.59,-0.14 0.619,-0.169C0.648,-0.198 0.671,-0.234 0.69,-0.275C0.645,-0.317 0.599,-0.338 0.552,-0.338C0.525,-0.338 0.499,-0.331 0.474,-0.316C0.456,-0.306 0.437,-0.288 0.417,-0.264L0.417,-0.081Z" style="fill:white;fill-rule:nonzero;"/>
            </g>
            <g transform="matrix(300,0,0,300,2305.78,3727.78)">
                <path d="M0.06,-0.679L0.049,-0.698C0.072,-0.717 0.091,-0.729 0.105,-0.735C0.119,-0.74 0.135,-0.743 0.154,-0.743C0.181,-0.743 0.205,-0.738 0.229,-0.727C0.252,-0.717 0.27,-0.703 0.283,-0.686C0.293,-0.672 0.301,-0.652 0.308,-0.625C0.356,-0.661 0.397,-0.686 0.43,-0.699C0.464,-0.713 0.496,-0.72 0.527,-0.72C0.585,-0.72 0.635,-0.696 0.677,-0.647C0.72,-0.599 0.741,-0.533 0.741,-0.448C0.741,-0.399 0.733,-0.353 0.717,-0.31C0.701,-0.267 0.677,-0.231 0.645,-0.203C0.613,-0.176 0.576,-0.156 0.534,-0.143C0.491,-0.131 0.454,-0.125 0.424,-0.125L0.217,-0.129C0.186,-0.129 0.156,-0.124 0.129,-0.114C0.102,-0.104 0.082,-0.09 0.07,-0.073C0.057,-0.056 0.051,-0.037 0.051,-0.017C0.051,0.009 0.061,0.031 0.08,0.049C0.099,0.068 0.122,0.077 0.149,0.077C0.164,0.077 0.179,0.075 0.194,0.07C0.21,0.066 0.24,0.055 0.284,0.036C0.347,0.008 0.4,-0.006 0.442,-0.006C0.485,-0.006 0.519,0.004 0.544,0.024C0.563,0.04 0.572,0.06 0.572,0.085C0.572,0.1 0.568,0.112 0.559,0.121C0.551,0.13 0.54,0.135 0.527,0.135C0.517,0.135 0.507,0.131 0.5,0.123C0.492,0.114 0.488,0.104 0.488,0.091C0.488,0.081 0.492,0.07 0.499,0.057C0.504,0.049 0.506,0.044 0.506,0.041C0.506,0.036 0.504,0.032 0.5,0.029C0.495,0.025 0.488,0.023 0.479,0.023C0.468,0.023 0.456,0.026 0.443,0.03C0.431,0.035 0.408,0.047 0.374,0.066C0.326,0.093 0.289,0.111 0.262,0.121C0.234,0.13 0.209,0.135 0.187,0.135C0.143,0.135 0.106,0.12 0.075,0.091C0.045,0.062 0.029,0.028 0.029,-0.011C0.029,-0.049 0.044,-0.081 0.073,-0.108C0.102,-0.135 0.147,-0.15 0.208,-0.153C0.209,-0.16 0.209,-0.165 0.209,-0.168C0.209,-0.205 0.201,-0.238 0.185,-0.265C0.169,-0.292 0.148,-0.312 0.123,-0.326C0.106,-0.334 0.085,-0.339 0.06,-0.339L0.06,-0.357C0.074,-0.36 0.086,-0.361 0.096,-0.361C0.117,-0.361 0.136,-0.358 0.153,-0.352C0.171,-0.346 0.189,-0.336 0.208,-0.322C0.209,-0.332 0.209,-0.34 0.209,-0.347C0.209,-0.387 0.197,-0.42 0.173,-0.446C0.148,-0.472 0.119,-0.485 0.085,-0.485C0.077,-0.485 0.067,-0.484 0.055,-0.482L0.055,-0.501C0.076,-0.513 0.097,-0.518 0.117,-0.518C0.132,-0.518 0.146,-0.516 0.158,-0.512C0.171,-0.507 0.188,-0.499 0.208,-0.486L0.208,-0.529C0.208,-0.591 0.199,-0.634 0.18,-0.659C0.161,-0.684 0.138,-0.696 0.111,-0.696C0.094,-0.696 0.077,-0.691 0.06,-0.679ZM0.385,-0.512C0.405,-0.494 0.423,-0.481 0.44,-0.475C0.457,-0.468 0.475,-0.464 0.496,-0.464C0.519,-0.464 0.54,-0.468 0.559,-0.476C0.578,-0.484 0.599,-0.499 0.624,-0.521C0.614,-0.551 0.603,-0.574 0.592,-0.59C0.575,-0.615 0.556,-0.634 0.533,-0.646C0.511,-0.658 0.488,-0.664 0.464,-0.664C0.441,-0.664 0.415,-0.657 0.385,-0.643L0.385,-0.512ZM0.362,-0.631C0.344,-0.62 0.326,-0.608 0.308,-0.596L0.308,-0.153C0.32,-0.153 0.329,-0.153 0.335,-0.153L0.362,-0.153L0.362,-0.631ZM0.385,-0.334C0.41,-0.351 0.431,-0.363 0.449,-0.369C0.467,-0.375 0.487,-0.378 0.507,-0.378C0.528,-0.378 0.547,-0.375 0.566,-0.369C0.584,-0.363 0.605,-0.351 0.629,-0.334C0.634,-0.363 0.637,-0.388 0.637,-0.409C0.637,-0.431 0.634,-0.459 0.629,-0.495C0.601,-0.474 0.577,-0.46 0.557,-0.452C0.536,-0.444 0.515,-0.44 0.491,-0.44C0.474,-0.44 0.457,-0.443 0.441,-0.449C0.425,-0.455 0.406,-0.466 0.385,-0.481L0.385,-0.334ZM0.385,-0.153C0.432,-0.154 0.471,-0.16 0.5,-0.171C0.53,-0.182 0.555,-0.198 0.574,-0.219C0.593,-0.24 0.609,-0.27 0.624,-0.309C0.6,-0.327 0.579,-0.339 0.563,-0.345C0.546,-0.351 0.527,-0.354 0.507,-0.354C0.486,-0.354 0.466,-0.351 0.448,-0.345C0.43,-0.338 0.409,-0.326 0.385,-0.309L0.385,-0.153Z" style="fill:white;fill-rule:nonzero;"/>
            </g>
        </g>
    </g>
</svg>
