<?xml version="1.0" encoding="UTF-8" standalone="no"?>
<!DOCTYPE svg PUBLIC "-//W3C//DTD SVG 1.1//EN" "http://www.w3.org/Graphics/SVG/1.1/DTD/svg11.dtd">
<svg width="100%" height="100%" viewBox="0 0 295 4492" version="1.1" xmlns="http://www.w3.org/2000/svg" xmlns:xlink="http://www.w3.org/1999/xlink" xml:space="preserve" xmlns:serif="http://www.serif.com/" style="fill-rule:evenodd;clip-rule:evenodd;stroke-linejoin:round;stroke-miterlimit:2;">
    <g transform="matrix(1,0,0,1,-2332.88,-877.815)">
        <g transform="matrix(1,0,0,1,2093.24,2757.47)">
            <g transform="matrix(300,0,0,300,236.27,478.547)">
                <path d="M0.94,-0.697L0.956,-0.682C0.934,-0.658 0.92,-0.638 0.915,-0.623C0.909,-0.608 0.906,-0.585 0.906,-0.555L0.906,-0.177C0.906,-0.139 0.909,-0.114 0.916,-0.104C0.922,-0.094 0.931,-0.089 0.942,-0.089C0.95,-0.089 0.963,-0.097 0.98,-0.112L0.994,-0.093L0.876,0C0.847,-0.014 0.828,-0.031 0.818,-0.05C0.808,-0.068 0.803,-0.101 0.803,-0.148L0.803,-0.615L0.721,-0.678L0.689,-0.657L0.689,-0.415L0.748,-0.415L0.689,-0.341L0.689,-0.136L0.727,-0.167L0.742,-0.151L0.561,0C0.534,-0.033 0.512,-0.056 0.495,-0.071C0.483,-0.082 0.468,-0.092 0.451,-0.101L0.451,-0.118C0.466,-0.123 0.477,-0.132 0.481,-0.143C0.485,-0.152 0.487,-0.171 0.487,-0.203L0.487,-0.341L0.338,-0.341L0.338,-0.131C0.338,-0.073 0.324,-0.028 0.294,0.003C0.265,0.034 0.226,0.05 0.179,0.05C0.169,0.05 0.15,0.048 0.123,0.044C0.105,0.041 0.092,0.04 0.084,0.04C0.067,0.04 0.055,0.044 0.048,0.051C0.04,0.059 0.036,0.071 0.036,0.089L0.017,0.089C0.013,0.075 0.011,0.064 0.011,0.054C0.011,0.037 0.016,0.02 0.025,0.005C0.034,-0.011 0.046,-0.022 0.062,-0.03C0.073,-0.036 0.095,-0.04 0.126,-0.043C0.157,-0.046 0.18,-0.056 0.195,-0.073C0.21,-0.089 0.218,-0.112 0.218,-0.142C0.218,-0.189 0.207,-0.227 0.185,-0.257C0.163,-0.287 0.137,-0.302 0.106,-0.302C0.082,-0.302 0.062,-0.291 0.047,-0.268L0.029,-0.276C0.038,-0.3 0.048,-0.318 0.059,-0.331C0.071,-0.344 0.087,-0.354 0.106,-0.362C0.121,-0.367 0.142,-0.37 0.169,-0.371C0.169,-0.38 0.168,-0.388 0.168,-0.393C0.168,-0.447 0.179,-0.493 0.201,-0.531C0.223,-0.568 0.257,-0.603 0.304,-0.634C0.351,-0.665 0.418,-0.701 0.505,-0.74C0.536,-0.723 0.557,-0.707 0.568,-0.69C0.579,-0.673 0.585,-0.649 0.586,-0.618L0.778,-0.74L0.895,-0.652L0.94,-0.697ZM0.487,-0.415L0.487,-0.56C0.487,-0.596 0.482,-0.621 0.473,-0.637C0.464,-0.653 0.448,-0.666 0.424,-0.676C0.402,-0.664 0.386,-0.654 0.376,-0.645C0.363,-0.631 0.354,-0.615 0.348,-0.597C0.341,-0.578 0.338,-0.551 0.338,-0.517L0.338,-0.362L0.379,-0.415L0.487,-0.415ZM0.667,-0.643L0.586,-0.59L0.586,-0.415L0.667,-0.415L0.667,-0.643ZM0.335,-0.625C0.307,-0.602 0.289,-0.581 0.28,-0.561C0.272,-0.541 0.268,-0.506 0.268,-0.457L0.268,-0.18C0.268,-0.135 0.262,-0.103 0.25,-0.085C0.239,-0.067 0.217,-0.051 0.183,-0.038C0.198,-0.037 0.21,-0.036 0.22,-0.036C0.244,-0.036 0.264,-0.04 0.279,-0.049C0.294,-0.057 0.304,-0.067 0.309,-0.079C0.314,-0.092 0.316,-0.113 0.316,-0.144L0.316,-0.512C0.316,-0.54 0.318,-0.563 0.321,-0.582C0.323,-0.593 0.328,-0.607 0.335,-0.625ZM0.667,-0.341L0.586,-0.341L0.586,-0.215C0.586,-0.171 0.589,-0.143 0.595,-0.13C0.605,-0.109 0.618,-0.099 0.634,-0.099C0.642,-0.099 0.653,-0.105 0.667,-0.118L0.667,-0.341Z" style="fill:white;fill-rule:nonzero;"/>
            </g>
        </g>
        <g transform="matrix(1,0,0,1,2047.5,2869.93)">
            <g transform="matrix(300,0,0,300,306.102,738.832)">
                <path d="M0.793,-0.714L0.808,-0.699C0.78,-0.664 0.763,-0.639 0.756,-0.623C0.749,-0.607 0.746,-0.584 0.746,-0.553L0.746,-0.205C0.746,-0.157 0.75,-0.127 0.758,-0.114C0.766,-0.102 0.776,-0.095 0.787,-0.095C0.795,-0.095 0.804,-0.1 0.814,-0.11L0.821,-0.081L0.718,0C0.69,-0.018 0.671,-0.035 0.662,-0.051C0.653,-0.068 0.647,-0.096 0.644,-0.136C0.592,-0.086 0.543,-0.051 0.498,-0.031C0.452,-0.01 0.402,0 0.348,0C0.248,0 0.172,-0.036 0.119,-0.107C0.079,-0.16 0.06,-0.222 0.06,-0.292C0.06,-0.345 0.071,-0.393 0.094,-0.438C0.117,-0.483 0.151,-0.527 0.197,-0.569C0.228,-0.597 0.27,-0.627 0.322,-0.659C0.281,-0.649 0.25,-0.644 0.23,-0.644C0.215,-0.644 0.199,-0.644 0.181,-0.646C0.162,-0.648 0.147,-0.648 0.135,-0.648C0.108,-0.648 0.086,-0.64 0.071,-0.624C0.055,-0.607 0.047,-0.584 0.047,-0.555C0.047,-0.544 0.048,-0.53 0.05,-0.514L0.029,-0.514C0.025,-0.537 0.023,-0.556 0.023,-0.571C0.023,-0.623 0.037,-0.664 0.064,-0.694C0.091,-0.725 0.123,-0.74 0.16,-0.74C0.17,-0.74 0.18,-0.739 0.189,-0.737C0.195,-0.736 0.214,-0.729 0.247,-0.717C0.28,-0.705 0.31,-0.699 0.336,-0.699C0.36,-0.699 0.382,-0.704 0.403,-0.712C0.414,-0.717 0.426,-0.726 0.44,-0.74L0.462,-0.74L0.462,-0.466C0.496,-0.448 0.527,-0.439 0.557,-0.439C0.573,-0.439 0.587,-0.441 0.599,-0.445C0.611,-0.448 0.626,-0.456 0.644,-0.466L0.644,-0.608L0.589,-0.648L0.534,-0.587L0.517,-0.602L0.635,-0.733L0.739,-0.659L0.793,-0.714ZM0.44,-0.691C0.419,-0.67 0.406,-0.65 0.401,-0.633C0.395,-0.615 0.392,-0.581 0.392,-0.531L0.392,-0.304C0.392,-0.279 0.39,-0.261 0.387,-0.249C0.382,-0.233 0.373,-0.218 0.36,-0.203C0.341,-0.181 0.307,-0.153 0.258,-0.117C0.282,-0.101 0.304,-0.09 0.324,-0.084C0.345,-0.077 0.369,-0.074 0.397,-0.074C0.411,-0.074 0.425,-0.075 0.44,-0.077L0.44,-0.691ZM0.239,-0.133C0.261,-0.156 0.275,-0.178 0.281,-0.198C0.288,-0.218 0.292,-0.254 0.292,-0.306L0.292,-0.451C0.292,-0.488 0.293,-0.513 0.295,-0.524C0.297,-0.536 0.302,-0.549 0.311,-0.563C0.325,-0.589 0.35,-0.622 0.386,-0.664C0.334,-0.634 0.293,-0.605 0.262,-0.578C0.232,-0.55 0.206,-0.515 0.187,-0.473C0.167,-0.431 0.157,-0.384 0.157,-0.333C0.157,-0.288 0.165,-0.246 0.182,-0.209C0.194,-0.184 0.213,-0.158 0.239,-0.133ZM0.644,-0.44C0.625,-0.43 0.609,-0.424 0.596,-0.42C0.584,-0.417 0.57,-0.416 0.555,-0.416C0.526,-0.416 0.496,-0.424 0.462,-0.44L0.462,-0.326C0.497,-0.341 0.528,-0.349 0.556,-0.349C0.583,-0.349 0.612,-0.341 0.644,-0.327L0.644,-0.44ZM0.644,-0.303C0.612,-0.319 0.582,-0.327 0.556,-0.327C0.54,-0.327 0.525,-0.325 0.512,-0.321C0.498,-0.317 0.482,-0.31 0.462,-0.299L0.462,-0.082C0.495,-0.089 0.524,-0.099 0.551,-0.111C0.578,-0.124 0.609,-0.143 0.644,-0.168L0.644,-0.303Z" style="fill:white;fill-rule:nonzero;"/>
            </g>
        </g>
        <g transform="matrix(1,0,0,1,1701.87,3460.53)">
            <g transform="matrix(300,0,0,300,659.498,491.244)">
                <path d="M0.708,-0.676L0.716,-0.66L0.538,-0.528C0.573,-0.528 0.609,-0.519 0.645,-0.501C0.681,-0.484 0.709,-0.459 0.727,-0.428C0.746,-0.397 0.755,-0.364 0.755,-0.33C0.755,-0.276 0.737,-0.223 0.699,-0.173C0.661,-0.123 0.608,-0.081 0.538,-0.049C0.469,-0.016 0.403,0 0.342,0C0.283,0 0.229,-0.013 0.18,-0.04C0.132,-0.066 0.096,-0.099 0.073,-0.139C0.049,-0.178 0.038,-0.222 0.038,-0.27C0.038,-0.324 0.051,-0.374 0.077,-0.42C0.103,-0.466 0.151,-0.517 0.222,-0.573L0.419,-0.73C0.474,-0.703 0.517,-0.686 0.548,-0.677C0.579,-0.668 0.609,-0.664 0.639,-0.664C0.662,-0.664 0.684,-0.668 0.708,-0.676ZM0.344,-0.646L0.336,-0.637L0.336,-0.406L0.564,-0.578C0.493,-0.596 0.42,-0.618 0.344,-0.646ZM0.234,-0.556C0.197,-0.517 0.171,-0.481 0.156,-0.447C0.14,-0.413 0.133,-0.374 0.133,-0.329C0.133,-0.293 0.138,-0.261 0.148,-0.233C0.158,-0.206 0.172,-0.179 0.192,-0.153C0.21,-0.17 0.222,-0.185 0.227,-0.196C0.232,-0.208 0.234,-0.23 0.234,-0.262L0.234,-0.556ZM0.422,-0.309C0.445,-0.293 0.465,-0.282 0.484,-0.275C0.503,-0.269 0.524,-0.266 0.547,-0.266C0.568,-0.266 0.587,-0.268 0.604,-0.273C0.622,-0.279 0.644,-0.289 0.671,-0.304C0.663,-0.338 0.648,-0.366 0.626,-0.387C0.591,-0.422 0.547,-0.439 0.494,-0.439C0.471,-0.439 0.447,-0.434 0.422,-0.426L0.422,-0.309ZM0.4,-0.416C0.374,-0.404 0.353,-0.391 0.336,-0.378L0.336,-0.296C0.336,-0.271 0.334,-0.254 0.331,-0.246C0.327,-0.237 0.319,-0.228 0.308,-0.219C0.3,-0.213 0.295,-0.209 0.29,-0.205L0.206,-0.135C0.235,-0.104 0.265,-0.081 0.295,-0.066C0.326,-0.051 0.361,-0.043 0.4,-0.041L0.4,-0.416ZM0.422,-0.173C0.463,-0.195 0.501,-0.206 0.538,-0.206C0.573,-0.206 0.61,-0.196 0.649,-0.176C0.666,-0.21 0.674,-0.243 0.674,-0.274L0.674,-0.281C0.645,-0.266 0.621,-0.256 0.604,-0.251C0.586,-0.246 0.566,-0.244 0.545,-0.244C0.525,-0.244 0.504,-0.247 0.484,-0.253C0.463,-0.259 0.443,-0.269 0.422,-0.281L0.422,-0.173ZM0.422,-0.041C0.452,-0.043 0.477,-0.047 0.496,-0.054C0.525,-0.064 0.553,-0.078 0.579,-0.098C0.599,-0.112 0.618,-0.132 0.639,-0.157C0.599,-0.174 0.564,-0.182 0.534,-0.182C0.497,-0.182 0.46,-0.171 0.422,-0.149L0.422,-0.041Z" style="fill:white;fill-rule:nonzero;"/>
            </g>
        </g>
        <g transform="matrix(1,0,0,1,1689.53,3566.54)">
            <g transform="matrix(300,0,0,300,667.962,728.251)">
                <path d="M0.314,-0.73L0.534,-0.656L0.551,-0.685C0.557,-0.695 0.561,-0.702 0.563,-0.704C0.566,-0.707 0.569,-0.708 0.572,-0.708C0.575,-0.708 0.578,-0.707 0.58,-0.705C0.582,-0.702 0.583,-0.7 0.583,-0.697C0.583,-0.692 0.579,-0.683 0.571,-0.67L0.465,-0.489L0.549,-0.495C0.575,-0.496 0.604,-0.492 0.638,-0.484C0.672,-0.476 0.701,-0.463 0.725,-0.446C0.749,-0.429 0.768,-0.409 0.782,-0.385C0.796,-0.362 0.803,-0.337 0.803,-0.309C0.803,-0.257 0.781,-0.207 0.738,-0.157C0.695,-0.107 0.618,-0.055 0.508,0C0.469,-0.014 0.424,-0.029 0.373,-0.045C0.281,-0.003 0.206,0.018 0.147,0.018C0.105,0.018 0.073,0.008 0.05,-0.01C0.027,-0.028 0.016,-0.05 0.016,-0.074C0.016,-0.099 0.03,-0.123 0.057,-0.144C0.084,-0.166 0.125,-0.176 0.179,-0.176C0.2,-0.176 0.226,-0.174 0.257,-0.168L0.297,-0.238L0.226,-0.233C0.209,-0.233 0.186,-0.235 0.157,-0.24C0.129,-0.245 0.105,-0.253 0.087,-0.265C0.068,-0.276 0.055,-0.29 0.045,-0.307C0.036,-0.323 0.032,-0.341 0.032,-0.359C0.032,-0.388 0.042,-0.414 0.063,-0.436C0.076,-0.45 0.097,-0.463 0.127,-0.475L0.126,-0.48C0.126,-0.511 0.14,-0.545 0.167,-0.585C0.194,-0.624 0.243,-0.672 0.314,-0.73ZM0.49,-0.578C0.439,-0.604 0.399,-0.621 0.371,-0.629C0.342,-0.638 0.317,-0.642 0.295,-0.642C0.265,-0.642 0.24,-0.633 0.221,-0.616C0.201,-0.599 0.192,-0.579 0.192,-0.556C0.192,-0.533 0.2,-0.514 0.217,-0.5C0.233,-0.485 0.258,-0.478 0.291,-0.478C0.313,-0.478 0.362,-0.481 0.438,-0.487L0.49,-0.578ZM0.388,-0.398C0.345,-0.392 0.304,-0.389 0.265,-0.389C0.22,-0.389 0.189,-0.394 0.17,-0.405C0.152,-0.415 0.138,-0.431 0.129,-0.454C0.105,-0.439 0.094,-0.42 0.094,-0.398C0.094,-0.378 0.103,-0.361 0.121,-0.348C0.145,-0.331 0.186,-0.323 0.245,-0.323C0.272,-0.323 0.307,-0.325 0.349,-0.33L0.388,-0.398ZM0.375,-0.332C0.453,-0.34 0.507,-0.344 0.537,-0.344C0.578,-0.344 0.61,-0.334 0.632,-0.315C0.654,-0.297 0.665,-0.274 0.665,-0.248C0.665,-0.225 0.654,-0.203 0.633,-0.182C0.611,-0.16 0.565,-0.133 0.495,-0.101L0.595,-0.075C0.637,-0.101 0.67,-0.13 0.693,-0.161C0.716,-0.191 0.728,-0.225 0.728,-0.262C0.728,-0.286 0.721,-0.309 0.706,-0.333C0.692,-0.356 0.669,-0.375 0.639,-0.388C0.609,-0.402 0.575,-0.409 0.536,-0.409C0.504,-0.409 0.463,-0.406 0.414,-0.4L0.375,-0.332ZM0.279,-0.164C0.31,-0.157 0.335,-0.151 0.355,-0.145C0.374,-0.14 0.408,-0.128 0.458,-0.111C0.537,-0.147 0.576,-0.182 0.576,-0.215C0.576,-0.226 0.572,-0.235 0.562,-0.244C0.553,-0.252 0.541,-0.256 0.527,-0.256C0.51,-0.256 0.488,-0.255 0.463,-0.252C0.392,-0.244 0.345,-0.24 0.323,-0.24L0.279,-0.164ZM0.339,-0.057C0.258,-0.084 0.191,-0.097 0.14,-0.097C0.113,-0.097 0.092,-0.091 0.076,-0.08C0.065,-0.072 0.06,-0.062 0.06,-0.051C0.06,-0.039 0.065,-0.029 0.076,-0.022C0.093,-0.01 0.118,-0.004 0.15,-0.004C0.199,-0.004 0.262,-0.022 0.339,-0.057Z" style="fill:white;fill-rule:nonzero;"/>
            </g>
        </g>
        <g transform="matrix(1,0,0,1,1253.16,4139.94)">
            <g transform="matrix(300,0,0,300,1103.89,506.057)">
                <path d="M0.6,-0.74L0.609,-0.719C0.566,-0.704 0.534,-0.689 0.514,-0.674C0.493,-0.658 0.48,-0.642 0.474,-0.625C0.467,-0.608 0.464,-0.581 0.464,-0.543L0.464,-0.442L0.655,-0.595C0.695,-0.569 0.725,-0.545 0.746,-0.523C0.766,-0.501 0.78,-0.478 0.786,-0.456C0.793,-0.433 0.796,-0.396 0.796,-0.345L0.796,-0.273C0.796,-0.234 0.794,-0.206 0.789,-0.188C0.785,-0.169 0.775,-0.151 0.761,-0.132C0.74,-0.106 0.704,-0.072 0.653,-0.032C0.617,-0.004 0.594,0.016 0.586,0.027C0.577,0.038 0.573,0.048 0.573,0.056C0.573,0.06 0.575,0.064 0.578,0.067C0.581,0.07 0.586,0.072 0.592,0.072C0.595,0.072 0.6,0.071 0.607,0.07C0.613,0.068 0.618,0.067 0.622,0.067C0.63,0.067 0.636,0.069 0.641,0.074C0.645,0.078 0.647,0.084 0.647,0.091C0.647,0.1 0.643,0.108 0.636,0.114C0.626,0.122 0.615,0.126 0.601,0.126C0.586,0.126 0.573,0.12 0.562,0.108C0.551,0.096 0.546,0.082 0.546,0.065C0.546,0.053 0.55,0.039 0.558,0.024C0.566,0.008 0.586,-0.019 0.617,-0.058C0.649,-0.097 0.669,-0.127 0.678,-0.147C0.688,-0.167 0.694,-0.191 0.698,-0.22C0.657,-0.239 0.621,-0.248 0.588,-0.248C0.546,-0.248 0.504,-0.238 0.463,-0.219C0.422,-0.2 0.375,-0.166 0.321,-0.117C0.344,-0.118 0.361,-0.119 0.372,-0.119C0.397,-0.119 0.432,-0.117 0.475,-0.112C0.487,-0.111 0.498,-0.11 0.507,-0.11C0.523,-0.11 0.537,-0.114 0.55,-0.122C0.562,-0.13 0.575,-0.143 0.588,-0.162L0.609,-0.15L0.5,0.003C0.456,-0.016 0.417,-0.029 0.384,-0.037C0.351,-0.045 0.317,-0.049 0.283,-0.049C0.245,-0.049 0.211,-0.044 0.182,-0.035C0.152,-0.026 0.131,-0.014 0.119,0C0.11,0.012 0.105,0.021 0.105,0.03C0.105,0.036 0.109,0.045 0.117,0.057C0.123,0.065 0.125,0.072 0.125,0.08C0.125,0.088 0.123,0.094 0.118,0.1C0.113,0.105 0.108,0.107 0.102,0.107C0.094,0.107 0.086,0.103 0.079,0.094C0.071,0.085 0.067,0.075 0.067,0.062C0.067,0.047 0.072,0.032 0.08,0.017C0.088,0.002 0.107,-0.02 0.135,-0.049C0.164,-0.077 0.182,-0.1 0.191,-0.115C0.199,-0.131 0.204,-0.146 0.204,-0.161C0.204,-0.173 0.201,-0.181 0.194,-0.188C0.188,-0.194 0.18,-0.198 0.169,-0.198C0.15,-0.198 0.134,-0.184 0.122,-0.156L0.1,-0.156C0.103,-0.182 0.108,-0.201 0.116,-0.214C0.124,-0.228 0.136,-0.239 0.152,-0.249C0.164,-0.256 0.181,-0.26 0.202,-0.262C0.2,-0.301 0.192,-0.328 0.178,-0.344C0.164,-0.359 0.144,-0.366 0.118,-0.366C0.101,-0.366 0.089,-0.363 0.079,-0.357C0.07,-0.351 0.06,-0.34 0.051,-0.323L0.032,-0.328C0.036,-0.349 0.042,-0.365 0.048,-0.376C0.059,-0.392 0.073,-0.404 0.091,-0.413C0.109,-0.422 0.128,-0.427 0.148,-0.427C0.161,-0.427 0.175,-0.426 0.191,-0.424C0.19,-0.44 0.19,-0.452 0.19,-0.463C0.19,-0.502 0.201,-0.539 0.222,-0.575C0.238,-0.6 0.264,-0.627 0.301,-0.654C0.264,-0.643 0.24,-0.637 0.227,-0.637C0.216,-0.637 0.187,-0.641 0.139,-0.649C0.121,-0.653 0.108,-0.655 0.102,-0.655C0.091,-0.655 0.08,-0.65 0.071,-0.64C0.062,-0.631 0.055,-0.613 0.05,-0.588L0.025,-0.588C0.031,-0.618 0.038,-0.641 0.047,-0.657C0.061,-0.681 0.079,-0.699 0.101,-0.712C0.122,-0.725 0.144,-0.731 0.166,-0.731C0.179,-0.731 0.201,-0.726 0.234,-0.717C0.267,-0.707 0.292,-0.703 0.312,-0.703C0.351,-0.703 0.394,-0.715 0.443,-0.74L0.453,-0.719C0.387,-0.693 0.341,-0.661 0.316,-0.623C0.3,-0.598 0.292,-0.557 0.292,-0.5L0.292,-0.272C0.292,-0.232 0.288,-0.201 0.28,-0.178C0.271,-0.156 0.253,-0.127 0.224,-0.092C0.264,-0.114 0.294,-0.137 0.316,-0.16C0.337,-0.183 0.35,-0.204 0.356,-0.224C0.361,-0.244 0.364,-0.279 0.364,-0.328L0.364,-0.494C0.364,-0.546 0.37,-0.584 0.382,-0.609C0.394,-0.634 0.415,-0.657 0.444,-0.676C0.473,-0.695 0.525,-0.716 0.6,-0.74ZM0.464,-0.414L0.464,-0.392C0.507,-0.375 0.547,-0.366 0.583,-0.366C0.605,-0.366 0.624,-0.368 0.64,-0.373C0.657,-0.377 0.676,-0.384 0.698,-0.396C0.692,-0.42 0.681,-0.441 0.666,-0.459C0.651,-0.477 0.626,-0.495 0.593,-0.514L0.464,-0.414ZM0.464,-0.245C0.504,-0.262 0.542,-0.27 0.579,-0.27C0.598,-0.27 0.617,-0.268 0.634,-0.265C0.651,-0.261 0.672,-0.255 0.698,-0.245L0.698,-0.37C0.673,-0.36 0.653,-0.353 0.636,-0.349C0.62,-0.345 0.601,-0.343 0.581,-0.343C0.543,-0.343 0.505,-0.351 0.464,-0.367L0.464,-0.245Z" style="fill:white;fill-rule:nonzero;"/>
            </g>
        </g>
        <g transform="matrix(1,0,0,1,1311.23,4247.76)">
            <g transform="matrix(300,0,0,300,1042.52,779.039)">
                <path d="M0.434,-0.73C0.49,-0.724 0.535,-0.716 0.567,-0.706C0.615,-0.69 0.657,-0.669 0.693,-0.64C0.729,-0.612 0.758,-0.579 0.778,-0.541C0.798,-0.502 0.809,-0.46 0.809,-0.416C0.809,-0.374 0.798,-0.333 0.776,-0.292C0.755,-0.252 0.718,-0.207 0.666,-0.156C0.614,-0.106 0.561,-0.067 0.508,-0.04C0.455,-0.013 0.403,0 0.352,0C0.298,0 0.245,-0.014 0.194,-0.041C0.144,-0.068 0.104,-0.105 0.077,-0.152C0.049,-0.199 0.035,-0.252 0.035,-0.309C0.035,-0.342 0.039,-0.374 0.045,-0.404C0.052,-0.434 0.064,-0.47 0.081,-0.51C0.113,-0.526 0.151,-0.548 0.194,-0.576C0.218,-0.591 0.276,-0.628 0.37,-0.687C0.389,-0.699 0.41,-0.713 0.434,-0.73ZM0.396,-0.633C0.374,-0.634 0.353,-0.635 0.331,-0.636L0.331,-0.347C0.331,-0.316 0.329,-0.294 0.325,-0.282C0.32,-0.269 0.313,-0.256 0.301,-0.243L0.211,-0.156C0.242,-0.13 0.27,-0.112 0.298,-0.101C0.325,-0.09 0.358,-0.083 0.396,-0.081L0.396,-0.633ZM0.417,-0.502C0.441,-0.482 0.463,-0.468 0.484,-0.459C0.505,-0.45 0.528,-0.445 0.553,-0.445C0.576,-0.445 0.597,-0.45 0.616,-0.459C0.635,-0.468 0.656,-0.482 0.677,-0.502C0.659,-0.527 0.641,-0.544 0.625,-0.556C0.596,-0.577 0.565,-0.594 0.531,-0.606C0.497,-0.618 0.459,-0.626 0.417,-0.631L0.417,-0.502ZM0.231,-0.572C0.203,-0.551 0.183,-0.534 0.171,-0.52C0.155,-0.501 0.142,-0.479 0.131,-0.452C0.121,-0.425 0.115,-0.396 0.115,-0.364C0.115,-0.295 0.142,-0.231 0.195,-0.171C0.21,-0.185 0.22,-0.199 0.224,-0.213C0.229,-0.227 0.231,-0.254 0.231,-0.294L0.231,-0.572ZM0.417,-0.299C0.441,-0.322 0.462,-0.338 0.482,-0.347C0.502,-0.356 0.525,-0.36 0.552,-0.36C0.579,-0.36 0.604,-0.355 0.626,-0.346C0.649,-0.336 0.672,-0.319 0.698,-0.295C0.707,-0.327 0.711,-0.355 0.711,-0.379C0.711,-0.401 0.709,-0.42 0.706,-0.436C0.703,-0.448 0.698,-0.463 0.69,-0.481C0.662,-0.458 0.637,-0.443 0.616,-0.434C0.595,-0.426 0.572,-0.422 0.547,-0.422C0.524,-0.422 0.503,-0.426 0.483,-0.433C0.464,-0.441 0.442,-0.455 0.417,-0.475L0.417,-0.299ZM0.417,-0.081C0.458,-0.083 0.492,-0.09 0.518,-0.101C0.557,-0.117 0.59,-0.14 0.619,-0.169C0.648,-0.198 0.671,-0.234 0.69,-0.275C0.645,-0.317 0.599,-0.338 0.552,-0.338C0.525,-0.338 0.499,-0.331 0.474,-0.316C0.456,-0.306 0.437,-0.288 0.417,-0.264L0.417,-0.081Z" style="fill:white;fill-rule:nonzero;"/>
            </g>
        </g>
        <g transform="matrix(1,0,0,1,1311.23,659.315)">
            <g transform="matrix(300,0,0,300,1042.52,779.039)">
                <path d="M0.434,-0.73C0.49,-0.724 0.535,-0.716 0.567,-0.706C0.615,-0.69 0.657,-0.669 0.693,-0.64C0.729,-0.612 0.758,-0.579 0.778,-0.541C0.798,-0.502 0.809,-0.46 0.809,-0.416C0.809,-0.374 0.798,-0.333 0.776,-0.292C0.755,-0.252 0.718,-0.207 0.666,-0.156C0.614,-0.106 0.561,-0.067 0.508,-0.04C0.455,-0.013 0.403,0 0.352,0C0.298,0 0.245,-0.014 0.194,-0.041C0.144,-0.068 0.104,-0.105 0.077,-0.152C0.049,-0.199 0.035,-0.252 0.035,-0.309C0.035,-0.342 0.039,-0.374 0.045,-0.404C0.052,-0.434 0.064,-0.47 0.081,-0.51C0.113,-0.526 0.151,-0.548 0.194,-0.576C0.218,-0.591 0.276,-0.628 0.37,-0.687C0.389,-0.699 0.41,-0.713 0.434,-0.73ZM0.396,-0.633C0.374,-0.634 0.353,-0.635 0.331,-0.636L0.331,-0.347C0.331,-0.316 0.329,-0.294 0.325,-0.282C0.32,-0.269 0.313,-0.256 0.301,-0.243L0.211,-0.156C0.242,-0.13 0.27,-0.112 0.298,-0.101C0.325,-0.09 0.358,-0.083 0.396,-0.081L0.396,-0.633ZM0.417,-0.502C0.441,-0.482 0.463,-0.468 0.484,-0.459C0.505,-0.45 0.528,-0.445 0.553,-0.445C0.576,-0.445 0.597,-0.45 0.616,-0.459C0.635,-0.468 0.656,-0.482 0.677,-0.502C0.659,-0.527 0.641,-0.544 0.625,-0.556C0.596,-0.577 0.565,-0.594 0.531,-0.606C0.497,-0.618 0.459,-0.626 0.417,-0.631L0.417,-0.502ZM0.231,-0.572C0.203,-0.551 0.183,-0.534 0.171,-0.52C0.155,-0.501 0.142,-0.479 0.131,-0.452C0.121,-0.425 0.115,-0.396 0.115,-0.364C0.115,-0.295 0.142,-0.231 0.195,-0.171C0.21,-0.185 0.22,-0.199 0.224,-0.213C0.229,-0.227 0.231,-0.254 0.231,-0.294L0.231,-0.572ZM0.417,-0.299C0.441,-0.322 0.462,-0.338 0.482,-0.347C0.502,-0.356 0.525,-0.36 0.552,-0.36C0.579,-0.36 0.604,-0.355 0.626,-0.346C0.649,-0.336 0.672,-0.319 0.698,-0.295C0.707,-0.327 0.711,-0.355 0.711,-0.379C0.711,-0.401 0.709,-0.42 0.706,-0.436C0.703,-0.448 0.698,-0.463 0.69,-0.481C0.662,-0.458 0.637,-0.443 0.616,-0.434C0.595,-0.426 0.572,-0.422 0.547,-0.422C0.524,-0.422 0.503,-0.426 0.483,-0.433C0.464,-0.441 0.442,-0.455 0.417,-0.475L0.417,-0.299ZM0.417,-0.081C0.458,-0.083 0.492,-0.09 0.518,-0.101C0.557,-0.117 0.59,-0.14 0.619,-0.169C0.648,-0.198 0.671,-0.234 0.69,-0.275C0.645,-0.317 0.599,-0.338 0.552,-0.338C0.525,-0.338 0.499,-0.331 0.474,-0.316C0.456,-0.306 0.437,-0.288 0.417,-0.264L0.417,-0.081Z" style="fill:white;fill-rule:nonzero;"/>
            </g>
        </g>
        <g transform="matrix(1,0,0,1,1311.23,1723.65)">
            <g transform="matrix(300,0,0,300,1042.52,779.039)">
                <path d="M0.434,-0.73C0.49,-0.724 0.535,-0.716 0.567,-0.706C0.615,-0.69 0.657,-0.669 0.693,-0.64C0.729,-0.612 0.758,-0.579 0.778,-0.541C0.798,-0.502 0.809,-0.46 0.809,-0.416C0.809,-0.374 0.798,-0.333 0.776,-0.292C0.755,-0.252 0.718,-0.207 0.666,-0.156C0.614,-0.106 0.561,-0.067 0.508,-0.04C0.455,-0.013 0.403,0 0.352,0C0.298,0 0.245,-0.014 0.194,-0.041C0.144,-0.068 0.104,-0.105 0.077,-0.152C0.049,-0.199 0.035,-0.252 0.035,-0.309C0.035,-0.342 0.039,-0.374 0.045,-0.404C0.052,-0.434 0.064,-0.47 0.081,-0.51C0.113,-0.526 0.151,-0.548 0.194,-0.576C0.218,-0.591 0.276,-0.628 0.37,-0.687C0.389,-0.699 0.41,-0.713 0.434,-0.73ZM0.396,-0.633C0.374,-0.634 0.353,-0.635 0.331,-0.636L0.331,-0.347C0.331,-0.316 0.329,-0.294 0.325,-0.282C0.32,-0.269 0.313,-0.256 0.301,-0.243L0.211,-0.156C0.242,-0.13 0.27,-0.112 0.298,-0.101C0.325,-0.09 0.358,-0.083 0.396,-0.081L0.396,-0.633ZM0.417,-0.502C0.441,-0.482 0.463,-0.468 0.484,-0.459C0.505,-0.45 0.528,-0.445 0.553,-0.445C0.576,-0.445 0.597,-0.45 0.616,-0.459C0.635,-0.468 0.656,-0.482 0.677,-0.502C0.659,-0.527 0.641,-0.544 0.625,-0.556C0.596,-0.577 0.565,-0.594 0.531,-0.606C0.497,-0.618 0.459,-0.626 0.417,-0.631L0.417,-0.502ZM0.231,-0.572C0.203,-0.551 0.183,-0.534 0.171,-0.52C0.155,-0.501 0.142,-0.479 0.131,-0.452C0.121,-0.425 0.115,-0.396 0.115,-0.364C0.115,-0.295 0.142,-0.231 0.195,-0.171C0.21,-0.185 0.22,-0.199 0.224,-0.213C0.229,-0.227 0.231,-0.254 0.231,-0.294L0.231,-0.572ZM0.417,-0.299C0.441,-0.322 0.462,-0.338 0.482,-0.347C0.502,-0.356 0.525,-0.36 0.552,-0.36C0.579,-0.36 0.604,-0.355 0.626,-0.346C0.649,-0.336 0.672,-0.319 0.698,-0.295C0.707,-0.327 0.711,-0.355 0.711,-0.379C0.711,-0.401 0.709,-0.42 0.706,-0.436C0.703,-0.448 0.698,-0.463 0.69,-0.481C0.662,-0.458 0.637,-0.443 0.616,-0.434C0.595,-0.426 0.572,-0.422 0.547,-0.422C0.524,-0.422 0.503,-0.426 0.483,-0.433C0.464,-0.441 0.442,-0.455 0.417,-0.475L0.417,-0.299ZM0.417,-0.081C0.458,-0.083 0.492,-0.09 0.518,-0.101C0.557,-0.117 0.59,-0.14 0.619,-0.169C0.648,-0.198 0.671,-0.234 0.69,-0.275C0.645,-0.317 0.599,-0.338 0.552,-0.338C0.525,-0.338 0.499,-0.331 0.474,-0.316C0.456,-0.306 0.437,-0.288 0.417,-0.264L0.417,-0.081Z" style="fill:white;fill-rule:nonzero;"/>
            </g>
        </g>
        <g transform="matrix(1,0,0,1,1625.76,4336.84)">
            <g transform="matrix(300,0,0,300,733.563,1032.98)">
                <path d="M0.754,-0.73L0.772,-0.717C0.766,-0.686 0.756,-0.661 0.744,-0.643C0.733,-0.624 0.715,-0.61 0.692,-0.599C0.669,-0.589 0.643,-0.583 0.613,-0.583C0.597,-0.583 0.577,-0.584 0.555,-0.586L0.555,-0.093C0.604,-0.108 0.643,-0.127 0.672,-0.151C0.702,-0.174 0.729,-0.208 0.754,-0.252L0.772,-0.243C0.758,-0.2 0.742,-0.165 0.723,-0.139C0.692,-0.096 0.653,-0.062 0.605,-0.037C0.558,-0.012 0.502,0 0.439,0C0.378,0 0.321,-0.012 0.268,-0.035C0.237,-0.049 0.208,-0.068 0.183,-0.093C0.157,-0.118 0.136,-0.147 0.119,-0.183C0.103,-0.218 0.095,-0.258 0.095,-0.302C0.095,-0.347 0.104,-0.39 0.122,-0.431C0.139,-0.472 0.166,-0.511 0.201,-0.549C0.223,-0.572 0.254,-0.598 0.294,-0.627L0.233,-0.63C0.21,-0.631 0.185,-0.626 0.158,-0.615C0.13,-0.605 0.108,-0.59 0.093,-0.572C0.078,-0.554 0.064,-0.526 0.053,-0.49L0.034,-0.501C0.045,-0.547 0.06,-0.583 0.077,-0.609C0.101,-0.643 0.131,-0.67 0.17,-0.688C0.208,-0.707 0.252,-0.716 0.301,-0.716C0.335,-0.716 0.396,-0.709 0.482,-0.695C0.569,-0.681 0.628,-0.673 0.661,-0.673C0.683,-0.673 0.699,-0.677 0.711,-0.683C0.722,-0.69 0.737,-0.706 0.754,-0.73ZM0.349,-0.622L0.323,-0.624C0.28,-0.587 0.248,-0.549 0.227,-0.512C0.199,-0.461 0.186,-0.409 0.186,-0.356C0.186,-0.265 0.223,-0.19 0.298,-0.133C0.322,-0.153 0.336,-0.169 0.341,-0.181C0.347,-0.194 0.349,-0.219 0.349,-0.257L0.349,-0.622ZM0.532,-0.591C0.501,-0.595 0.474,-0.6 0.45,-0.604L0.45,-0.312C0.45,-0.278 0.449,-0.257 0.446,-0.247C0.443,-0.238 0.437,-0.227 0.427,-0.216C0.409,-0.196 0.372,-0.164 0.317,-0.12C0.345,-0.107 0.367,-0.098 0.384,-0.093C0.413,-0.085 0.441,-0.082 0.468,-0.082C0.483,-0.082 0.504,-0.083 0.532,-0.087L0.532,-0.591Z" style="fill:white;fill-rule:nonzero;"/>
            </g>
        </g>
        <g transform="matrix(1,0,0,1,901.034,621.03)">
            <g transform="matrix(300,0,0,300,1463.63,474.314)">
                <path d="M0.282,-0.669L0.294,-0.655C0.246,-0.622 0.21,-0.587 0.186,-0.55C0.155,-0.502 0.14,-0.449 0.14,-0.393C0.14,-0.324 0.163,-0.26 0.208,-0.202C0.228,-0.218 0.239,-0.232 0.243,-0.242C0.247,-0.253 0.249,-0.283 0.249,-0.332L0.249,-0.551L0.458,-0.725C0.507,-0.706 0.545,-0.693 0.573,-0.688C0.601,-0.682 0.634,-0.679 0.672,-0.679L0.683,-0.679L0.691,-0.661L0.61,-0.584C0.556,-0.59 0.495,-0.61 0.427,-0.644L0.432,-0.086L0.451,-0.086C0.497,-0.086 0.54,-0.094 0.578,-0.11C0.617,-0.126 0.657,-0.152 0.698,-0.188L0.713,-0.174C0.683,-0.132 0.653,-0.099 0.624,-0.076C0.595,-0.053 0.56,-0.035 0.519,-0.021C0.478,-0.007 0.437,0 0.396,0C0.337,0 0.28,-0.014 0.227,-0.043C0.174,-0.072 0.133,-0.114 0.103,-0.168C0.073,-0.222 0.058,-0.278 0.058,-0.335C0.058,-0.406 0.079,-0.471 0.122,-0.531C0.155,-0.578 0.208,-0.624 0.282,-0.669ZM0.405,-0.647L0.348,-0.598L0.348,-0.375C0.348,-0.347 0.346,-0.329 0.343,-0.32C0.34,-0.308 0.332,-0.295 0.321,-0.281C0.297,-0.254 0.264,-0.222 0.221,-0.186C0.247,-0.157 0.275,-0.135 0.305,-0.12C0.335,-0.104 0.37,-0.094 0.41,-0.089L0.405,-0.647Z" style="fill:white;fill-rule:nonzero;"/>
            </g>
        </g>
        <g transform="matrix(1,0,0,1,944.175,825.383)">
            <g transform="matrix(300,0,0,300,1385.33,958.911)">
                <path d="M0.627,-0.582L0.865,-0.74C0.903,-0.686 0.93,-0.637 0.946,-0.593C0.963,-0.55 0.971,-0.507 0.971,-0.465C0.971,-0.423 0.964,-0.385 0.95,-0.349C0.928,-0.292 0.896,-0.237 0.854,-0.186C0.813,-0.134 0.752,-0.072 0.672,0C0.657,-0.018 0.64,-0.031 0.623,-0.039C0.606,-0.047 0.589,-0.051 0.573,-0.051C0.552,-0.051 0.53,-0.048 0.506,-0.041C0.483,-0.034 0.45,-0.02 0.409,0C0.394,-0.017 0.38,-0.029 0.366,-0.036C0.348,-0.044 0.326,-0.048 0.301,-0.048C0.275,-0.048 0.252,-0.045 0.23,-0.038C0.209,-0.031 0.182,-0.019 0.151,0L0.136,-0.011C0.188,-0.101 0.214,-0.173 0.214,-0.228C0.214,-0.259 0.205,-0.285 0.186,-0.306C0.168,-0.326 0.147,-0.336 0.125,-0.336C0.111,-0.336 0.097,-0.331 0.083,-0.319L0.069,-0.33C0.087,-0.368 0.115,-0.387 0.152,-0.387C0.164,-0.387 0.177,-0.384 0.19,-0.378C0.203,-0.372 0.216,-0.362 0.229,-0.35C0.227,-0.467 0.207,-0.557 0.169,-0.62C0.15,-0.651 0.129,-0.667 0.104,-0.667C0.092,-0.667 0.082,-0.662 0.073,-0.652C0.064,-0.642 0.057,-0.622 0.052,-0.592L0.035,-0.597C0.037,-0.642 0.047,-0.677 0.066,-0.702C0.085,-0.727 0.11,-0.74 0.143,-0.74C0.173,-0.74 0.202,-0.727 0.232,-0.703C0.261,-0.678 0.285,-0.638 0.303,-0.582L0.54,-0.74C0.572,-0.7 0.601,-0.647 0.627,-0.582ZM0.309,-0.559C0.317,-0.529 0.322,-0.496 0.325,-0.46C0.348,-0.447 0.367,-0.438 0.383,-0.433C0.399,-0.428 0.417,-0.426 0.435,-0.426C0.454,-0.426 0.471,-0.428 0.488,-0.433C0.504,-0.438 0.525,-0.447 0.548,-0.46C0.541,-0.5 0.533,-0.535 0.522,-0.563C0.511,-0.592 0.493,-0.626 0.468,-0.666L0.309,-0.559ZM0.633,-0.562C0.639,-0.547 0.643,-0.534 0.645,-0.522C0.647,-0.511 0.649,-0.49 0.651,-0.46C0.676,-0.448 0.695,-0.439 0.71,-0.435C0.725,-0.431 0.741,-0.429 0.759,-0.429C0.776,-0.429 0.793,-0.431 0.808,-0.436C0.824,-0.44 0.843,-0.448 0.865,-0.46C0.862,-0.492 0.856,-0.52 0.848,-0.545C0.834,-0.584 0.815,-0.624 0.791,-0.665L0.633,-0.562ZM0.548,-0.437C0.522,-0.423 0.501,-0.414 0.485,-0.41C0.469,-0.405 0.451,-0.403 0.433,-0.403C0.416,-0.403 0.399,-0.405 0.381,-0.41C0.363,-0.415 0.345,-0.423 0.326,-0.433L0.326,-0.42C0.326,-0.378 0.318,-0.33 0.301,-0.278C0.32,-0.286 0.338,-0.292 0.355,-0.296C0.372,-0.3 0.387,-0.302 0.401,-0.302C0.422,-0.302 0.442,-0.299 0.46,-0.293C0.479,-0.288 0.5,-0.277 0.525,-0.262C0.541,-0.312 0.549,-0.361 0.549,-0.408C0.549,-0.414 0.549,-0.424 0.548,-0.437ZM0.865,-0.433C0.84,-0.423 0.821,-0.416 0.806,-0.412C0.791,-0.409 0.775,-0.407 0.758,-0.407C0.742,-0.407 0.725,-0.409 0.707,-0.414C0.689,-0.418 0.671,-0.424 0.653,-0.433C0.652,-0.403 0.649,-0.379 0.645,-0.36C0.641,-0.341 0.632,-0.317 0.619,-0.286C0.634,-0.291 0.649,-0.295 0.662,-0.298C0.676,-0.3 0.689,-0.302 0.702,-0.302C0.726,-0.302 0.748,-0.299 0.768,-0.292C0.788,-0.286 0.809,-0.275 0.831,-0.26C0.854,-0.322 0.866,-0.375 0.866,-0.42C0.866,-0.423 0.866,-0.427 0.865,-0.433ZM0.822,-0.236C0.8,-0.252 0.78,-0.263 0.762,-0.269C0.745,-0.276 0.725,-0.279 0.702,-0.279C0.687,-0.279 0.672,-0.277 0.655,-0.273C0.639,-0.27 0.622,-0.264 0.605,-0.257C0.588,-0.227 0.568,-0.197 0.545,-0.167C0.522,-0.138 0.489,-0.1 0.445,-0.055C0.496,-0.082 0.538,-0.101 0.572,-0.111C0.605,-0.122 0.637,-0.127 0.666,-0.127C0.689,-0.127 0.715,-0.121 0.743,-0.11C0.774,-0.15 0.8,-0.192 0.822,-0.236ZM0.517,-0.236C0.493,-0.253 0.473,-0.264 0.457,-0.27C0.441,-0.275 0.424,-0.278 0.406,-0.278C0.389,-0.278 0.371,-0.276 0.352,-0.271C0.333,-0.265 0.312,-0.257 0.29,-0.247C0.276,-0.21 0.261,-0.177 0.245,-0.148C0.229,-0.119 0.209,-0.087 0.183,-0.051C0.232,-0.077 0.274,-0.095 0.306,-0.105C0.339,-0.115 0.371,-0.12 0.402,-0.12C0.417,-0.12 0.434,-0.118 0.454,-0.115C0.479,-0.154 0.5,-0.195 0.517,-0.236Z" style="fill:white;fill-rule:nonzero;"/>
            </g>
        </g>
        <g transform="matrix(1,0,0,1,711.136,1031.66)">
            <g transform="matrix(300,0,0,300,1645.62,1098.58)">
                <path d="M0.657,-0.74C0.691,-0.731 0.716,-0.717 0.733,-0.7C0.758,-0.675 0.77,-0.647 0.77,-0.614C0.77,-0.588 0.761,-0.561 0.741,-0.533C0.722,-0.504 0.687,-0.471 0.636,-0.432C0.68,-0.428 0.712,-0.421 0.732,-0.411C0.753,-0.4 0.767,-0.387 0.775,-0.371C0.783,-0.354 0.787,-0.327 0.787,-0.289L0.787,-0.121C0.671,-0.108 0.573,-0.068 0.491,0C0.463,-0.02 0.436,-0.033 0.41,-0.042C0.369,-0.055 0.325,-0.062 0.278,-0.062C0.221,-0.062 0.175,-0.05 0.14,-0.027C0.116,-0.011 0.104,0.004 0.104,0.02C0.104,0.026 0.108,0.035 0.115,0.046C0.121,0.058 0.125,0.067 0.125,0.074C0.125,0.08 0.122,0.086 0.117,0.091C0.112,0.096 0.107,0.098 0.101,0.098C0.092,0.098 0.084,0.094 0.076,0.085C0.069,0.077 0.065,0.065 0.065,0.052C0.065,0.039 0.07,0.025 0.079,0.009C0.088,-0.008 0.107,-0.031 0.137,-0.061C0.167,-0.091 0.186,-0.113 0.194,-0.127C0.202,-0.141 0.207,-0.154 0.207,-0.167C0.207,-0.181 0.202,-0.193 0.192,-0.202C0.183,-0.211 0.17,-0.216 0.156,-0.216C0.143,-0.216 0.132,-0.212 0.123,-0.205C0.115,-0.197 0.109,-0.185 0.106,-0.167L0.088,-0.168C0.088,-0.174 0.088,-0.178 0.088,-0.181C0.088,-0.209 0.097,-0.231 0.115,-0.249C0.134,-0.266 0.158,-0.275 0.189,-0.275C0.193,-0.275 0.198,-0.275 0.206,-0.274C0.205,-0.306 0.201,-0.329 0.191,-0.344C0.177,-0.367 0.155,-0.378 0.126,-0.378C0.108,-0.378 0.092,-0.374 0.078,-0.364C0.07,-0.359 0.063,-0.349 0.055,-0.334L0.037,-0.341C0.04,-0.372 0.052,-0.397 0.073,-0.415C0.094,-0.434 0.121,-0.443 0.153,-0.443C0.165,-0.443 0.18,-0.442 0.198,-0.44C0.2,-0.486 0.204,-0.519 0.211,-0.54C0.218,-0.561 0.23,-0.58 0.247,-0.598C0.264,-0.615 0.296,-0.639 0.343,-0.67C0.299,-0.655 0.261,-0.648 0.23,-0.648C0.21,-0.648 0.184,-0.652 0.152,-0.66C0.133,-0.664 0.12,-0.666 0.112,-0.666C0.098,-0.666 0.085,-0.661 0.075,-0.651C0.065,-0.641 0.058,-0.624 0.055,-0.598L0.037,-0.598C0.038,-0.628 0.043,-0.653 0.053,-0.673C0.063,-0.693 0.078,-0.709 0.099,-0.721C0.119,-0.734 0.141,-0.74 0.164,-0.74C0.181,-0.74 0.209,-0.735 0.248,-0.725C0.288,-0.715 0.319,-0.71 0.344,-0.71C0.362,-0.71 0.379,-0.712 0.396,-0.716C0.413,-0.72 0.435,-0.728 0.462,-0.74L0.472,-0.718C0.402,-0.684 0.355,-0.651 0.331,-0.618C0.308,-0.586 0.296,-0.543 0.296,-0.489L0.296,-0.288C0.296,-0.244 0.292,-0.21 0.282,-0.186C0.272,-0.161 0.252,-0.134 0.223,-0.102C0.28,-0.127 0.319,-0.153 0.339,-0.181C0.359,-0.209 0.369,-0.25 0.369,-0.304L0.369,-0.448C0.369,-0.516 0.375,-0.563 0.386,-0.59C0.398,-0.618 0.42,-0.641 0.451,-0.661C0.482,-0.681 0.551,-0.707 0.657,-0.74ZM0.573,-0.692C0.537,-0.676 0.514,-0.663 0.501,-0.652C0.489,-0.641 0.481,-0.628 0.476,-0.612C0.471,-0.597 0.469,-0.572 0.469,-0.535L0.469,-0.335C0.469,-0.3 0.465,-0.273 0.459,-0.255C0.452,-0.237 0.44,-0.219 0.421,-0.201C0.403,-0.184 0.365,-0.159 0.309,-0.125C0.339,-0.13 0.368,-0.132 0.394,-0.132C0.439,-0.132 0.481,-0.126 0.521,-0.114L0.521,-0.521L0.543,-0.521L0.543,-0.394C0.588,-0.421 0.621,-0.448 0.643,-0.477C0.664,-0.505 0.675,-0.536 0.675,-0.569C0.675,-0.597 0.666,-0.62 0.65,-0.64C0.633,-0.659 0.607,-0.677 0.573,-0.692ZM0.543,-0.323C0.57,-0.314 0.594,-0.309 0.615,-0.309C0.637,-0.309 0.661,-0.314 0.688,-0.323C0.688,-0.346 0.682,-0.364 0.672,-0.377C0.662,-0.391 0.643,-0.404 0.615,-0.416C0.58,-0.393 0.556,-0.377 0.543,-0.371L0.543,-0.323ZM0.688,-0.302C0.66,-0.292 0.636,-0.287 0.615,-0.287C0.593,-0.287 0.569,-0.292 0.543,-0.302L0.543,-0.215C0.568,-0.224 0.591,-0.229 0.613,-0.229C0.634,-0.229 0.659,-0.224 0.688,-0.215L0.688,-0.302ZM0.688,-0.192C0.658,-0.203 0.632,-0.208 0.611,-0.208C0.59,-0.208 0.567,-0.203 0.543,-0.192L0.543,-0.105C0.557,-0.099 0.57,-0.092 0.583,-0.084C0.616,-0.102 0.651,-0.115 0.688,-0.125L0.688,-0.192Z" style="fill:white;fill-rule:nonzero;"/>
            </g>
        </g>
        <g transform="matrix(1,0,0,1,714.887,1344.25)">
            <g transform="matrix(300,0,0,300,1649.85,1505.4)">
                <path d="M0.06,-0.679L0.049,-0.698C0.072,-0.717 0.091,-0.729 0.105,-0.735C0.119,-0.74 0.135,-0.743 0.154,-0.743C0.181,-0.743 0.205,-0.738 0.229,-0.727C0.252,-0.717 0.27,-0.703 0.283,-0.686C0.293,-0.672 0.301,-0.652 0.308,-0.625C0.356,-0.661 0.397,-0.686 0.43,-0.699C0.464,-0.713 0.496,-0.72 0.527,-0.72C0.585,-0.72 0.635,-0.696 0.677,-0.647C0.72,-0.599 0.741,-0.533 0.741,-0.448C0.741,-0.399 0.733,-0.353 0.717,-0.31C0.701,-0.267 0.677,-0.231 0.645,-0.203C0.613,-0.176 0.576,-0.156 0.534,-0.143C0.491,-0.131 0.454,-0.125 0.424,-0.125L0.217,-0.129C0.186,-0.129 0.156,-0.124 0.129,-0.114C0.102,-0.104 0.082,-0.09 0.07,-0.073C0.057,-0.056 0.051,-0.037 0.051,-0.017C0.051,0.009 0.061,0.031 0.08,0.049C0.099,0.068 0.122,0.077 0.149,0.077C0.164,0.077 0.179,0.075 0.194,0.07C0.21,0.066 0.24,0.055 0.284,0.036C0.347,0.008 0.4,-0.006 0.442,-0.006C0.485,-0.006 0.519,0.004 0.544,0.024C0.563,0.04 0.572,0.06 0.572,0.085C0.572,0.1 0.568,0.112 0.559,0.121C0.551,0.13 0.54,0.135 0.527,0.135C0.517,0.135 0.507,0.131 0.5,0.123C0.492,0.114 0.488,0.104 0.488,0.091C0.488,0.081 0.492,0.07 0.499,0.057C0.504,0.049 0.506,0.044 0.506,0.041C0.506,0.036 0.504,0.032 0.5,0.029C0.495,0.025 0.488,0.023 0.479,0.023C0.468,0.023 0.456,0.026 0.443,0.03C0.431,0.035 0.408,0.047 0.374,0.066C0.326,0.093 0.289,0.111 0.262,0.121C0.234,0.13 0.209,0.135 0.187,0.135C0.143,0.135 0.106,0.12 0.075,0.091C0.045,0.062 0.029,0.028 0.029,-0.011C0.029,-0.049 0.044,-0.081 0.073,-0.108C0.102,-0.135 0.147,-0.15 0.208,-0.153C0.209,-0.16 0.209,-0.165 0.209,-0.168C0.209,-0.205 0.201,-0.238 0.185,-0.265C0.169,-0.292 0.148,-0.312 0.123,-0.326C0.106,-0.334 0.085,-0.339 0.06,-0.339L0.06,-0.357C0.074,-0.36 0.086,-0.361 0.096,-0.361C0.117,-0.361 0.136,-0.358 0.153,-0.352C0.171,-0.346 0.189,-0.336 0.208,-0.322C0.209,-0.332 0.209,-0.34 0.209,-0.347C0.209,-0.387 0.197,-0.42 0.173,-0.446C0.148,-0.472 0.119,-0.485 0.085,-0.485C0.077,-0.485 0.067,-0.484 0.055,-0.482L0.055,-0.501C0.076,-0.513 0.097,-0.518 0.117,-0.518C0.132,-0.518 0.146,-0.516 0.158,-0.512C0.171,-0.507 0.188,-0.499 0.208,-0.486L0.208,-0.529C0.208,-0.591 0.199,-0.634 0.18,-0.659C0.161,-0.684 0.138,-0.696 0.111,-0.696C0.094,-0.696 0.077,-0.691 0.06,-0.679ZM0.385,-0.512C0.405,-0.494 0.423,-0.481 0.44,-0.475C0.457,-0.468 0.475,-0.464 0.496,-0.464C0.519,-0.464 0.54,-0.468 0.559,-0.476C0.578,-0.484 0.599,-0.499 0.624,-0.521C0.614,-0.551 0.603,-0.574 0.592,-0.59C0.575,-0.615 0.556,-0.634 0.533,-0.646C0.511,-0.658 0.488,-0.664 0.464,-0.664C0.441,-0.664 0.415,-0.657 0.385,-0.643L0.385,-0.512ZM0.362,-0.631C0.344,-0.62 0.326,-0.608 0.308,-0.596L0.308,-0.153C0.32,-0.153 0.329,-0.153 0.335,-0.153L0.362,-0.153L0.362,-0.631ZM0.385,-0.334C0.41,-0.351 0.431,-0.363 0.449,-0.369C0.467,-0.375 0.487,-0.378 0.507,-0.378C0.528,-0.378 0.547,-0.375 0.566,-0.369C0.584,-0.363 0.605,-0.351 0.629,-0.334C0.634,-0.363 0.637,-0.388 0.637,-0.409C0.637,-0.431 0.634,-0.459 0.629,-0.495C0.601,-0.474 0.577,-0.46 0.557,-0.452C0.536,-0.444 0.515,-0.44 0.491,-0.44C0.474,-0.44 0.457,-0.443 0.441,-0.449C0.425,-0.455 0.406,-0.466 0.385,-0.481L0.385,-0.334ZM0.385,-0.153C0.432,-0.154 0.471,-0.16 0.5,-0.171C0.53,-0.182 0.555,-0.198 0.574,-0.219C0.593,-0.24 0.609,-0.27 0.624,-0.309C0.6,-0.327 0.579,-0.339 0.563,-0.345C0.546,-0.351 0.527,-0.354 0.507,-0.354C0.486,-0.354 0.466,-0.351 0.448,-0.345C0.43,-0.338 0.409,-0.326 0.385,-0.309L0.385,-0.153Z" style="fill:white;fill-rule:nonzero;"/>
            </g>
        </g>
    </g>
</svg>
