<?xml version="1.0" encoding="UTF-8" standalone="no"?>
<!DOCTYPE svg PUBLIC "-//W3C//DTD SVG 1.1//EN" "http://www.w3.org/Graphics/SVG/1.1/DTD/svg11.dtd">
<svg width="100%" height="100%" viewBox="0 0 3029 249" version="1.1" xmlns="http://www.w3.org/2000/svg" xmlns:xlink="http://www.w3.org/1999/xlink" xml:space="preserve" xmlns:serif="http://www.serif.com/" style="fill-rule:evenodd;clip-rule:evenodd;stroke-linejoin:round;stroke-miterlimit:2;">
    <g transform="matrix(1,0,0,1,-571.204,-4789.08)">
        <g transform="matrix(300,0,0,300,547.873,5011)">
            <path d="M0.151,-0.351L0.127,-0.351C0.105,-0.411 0.091,-0.465 0.085,-0.511C0.079,-0.557 0.077,-0.588 0.078,-0.604L0.078,-0.676L0.197,-0.676L0.197,-0.604C0.197,-0.589 0.194,-0.559 0.189,-0.512C0.183,-0.466 0.171,-0.413 0.151,-0.351ZM0.385,-0.351L0.362,-0.351C0.339,-0.411 0.325,-0.465 0.319,-0.511C0.313,-0.557 0.311,-0.588 0.313,-0.604L0.313,-0.676L0.432,-0.676L0.432,-0.604C0.432,-0.589 0.429,-0.559 0.423,-0.512C0.418,-0.466 0.405,-0.413 0.385,-0.351Z" style="fill:white;fill-rule:nonzero;"/>
        </g>
        <g transform="matrix(300,0,0,300,773.546,5011)">
            <path d="M0.94,-0.697L0.956,-0.682C0.934,-0.658 0.92,-0.638 0.915,-0.623C0.909,-0.608 0.906,-0.585 0.906,-0.555L0.906,-0.177C0.906,-0.139 0.909,-0.114 0.916,-0.104C0.922,-0.094 0.931,-0.089 0.942,-0.089C0.95,-0.089 0.963,-0.097 0.98,-0.112L0.994,-0.093L0.876,0C0.847,-0.014 0.828,-0.031 0.818,-0.05C0.808,-0.068 0.803,-0.101 0.803,-0.148L0.803,-0.615L0.721,-0.678L0.689,-0.657L0.689,-0.415L0.748,-0.415L0.689,-0.341L0.689,-0.136L0.727,-0.167L0.742,-0.151L0.561,0C0.534,-0.033 0.512,-0.056 0.495,-0.071C0.483,-0.082 0.468,-0.092 0.451,-0.101L0.451,-0.118C0.466,-0.123 0.477,-0.132 0.481,-0.143C0.485,-0.152 0.487,-0.171 0.487,-0.203L0.487,-0.341L0.338,-0.341L0.338,-0.131C0.338,-0.073 0.324,-0.028 0.294,0.003C0.265,0.034 0.226,0.05 0.179,0.05C0.169,0.05 0.15,0.048 0.123,0.044C0.105,0.041 0.092,0.04 0.084,0.04C0.067,0.04 0.055,0.044 0.048,0.051C0.04,0.059 0.036,0.071 0.036,0.089L0.017,0.089C0.013,0.075 0.011,0.064 0.011,0.054C0.011,0.037 0.016,0.02 0.025,0.005C0.034,-0.011 0.046,-0.022 0.062,-0.03C0.073,-0.036 0.095,-0.04 0.126,-0.043C0.157,-0.046 0.18,-0.056 0.195,-0.073C0.21,-0.089 0.218,-0.112 0.218,-0.142C0.218,-0.189 0.207,-0.227 0.185,-0.257C0.163,-0.287 0.137,-0.302 0.106,-0.302C0.082,-0.302 0.062,-0.291 0.047,-0.268L0.029,-0.276C0.038,-0.3 0.048,-0.318 0.059,-0.331C0.071,-0.344 0.087,-0.354 0.106,-0.362C0.121,-0.367 0.142,-0.37 0.169,-0.371C0.169,-0.38 0.168,-0.388 0.168,-0.393C0.168,-0.447 0.179,-0.493 0.201,-0.531C0.223,-0.568 0.257,-0.603 0.304,-0.634C0.351,-0.665 0.418,-0.701 0.505,-0.74C0.536,-0.723 0.557,-0.707 0.568,-0.69C0.579,-0.673 0.585,-0.649 0.586,-0.618L0.778,-0.74L0.895,-0.652L0.94,-0.697ZM0.487,-0.415L0.487,-0.56C0.487,-0.596 0.482,-0.621 0.473,-0.637C0.464,-0.653 0.448,-0.666 0.424,-0.676C0.402,-0.664 0.386,-0.654 0.376,-0.645C0.363,-0.631 0.354,-0.615 0.348,-0.597C0.341,-0.578 0.338,-0.551 0.338,-0.517L0.338,-0.362L0.379,-0.415L0.487,-0.415ZM0.667,-0.643L0.586,-0.59L0.586,-0.415L0.667,-0.415L0.667,-0.643ZM0.335,-0.625C0.307,-0.602 0.289,-0.581 0.28,-0.561C0.272,-0.541 0.268,-0.506 0.268,-0.457L0.268,-0.18C0.268,-0.135 0.262,-0.103 0.25,-0.085C0.239,-0.067 0.217,-0.051 0.183,-0.038C0.198,-0.037 0.21,-0.036 0.22,-0.036C0.244,-0.036 0.264,-0.04 0.279,-0.049C0.294,-0.057 0.304,-0.067 0.309,-0.079C0.314,-0.092 0.316,-0.113 0.316,-0.144L0.316,-0.512C0.316,-0.54 0.318,-0.563 0.321,-0.582C0.323,-0.593 0.328,-0.607 0.335,-0.625ZM0.667,-0.341L0.586,-0.341L0.586,-0.215C0.586,-0.171 0.589,-0.143 0.595,-0.13C0.605,-0.109 0.618,-0.099 0.634,-0.099C0.642,-0.099 0.653,-0.105 0.667,-0.118L0.667,-0.341Z" style="fill:white;fill-rule:nonzero;"/>
        </g>
        <g transform="matrix(300,0,0,300,1136.62,5011)">
            <path d="M0.678,-0.74L0.688,-0.717C0.664,-0.706 0.647,-0.694 0.635,-0.683C0.624,-0.672 0.616,-0.66 0.612,-0.646C0.607,-0.632 0.605,-0.611 0.605,-0.584C0.605,-0.575 0.605,-0.563 0.605,-0.549L0.614,-0.184C0.614,-0.144 0.619,-0.118 0.626,-0.105C0.632,-0.097 0.639,-0.092 0.646,-0.092C0.656,-0.092 0.67,-0.102 0.69,-0.121L0.705,-0.102L0.614,-0.025L0.583,0C0.558,-0.012 0.539,-0.028 0.529,-0.048C0.518,-0.068 0.512,-0.099 0.51,-0.143L0.322,0C0.216,-0.069 0.145,-0.104 0.106,-0.104C0.097,-0.104 0.089,-0.101 0.083,-0.095C0.078,-0.091 0.075,-0.085 0.075,-0.077C0.075,-0.069 0.078,-0.059 0.084,-0.049C0.093,-0.036 0.097,-0.027 0.097,-0.022C0.097,-0.016 0.094,-0.011 0.09,-0.007C0.085,-0.002 0.08,0 0.073,0C0.065,0 0.059,-0.003 0.054,-0.01C0.047,-0.019 0.043,-0.03 0.043,-0.044C0.043,-0.06 0.047,-0.077 0.056,-0.096C0.065,-0.116 0.079,-0.137 0.096,-0.16C0.1,-0.165 0.103,-0.169 0.106,-0.173L0.176,-0.269C0.129,-0.304 0.095,-0.338 0.076,-0.371C0.057,-0.403 0.048,-0.44 0.048,-0.48C0.048,-0.527 0.06,-0.57 0.084,-0.61C0.108,-0.65 0.144,-0.682 0.192,-0.705C0.24,-0.728 0.289,-0.74 0.34,-0.74C0.418,-0.74 0.493,-0.713 0.565,-0.659C0.582,-0.677 0.599,-0.692 0.616,-0.704C0.632,-0.716 0.653,-0.728 0.678,-0.74ZM0.438,-0.626C0.397,-0.647 0.356,-0.657 0.315,-0.657C0.272,-0.657 0.231,-0.647 0.193,-0.628C0.155,-0.609 0.127,-0.585 0.108,-0.555C0.089,-0.524 0.08,-0.494 0.08,-0.462C0.08,-0.395 0.116,-0.336 0.188,-0.285L0.351,-0.508C0.327,-0.521 0.305,-0.528 0.285,-0.528C0.258,-0.528 0.236,-0.515 0.219,-0.49C0.216,-0.485 0.212,-0.482 0.209,-0.482C0.207,-0.482 0.205,-0.483 0.203,-0.485C0.202,-0.487 0.201,-0.489 0.201,-0.492C0.201,-0.502 0.206,-0.516 0.216,-0.534C0.226,-0.552 0.241,-0.567 0.261,-0.578C0.281,-0.589 0.303,-0.594 0.325,-0.594C0.347,-0.594 0.373,-0.589 0.402,-0.578L0.438,-0.626ZM0.501,-0.576C0.492,-0.587 0.485,-0.593 0.482,-0.596C0.48,-0.598 0.472,-0.604 0.458,-0.614L0.244,-0.323L0.507,-0.323L0.501,-0.576ZM0.192,-0.252L0.148,-0.191L0.396,-0.084L0.511,-0.17L0.509,-0.252L0.192,-0.252Z" style="fill:white;fill-rule:nonzero;"/>
        </g>
        <g transform="matrix(300,0,0,300,1415.32,5011)">
            <path d="M0.708,-0.676L0.716,-0.66L0.538,-0.528C0.573,-0.528 0.609,-0.519 0.645,-0.501C0.681,-0.484 0.709,-0.459 0.727,-0.428C0.746,-0.397 0.755,-0.364 0.755,-0.33C0.755,-0.276 0.737,-0.223 0.699,-0.173C0.661,-0.123 0.608,-0.081 0.538,-0.049C0.469,-0.016 0.403,0 0.342,0C0.283,0 0.229,-0.013 0.18,-0.04C0.132,-0.066 0.096,-0.099 0.073,-0.139C0.049,-0.178 0.038,-0.222 0.038,-0.27C0.038,-0.324 0.051,-0.374 0.077,-0.42C0.103,-0.466 0.151,-0.517 0.222,-0.573L0.419,-0.73C0.474,-0.703 0.517,-0.686 0.548,-0.677C0.579,-0.668 0.609,-0.664 0.639,-0.664C0.662,-0.664 0.684,-0.668 0.708,-0.676ZM0.344,-0.646L0.336,-0.637L0.336,-0.406L0.564,-0.578C0.493,-0.596 0.42,-0.618 0.344,-0.646ZM0.234,-0.556C0.197,-0.517 0.171,-0.481 0.156,-0.447C0.14,-0.413 0.133,-0.374 0.133,-0.329C0.133,-0.293 0.138,-0.261 0.148,-0.233C0.158,-0.206 0.172,-0.179 0.192,-0.153C0.21,-0.17 0.222,-0.185 0.227,-0.196C0.232,-0.208 0.234,-0.23 0.234,-0.262L0.234,-0.556ZM0.422,-0.309C0.445,-0.293 0.465,-0.282 0.484,-0.275C0.503,-0.269 0.524,-0.266 0.547,-0.266C0.568,-0.266 0.587,-0.268 0.604,-0.273C0.622,-0.279 0.644,-0.289 0.671,-0.304C0.663,-0.338 0.648,-0.366 0.626,-0.387C0.591,-0.422 0.547,-0.439 0.494,-0.439C0.471,-0.439 0.447,-0.434 0.422,-0.426L0.422,-0.309ZM0.4,-0.416C0.374,-0.404 0.353,-0.391 0.336,-0.378L0.336,-0.296C0.336,-0.271 0.334,-0.254 0.331,-0.246C0.327,-0.237 0.319,-0.228 0.308,-0.219C0.3,-0.213 0.295,-0.209 0.29,-0.205L0.206,-0.135C0.235,-0.104 0.265,-0.081 0.295,-0.066C0.326,-0.051 0.361,-0.043 0.4,-0.041L0.4,-0.416ZM0.422,-0.173C0.463,-0.195 0.501,-0.206 0.538,-0.206C0.573,-0.206 0.61,-0.196 0.649,-0.176C0.666,-0.21 0.674,-0.243 0.674,-0.274L0.674,-0.281C0.645,-0.266 0.621,-0.256 0.604,-0.251C0.586,-0.246 0.566,-0.244 0.545,-0.244C0.525,-0.244 0.504,-0.247 0.484,-0.253C0.463,-0.259 0.443,-0.269 0.422,-0.281L0.422,-0.173ZM0.422,-0.041C0.452,-0.043 0.477,-0.047 0.496,-0.054C0.525,-0.064 0.553,-0.078 0.579,-0.098C0.599,-0.112 0.618,-0.132 0.639,-0.157C0.599,-0.174 0.564,-0.182 0.534,-0.182C0.497,-0.182 0.46,-0.171 0.422,-0.149L0.422,-0.041Z" style="fill:white;fill-rule:nonzero;"/>
        </g>
        <g transform="matrix(300,0,0,300,1712.92,5011)">
            <path d="M0.018,-0.725L0.041,-0.725C0.046,-0.709 0.055,-0.697 0.067,-0.69C0.083,-0.681 0.108,-0.677 0.143,-0.677C0.166,-0.677 0.237,-0.679 0.357,-0.684C0.43,-0.687 0.475,-0.688 0.493,-0.688C0.547,-0.688 0.593,-0.679 0.631,-0.66C0.669,-0.642 0.699,-0.613 0.723,-0.575C0.747,-0.536 0.763,-0.483 0.771,-0.416C0.776,-0.369 0.781,-0.265 0.785,-0.104C0.721,-0.064 0.672,-0.029 0.638,0C0.535,-0.029 0.443,-0.043 0.364,-0.043C0.311,-0.043 0.261,-0.037 0.215,-0.024C0.169,-0.011 0.121,0.01 0.069,0.038L0.055,0.019C0.122,-0.015 0.18,-0.051 0.231,-0.087C0.281,-0.123 0.315,-0.155 0.331,-0.184C0.347,-0.212 0.355,-0.248 0.355,-0.292C0.355,-0.308 0.355,-0.332 0.354,-0.363C0.353,-0.385 0.353,-0.408 0.353,-0.431C0.353,-0.472 0.355,-0.503 0.36,-0.522C0.365,-0.542 0.375,-0.564 0.39,-0.59L0.377,-0.59C0.337,-0.567 0.311,-0.546 0.298,-0.528C0.285,-0.509 0.278,-0.485 0.278,-0.456L0.282,-0.283C0.282,-0.237 0.268,-0.195 0.241,-0.159C0.213,-0.122 0.147,-0.069 0.041,0L0.027,-0.019C0.08,-0.056 0.115,-0.087 0.132,-0.111C0.149,-0.134 0.158,-0.159 0.158,-0.185C0.158,-0.208 0.151,-0.227 0.136,-0.242C0.122,-0.258 0.106,-0.266 0.089,-0.266C0.08,-0.266 0.072,-0.264 0.064,-0.259C0.057,-0.254 0.047,-0.244 0.034,-0.229L0.018,-0.244C0.029,-0.272 0.044,-0.293 0.062,-0.306C0.081,-0.319 0.103,-0.325 0.129,-0.325C0.136,-0.325 0.144,-0.324 0.153,-0.323C0.162,-0.321 0.172,-0.319 0.183,-0.315C0.182,-0.334 0.182,-0.351 0.182,-0.365C0.182,-0.416 0.192,-0.457 0.213,-0.49C0.233,-0.522 0.273,-0.555 0.331,-0.59C0.278,-0.584 0.231,-0.582 0.192,-0.582C0.151,-0.582 0.115,-0.587 0.086,-0.599C0.063,-0.608 0.047,-0.623 0.037,-0.643C0.026,-0.663 0.02,-0.69 0.018,-0.725ZM0.414,-0.59C0.4,-0.566 0.39,-0.545 0.385,-0.528C0.379,-0.504 0.375,-0.481 0.375,-0.461L0.379,-0.268C0.379,-0.244 0.373,-0.218 0.361,-0.193C0.352,-0.174 0.334,-0.15 0.308,-0.122C0.355,-0.13 0.392,-0.134 0.417,-0.133L0.444,-0.133L0.444,-0.59L0.414,-0.59ZM0.469,-0.402C0.489,-0.388 0.507,-0.379 0.521,-0.374C0.536,-0.368 0.552,-0.366 0.57,-0.366C0.587,-0.366 0.603,-0.368 0.618,-0.374C0.633,-0.379 0.651,-0.389 0.671,-0.402C0.665,-0.476 0.646,-0.525 0.614,-0.551C0.582,-0.577 0.534,-0.59 0.469,-0.59L0.469,-0.402ZM0.469,-0.241C0.491,-0.254 0.51,-0.263 0.526,-0.267C0.542,-0.272 0.559,-0.274 0.577,-0.274C0.595,-0.274 0.612,-0.272 0.627,-0.268C0.642,-0.263 0.661,-0.255 0.682,-0.243L0.674,-0.375C0.653,-0.363 0.635,-0.354 0.62,-0.349C0.605,-0.345 0.588,-0.342 0.57,-0.342C0.553,-0.342 0.536,-0.345 0.519,-0.351C0.502,-0.356 0.486,-0.364 0.469,-0.375L0.469,-0.241ZM0.469,-0.131C0.509,-0.128 0.541,-0.124 0.566,-0.119C0.591,-0.115 0.63,-0.105 0.683,-0.09C0.684,-0.139 0.684,-0.164 0.684,-0.166C0.684,-0.17 0.684,-0.186 0.683,-0.213C0.662,-0.227 0.644,-0.237 0.628,-0.243C0.612,-0.248 0.595,-0.251 0.577,-0.251C0.558,-0.251 0.54,-0.248 0.524,-0.243C0.508,-0.237 0.49,-0.227 0.469,-0.213L0.469,-0.131Z" style="fill:white;fill-rule:nonzero;"/>
        </g>
        <g transform="matrix(300,0,0,300,2026.19,5011)">
            <path d="M0.282,-0.668L0.292,-0.653C0.238,-0.619 0.198,-0.579 0.173,-0.534C0.147,-0.49 0.134,-0.442 0.134,-0.391C0.134,-0.325 0.157,-0.262 0.202,-0.202C0.221,-0.218 0.232,-0.231 0.236,-0.241C0.24,-0.252 0.242,-0.279 0.242,-0.323L0.242,-0.548L0.455,-0.73C0.495,-0.711 0.528,-0.697 0.556,-0.69C0.583,-0.682 0.61,-0.679 0.636,-0.679C0.65,-0.679 0.667,-0.68 0.687,-0.683L0.699,-0.668L0.53,-0.498L0.662,-0.498L0.609,-0.405L0.423,-0.405L0.423,-0.088L0.455,-0.086C0.501,-0.086 0.547,-0.098 0.592,-0.121C0.627,-0.138 0.662,-0.165 0.698,-0.202L0.71,-0.183C0.673,-0.125 0.631,-0.081 0.585,-0.052C0.53,-0.017 0.466,0 0.395,0C0.283,0 0.194,-0.039 0.129,-0.116C0.077,-0.178 0.051,-0.25 0.051,-0.333C0.051,-0.384 0.062,-0.432 0.083,-0.476C0.104,-0.521 0.134,-0.561 0.172,-0.596C0.2,-0.62 0.236,-0.645 0.282,-0.668ZM0.401,-0.645L0.341,-0.594L0.341,-0.368C0.341,-0.343 0.34,-0.325 0.337,-0.316C0.334,-0.306 0.328,-0.295 0.318,-0.284C0.296,-0.259 0.262,-0.226 0.215,-0.187C0.243,-0.157 0.271,-0.135 0.299,-0.12C0.326,-0.105 0.361,-0.095 0.401,-0.09L0.401,-0.645ZM0.588,-0.59C0.554,-0.594 0.526,-0.6 0.504,-0.607C0.482,-0.614 0.455,-0.625 0.423,-0.641L0.423,-0.423L0.588,-0.59Z" style="fill:white;fill-rule:nonzero;"/>
        </g>
        <g transform="matrix(300,0,0,300,2304.89,5011)">
            <path d="M0.579,-0.74L0.591,-0.722C0.553,-0.716 0.525,-0.706 0.507,-0.689C0.488,-0.673 0.479,-0.649 0.479,-0.618C0.479,-0.601 0.481,-0.576 0.484,-0.543C0.491,-0.487 0.494,-0.441 0.494,-0.406C0.494,-0.358 0.483,-0.316 0.462,-0.28C0.441,-0.244 0.391,-0.193 0.313,-0.126C0.364,-0.142 0.41,-0.151 0.451,-0.151C0.488,-0.151 0.522,-0.146 0.552,-0.135C0.582,-0.125 0.615,-0.107 0.651,-0.082L0.7,-0.126L0.714,-0.109L0.588,0C0.553,-0.026 0.519,-0.045 0.484,-0.056C0.45,-0.068 0.41,-0.074 0.364,-0.074C0.322,-0.074 0.282,-0.069 0.244,-0.059C0.206,-0.049 0.158,-0.029 0.099,0L0.089,-0.014C0.148,-0.057 0.187,-0.092 0.206,-0.119C0.225,-0.145 0.235,-0.169 0.235,-0.192C0.235,-0.215 0.228,-0.233 0.214,-0.248C0.2,-0.263 0.184,-0.27 0.166,-0.27C0.157,-0.27 0.146,-0.267 0.135,-0.262L0.12,-0.276C0.132,-0.287 0.143,-0.294 0.153,-0.298C0.163,-0.303 0.175,-0.305 0.188,-0.305C0.196,-0.305 0.204,-0.304 0.212,-0.302C0.22,-0.299 0.228,-0.296 0.236,-0.292C0.237,-0.299 0.237,-0.305 0.237,-0.31C0.237,-0.33 0.23,-0.348 0.214,-0.364C0.198,-0.379 0.179,-0.387 0.156,-0.387C0.14,-0.387 0.123,-0.38 0.106,-0.367L0.089,-0.379C0.101,-0.395 0.113,-0.406 0.126,-0.413C0.146,-0.423 0.168,-0.429 0.19,-0.429C0.195,-0.429 0.201,-0.428 0.207,-0.427C0.212,-0.426 0.219,-0.425 0.225,-0.423C0.223,-0.443 0.222,-0.46 0.222,-0.473C0.222,-0.513 0.228,-0.546 0.24,-0.574C0.252,-0.602 0.272,-0.631 0.301,-0.661C0.27,-0.65 0.244,-0.644 0.222,-0.644C0.2,-0.644 0.173,-0.649 0.14,-0.659C0.126,-0.664 0.114,-0.666 0.105,-0.666C0.088,-0.666 0.074,-0.661 0.062,-0.65C0.051,-0.639 0.045,-0.626 0.045,-0.612C0.045,-0.606 0.046,-0.6 0.049,-0.592L0.028,-0.584C0.024,-0.6 0.022,-0.612 0.022,-0.623C0.022,-0.654 0.035,-0.682 0.059,-0.705C0.083,-0.728 0.113,-0.74 0.147,-0.74C0.162,-0.74 0.186,-0.734 0.219,-0.722C0.252,-0.71 0.277,-0.705 0.295,-0.705C0.328,-0.705 0.36,-0.716 0.39,-0.74L0.404,-0.722C0.372,-0.698 0.349,-0.673 0.336,-0.65C0.323,-0.626 0.316,-0.597 0.316,-0.563C0.316,-0.538 0.318,-0.509 0.321,-0.476C0.328,-0.415 0.331,-0.373 0.331,-0.35C0.331,-0.303 0.323,-0.261 0.308,-0.222C0.293,-0.184 0.265,-0.14 0.226,-0.09C0.286,-0.133 0.33,-0.178 0.356,-0.223C0.383,-0.269 0.396,-0.32 0.396,-0.377C0.396,-0.409 0.394,-0.445 0.389,-0.483C0.385,-0.522 0.382,-0.554 0.382,-0.581C0.382,-0.604 0.388,-0.627 0.399,-0.65C0.41,-0.673 0.424,-0.691 0.443,-0.704C0.461,-0.717 0.481,-0.726 0.503,-0.732C0.52,-0.736 0.545,-0.739 0.579,-0.74Z" style="fill:white;fill-rule:nonzero;"/>
        </g>
        <g transform="matrix(300,0,0,300,2583.6,5011)">
            <path d="M0.575,-0.74L0.583,-0.723C0.549,-0.713 0.526,-0.699 0.513,-0.683C0.5,-0.666 0.493,-0.643 0.493,-0.615C0.493,-0.58 0.501,-0.518 0.516,-0.429C0.528,-0.357 0.536,-0.311 0.538,-0.292C0.54,-0.273 0.542,-0.253 0.542,-0.233C0.542,-0.181 0.532,-0.138 0.513,-0.103C0.494,-0.069 0.469,-0.043 0.439,-0.027C0.409,-0.011 0.382,-0.003 0.357,-0.003C0.332,-0.003 0.289,-0.013 0.229,-0.032C0.182,-0.046 0.148,-0.054 0.128,-0.054C0.107,-0.054 0.09,-0.049 0.076,-0.038C0.062,-0.028 0.052,-0.013 0.045,0.007L0.026,0C0.034,-0.031 0.044,-0.055 0.057,-0.071C0.074,-0.093 0.091,-0.109 0.11,-0.118C0.129,-0.126 0.156,-0.132 0.192,-0.134C0.228,-0.136 0.252,-0.143 0.265,-0.157C0.278,-0.17 0.285,-0.19 0.285,-0.219C0.285,-0.276 0.273,-0.319 0.251,-0.349C0.235,-0.37 0.213,-0.381 0.187,-0.381C0.176,-0.381 0.164,-0.378 0.153,-0.374C0.141,-0.369 0.126,-0.36 0.106,-0.345L0.092,-0.357C0.109,-0.386 0.129,-0.408 0.152,-0.423C0.175,-0.438 0.202,-0.445 0.233,-0.445C0.238,-0.445 0.243,-0.445 0.25,-0.445C0.251,-0.498 0.259,-0.541 0.273,-0.575C0.287,-0.609 0.314,-0.648 0.354,-0.692C0.315,-0.674 0.29,-0.663 0.279,-0.659C0.269,-0.656 0.257,-0.654 0.245,-0.654C0.235,-0.654 0.22,-0.656 0.201,-0.66C0.181,-0.663 0.167,-0.665 0.157,-0.665C0.134,-0.665 0.117,-0.66 0.105,-0.65C0.093,-0.64 0.085,-0.624 0.082,-0.602L0.063,-0.606C0.069,-0.642 0.08,-0.67 0.098,-0.691C0.124,-0.72 0.158,-0.734 0.2,-0.734C0.213,-0.734 0.227,-0.732 0.245,-0.728C0.277,-0.721 0.304,-0.718 0.326,-0.718C0.344,-0.718 0.359,-0.719 0.372,-0.722C0.385,-0.725 0.401,-0.731 0.419,-0.74L0.431,-0.725C0.397,-0.697 0.373,-0.669 0.36,-0.641C0.347,-0.613 0.34,-0.573 0.34,-0.521C0.34,-0.494 0.341,-0.471 0.343,-0.45C0.344,-0.441 0.348,-0.412 0.356,-0.362C0.365,-0.298 0.37,-0.257 0.37,-0.237C0.37,-0.2 0.359,-0.171 0.336,-0.151C0.32,-0.136 0.293,-0.124 0.255,-0.116C0.294,-0.083 0.32,-0.063 0.335,-0.055C0.35,-0.047 0.366,-0.042 0.381,-0.042C0.403,-0.042 0.421,-0.05 0.436,-0.066C0.451,-0.082 0.459,-0.103 0.459,-0.128C0.459,-0.159 0.452,-0.217 0.437,-0.302C0.419,-0.403 0.411,-0.479 0.411,-0.529C0.411,-0.576 0.417,-0.613 0.43,-0.641C0.444,-0.669 0.463,-0.692 0.489,-0.709C0.509,-0.723 0.537,-0.733 0.575,-0.74Z" style="fill:white;fill-rule:nonzero;"/>
        </g>
        <g transform="matrix(300,0,0,300,2828.17,5011)">
            <path d="M0.643,-0.74C0.7,-0.726 0.744,-0.708 0.776,-0.688C0.819,-0.66 0.852,-0.626 0.874,-0.586C0.896,-0.546 0.907,-0.504 0.907,-0.459C0.907,-0.427 0.902,-0.395 0.891,-0.363C0.88,-0.332 0.862,-0.297 0.837,-0.259C0.829,-0.245 0.786,-0.187 0.71,-0.086C0.749,-0.103 0.788,-0.111 0.827,-0.111C0.844,-0.111 0.859,-0.11 0.87,-0.108C0.882,-0.105 0.891,-0.104 0.898,-0.104C0.903,-0.104 0.908,-0.107 0.913,-0.112C0.918,-0.117 0.928,-0.135 0.944,-0.166L0.968,-0.157L0.884,0C0.84,-0.015 0.803,-0.022 0.774,-0.022C0.741,-0.022 0.714,-0.016 0.693,-0.003C0.672,0.009 0.651,0.031 0.632,0.063L0.612,0.053C0.623,0.02 0.643,-0.022 0.671,-0.071C0.719,-0.152 0.754,-0.218 0.777,-0.27C0.748,-0.29 0.721,-0.303 0.696,-0.312C0.672,-0.32 0.646,-0.324 0.619,-0.324C0.596,-0.324 0.574,-0.321 0.554,-0.316C0.534,-0.31 0.511,-0.3 0.484,-0.285L0.484,-0.199C0.484,-0.146 0.481,-0.109 0.476,-0.086C0.47,-0.064 0.458,-0.041 0.44,-0.018C0.421,0.005 0.397,0.025 0.367,0.04C0.338,0.056 0.308,0.063 0.276,0.063C0.263,0.063 0.251,0.062 0.238,0.06C0.231,0.058 0.211,0.053 0.177,0.043C0.143,0.033 0.125,0.027 0.12,0.026C0.111,0.025 0.101,0.024 0.091,0.024C0.076,0.024 0.062,0.026 0.05,0.03C0.038,0.035 0.024,0.042 0.008,0.053L-0.006,0.041C0.027,-0.018 0.072,-0.047 0.129,-0.047C0.153,-0.047 0.182,-0.043 0.219,-0.035C0.242,-0.03 0.257,-0.028 0.265,-0.028C0.283,-0.028 0.298,-0.035 0.311,-0.049C0.323,-0.063 0.33,-0.081 0.33,-0.104C0.33,-0.132 0.32,-0.156 0.3,-0.176C0.28,-0.195 0.256,-0.205 0.228,-0.205C0.209,-0.205 0.189,-0.197 0.167,-0.181L0.153,-0.194C0.168,-0.212 0.182,-0.225 0.197,-0.233C0.211,-0.241 0.227,-0.245 0.245,-0.245C0.256,-0.245 0.266,-0.243 0.278,-0.24C0.289,-0.236 0.3,-0.231 0.313,-0.224C0.307,-0.252 0.297,-0.274 0.283,-0.29C0.259,-0.316 0.228,-0.33 0.192,-0.33C0.176,-0.33 0.163,-0.328 0.153,-0.325C0.145,-0.322 0.135,-0.316 0.124,-0.308L0.112,-0.325C0.129,-0.343 0.146,-0.355 0.16,-0.362C0.175,-0.369 0.191,-0.373 0.208,-0.373C0.223,-0.373 0.237,-0.37 0.25,-0.366C0.263,-0.362 0.28,-0.352 0.301,-0.338C0.301,-0.364 0.297,-0.385 0.288,-0.401C0.28,-0.416 0.265,-0.43 0.243,-0.443C0.221,-0.456 0.2,-0.462 0.18,-0.462C0.161,-0.462 0.143,-0.455 0.124,-0.442L0.112,-0.459C0.126,-0.475 0.14,-0.485 0.153,-0.491C0.169,-0.499 0.186,-0.503 0.205,-0.503C0.221,-0.503 0.235,-0.501 0.249,-0.496C0.263,-0.492 0.28,-0.482 0.301,-0.468L0.301,-0.577L0.643,-0.74ZM0.484,-0.477C0.515,-0.459 0.542,-0.447 0.564,-0.44C0.586,-0.433 0.61,-0.429 0.634,-0.429C0.662,-0.429 0.688,-0.434 0.713,-0.442C0.738,-0.451 0.767,-0.466 0.8,-0.489C0.782,-0.535 0.751,-0.573 0.708,-0.601C0.664,-0.629 0.615,-0.644 0.561,-0.644C0.537,-0.644 0.512,-0.639 0.484,-0.631L0.484,-0.477ZM0.461,-0.624L0.402,-0.594L0.402,-0.174C0.402,-0.125 0.397,-0.09 0.387,-0.07C0.377,-0.049 0.359,-0.029 0.331,-0.009C0.364,-0.012 0.388,-0.019 0.403,-0.03C0.425,-0.045 0.441,-0.064 0.449,-0.087C0.457,-0.11 0.461,-0.148 0.461,-0.203L0.461,-0.624ZM0.484,-0.311C0.513,-0.325 0.537,-0.334 0.557,-0.339C0.577,-0.345 0.598,-0.347 0.622,-0.347C0.651,-0.347 0.678,-0.343 0.703,-0.334C0.729,-0.326 0.756,-0.312 0.785,-0.292C0.794,-0.315 0.801,-0.337 0.806,-0.358C0.81,-0.379 0.813,-0.399 0.813,-0.418C0.813,-0.432 0.811,-0.448 0.807,-0.465C0.771,-0.442 0.741,-0.427 0.716,-0.418C0.69,-0.41 0.664,-0.406 0.637,-0.406C0.613,-0.406 0.59,-0.409 0.566,-0.416C0.543,-0.422 0.516,-0.434 0.484,-0.451L0.484,-0.311Z" style="fill:white;fill-rule:nonzero;"/>
        </g>
        <g transform="matrix(300,0,0,300,3191.1,5011)">
            <path d="M0.678,-0.74L0.688,-0.717C0.664,-0.706 0.647,-0.694 0.635,-0.683C0.624,-0.672 0.616,-0.66 0.612,-0.646C0.607,-0.632 0.605,-0.611 0.605,-0.584C0.605,-0.575 0.605,-0.563 0.605,-0.549L0.614,-0.184C0.614,-0.144 0.619,-0.118 0.626,-0.105C0.632,-0.097 0.639,-0.092 0.646,-0.092C0.656,-0.092 0.67,-0.102 0.69,-0.121L0.705,-0.102L0.614,-0.025L0.583,0C0.558,-0.012 0.539,-0.028 0.529,-0.048C0.518,-0.068 0.512,-0.099 0.51,-0.143L0.322,0C0.216,-0.069 0.145,-0.104 0.106,-0.104C0.097,-0.104 0.089,-0.101 0.083,-0.095C0.078,-0.091 0.075,-0.085 0.075,-0.077C0.075,-0.069 0.078,-0.059 0.084,-0.049C0.093,-0.036 0.097,-0.027 0.097,-0.022C0.097,-0.016 0.094,-0.011 0.09,-0.007C0.085,-0.002 0.08,0 0.073,0C0.065,0 0.059,-0.003 0.054,-0.01C0.047,-0.019 0.043,-0.03 0.043,-0.044C0.043,-0.06 0.047,-0.077 0.056,-0.096C0.065,-0.116 0.079,-0.137 0.096,-0.16C0.1,-0.165 0.103,-0.169 0.106,-0.173L0.176,-0.269C0.129,-0.304 0.095,-0.338 0.076,-0.371C0.057,-0.403 0.048,-0.44 0.048,-0.48C0.048,-0.527 0.06,-0.57 0.084,-0.61C0.108,-0.65 0.144,-0.682 0.192,-0.705C0.24,-0.728 0.289,-0.74 0.34,-0.74C0.418,-0.74 0.493,-0.713 0.565,-0.659C0.582,-0.677 0.599,-0.692 0.616,-0.704C0.632,-0.716 0.653,-0.728 0.678,-0.74ZM0.438,-0.626C0.397,-0.647 0.356,-0.657 0.315,-0.657C0.272,-0.657 0.231,-0.647 0.193,-0.628C0.155,-0.609 0.127,-0.585 0.108,-0.555C0.089,-0.524 0.08,-0.494 0.08,-0.462C0.08,-0.395 0.116,-0.336 0.188,-0.285L0.351,-0.508C0.327,-0.521 0.305,-0.528 0.285,-0.528C0.258,-0.528 0.236,-0.515 0.219,-0.49C0.216,-0.485 0.212,-0.482 0.209,-0.482C0.207,-0.482 0.205,-0.483 0.203,-0.485C0.202,-0.487 0.201,-0.489 0.201,-0.492C0.201,-0.502 0.206,-0.516 0.216,-0.534C0.226,-0.552 0.241,-0.567 0.261,-0.578C0.281,-0.589 0.303,-0.594 0.325,-0.594C0.347,-0.594 0.373,-0.589 0.402,-0.578L0.438,-0.626ZM0.501,-0.576C0.492,-0.587 0.485,-0.593 0.482,-0.596C0.48,-0.598 0.472,-0.604 0.458,-0.614L0.244,-0.323L0.507,-0.323L0.501,-0.576ZM0.192,-0.252L0.148,-0.191L0.396,-0.084L0.511,-0.17L0.509,-0.252L0.192,-0.252Z" style="fill:white;fill-rule:nonzero;"/>
        </g>
        <g transform="matrix(300,0,0,300,3469.8,5011)">
            <path d="M0.151,-0.351L0.127,-0.351C0.105,-0.411 0.091,-0.465 0.085,-0.511C0.079,-0.557 0.077,-0.588 0.078,-0.604L0.078,-0.676L0.197,-0.676L0.197,-0.604C0.197,-0.589 0.194,-0.559 0.189,-0.512C0.183,-0.466 0.171,-0.413 0.151,-0.351ZM0.385,-0.351L0.362,-0.351C0.339,-0.411 0.325,-0.465 0.319,-0.511C0.313,-0.557 0.311,-0.588 0.313,-0.604L0.313,-0.676L0.432,-0.676L0.432,-0.604C0.432,-0.589 0.429,-0.559 0.423,-0.512C0.418,-0.466 0.405,-0.413 0.385,-0.351Z" style="fill:white;fill-rule:nonzero;"/>
        </g>
    </g>
</svg>
