<?xml version="1.0" encoding="UTF-8" standalone="no"?>
<!DOCTYPE svg PUBLIC "-//W3C//DTD SVG 1.1//EN" "http://www.w3.org/Graphics/SVG/1.1/DTD/svg11.dtd">
<svg width="100%" height="100%" viewBox="0 0 2142 260" version="1.1" xmlns="http://www.w3.org/2000/svg" xmlns:xlink="http://www.w3.org/1999/xlink" xml:space="preserve" xmlns:serif="http://www.serif.com/" style="fill-rule:evenodd;clip-rule:evenodd;stroke-linejoin:round;stroke-miterlimit:2;">
    <g transform="matrix(1,0,0,1,-1660.7,-4196.1)">
        <g transform="matrix(1,0,0,1,110.445,342.878)">
            <g transform="matrix(300,0,0,300,1546.88,4075.15)">
                <path d="M0.94,-0.697L0.956,-0.682C0.934,-0.658 0.92,-0.638 0.915,-0.623C0.909,-0.608 0.906,-0.585 0.906,-0.555L0.906,-0.177C0.906,-0.139 0.909,-0.114 0.916,-0.104C0.922,-0.094 0.931,-0.089 0.942,-0.089C0.95,-0.089 0.963,-0.097 0.98,-0.112L0.994,-0.093L0.876,0C0.847,-0.014 0.828,-0.031 0.818,-0.05C0.808,-0.068 0.803,-0.101 0.803,-0.148L0.803,-0.615L0.721,-0.678L0.689,-0.657L0.689,-0.415L0.748,-0.415L0.689,-0.341L0.689,-0.136L0.727,-0.167L0.742,-0.151L0.561,0C0.534,-0.033 0.512,-0.056 0.495,-0.071C0.483,-0.082 0.468,-0.092 0.451,-0.101L0.451,-0.118C0.466,-0.123 0.477,-0.132 0.481,-0.143C0.485,-0.152 0.487,-0.171 0.487,-0.203L0.487,-0.341L0.338,-0.341L0.338,-0.131C0.338,-0.073 0.324,-0.028 0.294,0.003C0.265,0.034 0.226,0.05 0.179,0.05C0.169,0.05 0.15,0.048 0.123,0.044C0.105,0.041 0.092,0.04 0.084,0.04C0.067,0.04 0.055,0.044 0.048,0.051C0.04,0.059 0.036,0.071 0.036,0.089L0.017,0.089C0.013,0.075 0.011,0.064 0.011,0.054C0.011,0.037 0.016,0.02 0.025,0.005C0.034,-0.011 0.046,-0.022 0.062,-0.03C0.073,-0.036 0.095,-0.04 0.126,-0.043C0.157,-0.046 0.18,-0.056 0.195,-0.073C0.21,-0.089 0.218,-0.112 0.218,-0.142C0.218,-0.189 0.207,-0.227 0.185,-0.257C0.163,-0.287 0.137,-0.302 0.106,-0.302C0.082,-0.302 0.062,-0.291 0.047,-0.268L0.029,-0.276C0.038,-0.3 0.048,-0.318 0.059,-0.331C0.071,-0.344 0.087,-0.354 0.106,-0.362C0.121,-0.367 0.142,-0.37 0.169,-0.371C0.169,-0.38 0.168,-0.388 0.168,-0.393C0.168,-0.447 0.179,-0.493 0.201,-0.531C0.223,-0.568 0.257,-0.603 0.304,-0.634C0.351,-0.665 0.418,-0.701 0.505,-0.74C0.536,-0.723 0.557,-0.707 0.568,-0.69C0.579,-0.673 0.585,-0.649 0.586,-0.618L0.778,-0.74L0.895,-0.652L0.94,-0.697ZM0.487,-0.415L0.487,-0.56C0.487,-0.596 0.482,-0.621 0.473,-0.637C0.464,-0.653 0.448,-0.666 0.424,-0.676C0.402,-0.664 0.386,-0.654 0.376,-0.645C0.363,-0.631 0.354,-0.615 0.348,-0.597C0.341,-0.578 0.338,-0.551 0.338,-0.517L0.338,-0.362L0.379,-0.415L0.487,-0.415ZM0.667,-0.643L0.586,-0.59L0.586,-0.415L0.667,-0.415L0.667,-0.643ZM0.335,-0.625C0.307,-0.602 0.289,-0.581 0.28,-0.561C0.272,-0.541 0.268,-0.506 0.268,-0.457L0.268,-0.18C0.268,-0.135 0.262,-0.103 0.25,-0.085C0.239,-0.067 0.217,-0.051 0.183,-0.038C0.198,-0.037 0.21,-0.036 0.22,-0.036C0.244,-0.036 0.264,-0.04 0.279,-0.049C0.294,-0.057 0.304,-0.067 0.309,-0.079C0.314,-0.092 0.316,-0.113 0.316,-0.144L0.316,-0.512C0.316,-0.54 0.318,-0.563 0.321,-0.582C0.323,-0.593 0.328,-0.607 0.335,-0.625ZM0.667,-0.341L0.586,-0.341L0.586,-0.215C0.586,-0.171 0.589,-0.143 0.595,-0.13C0.605,-0.109 0.618,-0.099 0.634,-0.099C0.642,-0.099 0.653,-0.105 0.667,-0.118L0.667,-0.341Z" style="fill:white;fill-rule:nonzero;"/>
            </g>
            <g transform="matrix(300,0,0,300,1909.96,4075.15)">
                <path d="M0.793,-0.714L0.808,-0.699C0.78,-0.664 0.763,-0.639 0.756,-0.623C0.749,-0.607 0.746,-0.584 0.746,-0.553L0.746,-0.205C0.746,-0.157 0.75,-0.127 0.758,-0.114C0.766,-0.102 0.776,-0.095 0.787,-0.095C0.795,-0.095 0.804,-0.1 0.814,-0.11L0.821,-0.081L0.718,0C0.69,-0.018 0.671,-0.035 0.662,-0.051C0.653,-0.068 0.647,-0.096 0.644,-0.136C0.592,-0.086 0.543,-0.051 0.498,-0.031C0.452,-0.01 0.402,0 0.348,0C0.248,0 0.172,-0.036 0.119,-0.107C0.079,-0.16 0.06,-0.222 0.06,-0.292C0.06,-0.345 0.071,-0.393 0.094,-0.438C0.117,-0.483 0.151,-0.527 0.197,-0.569C0.228,-0.597 0.27,-0.627 0.322,-0.659C0.281,-0.649 0.25,-0.644 0.23,-0.644C0.215,-0.644 0.199,-0.644 0.181,-0.646C0.162,-0.648 0.147,-0.648 0.135,-0.648C0.108,-0.648 0.086,-0.64 0.071,-0.624C0.055,-0.607 0.047,-0.584 0.047,-0.555C0.047,-0.544 0.048,-0.53 0.05,-0.514L0.029,-0.514C0.025,-0.537 0.023,-0.556 0.023,-0.571C0.023,-0.623 0.037,-0.664 0.064,-0.694C0.091,-0.725 0.123,-0.74 0.16,-0.74C0.17,-0.74 0.18,-0.739 0.189,-0.737C0.195,-0.736 0.214,-0.729 0.247,-0.717C0.28,-0.705 0.31,-0.699 0.336,-0.699C0.36,-0.699 0.382,-0.704 0.403,-0.712C0.414,-0.717 0.426,-0.726 0.44,-0.74L0.462,-0.74L0.462,-0.466C0.496,-0.448 0.527,-0.439 0.557,-0.439C0.573,-0.439 0.587,-0.441 0.599,-0.445C0.611,-0.448 0.626,-0.456 0.644,-0.466L0.644,-0.608L0.589,-0.648L0.534,-0.587L0.517,-0.602L0.635,-0.733L0.739,-0.659L0.793,-0.714ZM0.44,-0.691C0.419,-0.67 0.406,-0.65 0.401,-0.633C0.395,-0.615 0.392,-0.581 0.392,-0.531L0.392,-0.304C0.392,-0.279 0.39,-0.261 0.387,-0.249C0.382,-0.233 0.373,-0.218 0.36,-0.203C0.341,-0.181 0.307,-0.153 0.258,-0.117C0.282,-0.101 0.304,-0.09 0.324,-0.084C0.345,-0.077 0.369,-0.074 0.397,-0.074C0.411,-0.074 0.425,-0.075 0.44,-0.077L0.44,-0.691ZM0.239,-0.133C0.261,-0.156 0.275,-0.178 0.281,-0.198C0.288,-0.218 0.292,-0.254 0.292,-0.306L0.292,-0.451C0.292,-0.488 0.293,-0.513 0.295,-0.524C0.297,-0.536 0.302,-0.549 0.311,-0.563C0.325,-0.589 0.35,-0.622 0.386,-0.664C0.334,-0.634 0.293,-0.605 0.262,-0.578C0.232,-0.55 0.206,-0.515 0.187,-0.473C0.167,-0.431 0.157,-0.384 0.157,-0.333C0.157,-0.288 0.165,-0.246 0.182,-0.209C0.194,-0.184 0.213,-0.158 0.239,-0.133ZM0.644,-0.44C0.625,-0.43 0.609,-0.424 0.596,-0.42C0.584,-0.417 0.57,-0.416 0.555,-0.416C0.526,-0.416 0.496,-0.424 0.462,-0.44L0.462,-0.326C0.497,-0.341 0.528,-0.349 0.556,-0.349C0.583,-0.349 0.612,-0.341 0.644,-0.327L0.644,-0.44ZM0.644,-0.303C0.612,-0.319 0.582,-0.327 0.556,-0.327C0.54,-0.327 0.525,-0.325 0.512,-0.321C0.498,-0.317 0.482,-0.31 0.462,-0.299L0.462,-0.082C0.495,-0.089 0.524,-0.099 0.551,-0.111C0.578,-0.124 0.609,-0.143 0.644,-0.168L0.644,-0.303Z" style="fill:white;fill-rule:nonzero;"/>
            </g>
            <g transform="matrix(300,0,0,300,2223.08,4075.15)">
                <path d="M0.708,-0.676L0.716,-0.66L0.538,-0.528C0.573,-0.528 0.609,-0.519 0.645,-0.501C0.681,-0.484 0.709,-0.459 0.727,-0.428C0.746,-0.397 0.755,-0.364 0.755,-0.33C0.755,-0.276 0.737,-0.223 0.699,-0.173C0.661,-0.123 0.608,-0.081 0.538,-0.049C0.469,-0.016 0.403,0 0.342,0C0.283,0 0.229,-0.013 0.18,-0.04C0.132,-0.066 0.096,-0.099 0.073,-0.139C0.049,-0.178 0.038,-0.222 0.038,-0.27C0.038,-0.324 0.051,-0.374 0.077,-0.42C0.103,-0.466 0.151,-0.517 0.222,-0.573L0.419,-0.73C0.474,-0.703 0.517,-0.686 0.548,-0.677C0.579,-0.668 0.609,-0.664 0.639,-0.664C0.662,-0.664 0.684,-0.668 0.708,-0.676ZM0.344,-0.646L0.336,-0.637L0.336,-0.406L0.564,-0.578C0.493,-0.596 0.42,-0.618 0.344,-0.646ZM0.234,-0.556C0.197,-0.517 0.171,-0.481 0.156,-0.447C0.14,-0.413 0.133,-0.374 0.133,-0.329C0.133,-0.293 0.138,-0.261 0.148,-0.233C0.158,-0.206 0.172,-0.179 0.192,-0.153C0.21,-0.17 0.222,-0.185 0.227,-0.196C0.232,-0.208 0.234,-0.23 0.234,-0.262L0.234,-0.556ZM0.422,-0.309C0.445,-0.293 0.465,-0.282 0.484,-0.275C0.503,-0.269 0.524,-0.266 0.547,-0.266C0.568,-0.266 0.587,-0.268 0.604,-0.273C0.622,-0.279 0.644,-0.289 0.671,-0.304C0.663,-0.338 0.648,-0.366 0.626,-0.387C0.591,-0.422 0.547,-0.439 0.494,-0.439C0.471,-0.439 0.447,-0.434 0.422,-0.426L0.422,-0.309ZM0.4,-0.416C0.374,-0.404 0.353,-0.391 0.336,-0.378L0.336,-0.296C0.336,-0.271 0.334,-0.254 0.331,-0.246C0.327,-0.237 0.319,-0.228 0.308,-0.219C0.3,-0.213 0.295,-0.209 0.29,-0.205L0.206,-0.135C0.235,-0.104 0.265,-0.081 0.295,-0.066C0.326,-0.051 0.361,-0.043 0.4,-0.041L0.4,-0.416ZM0.422,-0.173C0.463,-0.195 0.501,-0.206 0.538,-0.206C0.573,-0.206 0.61,-0.196 0.649,-0.176C0.666,-0.21 0.674,-0.243 0.674,-0.274L0.674,-0.281C0.645,-0.266 0.621,-0.256 0.604,-0.251C0.586,-0.246 0.566,-0.244 0.545,-0.244C0.525,-0.244 0.504,-0.247 0.484,-0.253C0.463,-0.259 0.443,-0.269 0.422,-0.281L0.422,-0.173ZM0.422,-0.041C0.452,-0.043 0.477,-0.047 0.496,-0.054C0.525,-0.064 0.553,-0.078 0.579,-0.098C0.599,-0.112 0.618,-0.132 0.639,-0.157C0.599,-0.174 0.564,-0.182 0.534,-0.182C0.497,-0.182 0.46,-0.171 0.422,-0.149L0.422,-0.041Z" style="fill:white;fill-rule:nonzero;"/>
            </g>
            <g transform="matrix(300,0,0,300,2520.68,4075.15)">
                <path d="M0.314,-0.73L0.534,-0.656L0.551,-0.685C0.557,-0.695 0.561,-0.702 0.563,-0.704C0.566,-0.707 0.569,-0.708 0.572,-0.708C0.575,-0.708 0.578,-0.707 0.58,-0.705C0.582,-0.702 0.583,-0.7 0.583,-0.697C0.583,-0.692 0.579,-0.683 0.571,-0.67L0.465,-0.489L0.549,-0.495C0.575,-0.496 0.604,-0.492 0.638,-0.484C0.672,-0.476 0.701,-0.463 0.725,-0.446C0.749,-0.429 0.768,-0.409 0.782,-0.385C0.796,-0.362 0.803,-0.337 0.803,-0.309C0.803,-0.257 0.781,-0.207 0.738,-0.157C0.695,-0.107 0.618,-0.055 0.508,0C0.469,-0.014 0.424,-0.029 0.373,-0.045C0.281,-0.003 0.206,0.018 0.147,0.018C0.105,0.018 0.073,0.008 0.05,-0.01C0.027,-0.028 0.016,-0.05 0.016,-0.074C0.016,-0.099 0.03,-0.123 0.057,-0.144C0.084,-0.166 0.125,-0.176 0.179,-0.176C0.2,-0.176 0.226,-0.174 0.257,-0.168L0.297,-0.238L0.226,-0.233C0.209,-0.233 0.186,-0.235 0.157,-0.24C0.129,-0.245 0.105,-0.253 0.087,-0.265C0.068,-0.276 0.055,-0.29 0.045,-0.307C0.036,-0.323 0.032,-0.341 0.032,-0.359C0.032,-0.388 0.042,-0.414 0.063,-0.436C0.076,-0.45 0.097,-0.463 0.127,-0.475L0.126,-0.48C0.126,-0.511 0.14,-0.545 0.167,-0.585C0.194,-0.624 0.243,-0.672 0.314,-0.73ZM0.49,-0.578C0.439,-0.604 0.399,-0.621 0.371,-0.629C0.342,-0.638 0.317,-0.642 0.295,-0.642C0.265,-0.642 0.24,-0.633 0.221,-0.616C0.201,-0.599 0.192,-0.579 0.192,-0.556C0.192,-0.533 0.2,-0.514 0.217,-0.5C0.233,-0.485 0.258,-0.478 0.291,-0.478C0.313,-0.478 0.362,-0.481 0.438,-0.487L0.49,-0.578ZM0.388,-0.398C0.345,-0.392 0.304,-0.389 0.265,-0.389C0.22,-0.389 0.189,-0.394 0.17,-0.405C0.152,-0.415 0.138,-0.431 0.129,-0.454C0.105,-0.439 0.094,-0.42 0.094,-0.398C0.094,-0.378 0.103,-0.361 0.121,-0.348C0.145,-0.331 0.186,-0.323 0.245,-0.323C0.272,-0.323 0.307,-0.325 0.349,-0.33L0.388,-0.398ZM0.375,-0.332C0.453,-0.34 0.507,-0.344 0.537,-0.344C0.578,-0.344 0.61,-0.334 0.632,-0.315C0.654,-0.297 0.665,-0.274 0.665,-0.248C0.665,-0.225 0.654,-0.203 0.633,-0.182C0.611,-0.16 0.565,-0.133 0.495,-0.101L0.595,-0.075C0.637,-0.101 0.67,-0.13 0.693,-0.161C0.716,-0.191 0.728,-0.225 0.728,-0.262C0.728,-0.286 0.721,-0.309 0.706,-0.333C0.692,-0.356 0.669,-0.375 0.639,-0.388C0.609,-0.402 0.575,-0.409 0.536,-0.409C0.504,-0.409 0.463,-0.406 0.414,-0.4L0.375,-0.332ZM0.279,-0.164C0.31,-0.157 0.335,-0.151 0.355,-0.145C0.374,-0.14 0.408,-0.128 0.458,-0.111C0.537,-0.147 0.576,-0.182 0.576,-0.215C0.576,-0.226 0.572,-0.235 0.562,-0.244C0.553,-0.252 0.541,-0.256 0.527,-0.256C0.51,-0.256 0.488,-0.255 0.463,-0.252C0.392,-0.244 0.345,-0.24 0.323,-0.24L0.279,-0.164ZM0.339,-0.057C0.258,-0.084 0.191,-0.097 0.14,-0.097C0.113,-0.097 0.092,-0.091 0.076,-0.08C0.065,-0.072 0.06,-0.062 0.06,-0.051C0.06,-0.039 0.065,-0.029 0.076,-0.022C0.093,-0.01 0.118,-0.004 0.15,-0.004C0.199,-0.004 0.262,-0.022 0.339,-0.057Z" style="fill:white;fill-rule:nonzero;"/>
            </g>
            <g transform="matrix(300,0,0,300,2833.95,4075.15)">
                <path d="M0.6,-0.74L0.609,-0.719C0.566,-0.704 0.534,-0.689 0.514,-0.674C0.493,-0.658 0.48,-0.642 0.474,-0.625C0.467,-0.608 0.464,-0.581 0.464,-0.543L0.464,-0.442L0.655,-0.595C0.695,-0.569 0.725,-0.545 0.746,-0.523C0.766,-0.501 0.78,-0.478 0.786,-0.456C0.793,-0.433 0.796,-0.396 0.796,-0.345L0.796,-0.273C0.796,-0.234 0.794,-0.206 0.789,-0.188C0.785,-0.169 0.775,-0.151 0.761,-0.132C0.74,-0.106 0.704,-0.072 0.653,-0.032C0.617,-0.004 0.594,0.016 0.586,0.027C0.577,0.038 0.573,0.048 0.573,0.056C0.573,0.06 0.575,0.064 0.578,0.067C0.581,0.07 0.586,0.072 0.592,0.072C0.595,0.072 0.6,0.071 0.607,0.07C0.613,0.068 0.618,0.067 0.622,0.067C0.63,0.067 0.636,0.069 0.641,0.074C0.645,0.078 0.647,0.084 0.647,0.091C0.647,0.1 0.643,0.108 0.636,0.114C0.626,0.122 0.615,0.126 0.601,0.126C0.586,0.126 0.573,0.12 0.562,0.108C0.551,0.096 0.546,0.082 0.546,0.065C0.546,0.053 0.55,0.039 0.558,0.024C0.566,0.008 0.586,-0.019 0.617,-0.058C0.649,-0.097 0.669,-0.127 0.678,-0.147C0.688,-0.167 0.694,-0.191 0.698,-0.22C0.657,-0.239 0.621,-0.248 0.588,-0.248C0.546,-0.248 0.504,-0.238 0.463,-0.219C0.422,-0.2 0.375,-0.166 0.321,-0.117C0.344,-0.118 0.361,-0.119 0.372,-0.119C0.397,-0.119 0.432,-0.117 0.475,-0.112C0.487,-0.111 0.498,-0.11 0.507,-0.11C0.523,-0.11 0.537,-0.114 0.55,-0.122C0.562,-0.13 0.575,-0.143 0.588,-0.162L0.609,-0.15L0.5,0.003C0.456,-0.016 0.417,-0.029 0.384,-0.037C0.351,-0.045 0.317,-0.049 0.283,-0.049C0.245,-0.049 0.211,-0.044 0.182,-0.035C0.152,-0.026 0.131,-0.014 0.119,0C0.11,0.012 0.105,0.021 0.105,0.03C0.105,0.036 0.109,0.045 0.117,0.057C0.123,0.065 0.125,0.072 0.125,0.08C0.125,0.088 0.123,0.094 0.118,0.1C0.113,0.105 0.108,0.107 0.102,0.107C0.094,0.107 0.086,0.103 0.079,0.094C0.071,0.085 0.067,0.075 0.067,0.062C0.067,0.047 0.072,0.032 0.08,0.017C0.088,0.002 0.107,-0.02 0.135,-0.049C0.164,-0.077 0.182,-0.1 0.191,-0.115C0.199,-0.131 0.204,-0.146 0.204,-0.161C0.204,-0.173 0.201,-0.181 0.194,-0.188C0.188,-0.194 0.18,-0.198 0.169,-0.198C0.15,-0.198 0.134,-0.184 0.122,-0.156L0.1,-0.156C0.103,-0.182 0.108,-0.201 0.116,-0.214C0.124,-0.228 0.136,-0.239 0.152,-0.249C0.164,-0.256 0.181,-0.26 0.202,-0.262C0.2,-0.301 0.192,-0.328 0.178,-0.344C0.164,-0.359 0.144,-0.366 0.118,-0.366C0.101,-0.366 0.089,-0.363 0.079,-0.357C0.07,-0.351 0.06,-0.34 0.051,-0.323L0.032,-0.328C0.036,-0.349 0.042,-0.365 0.048,-0.376C0.059,-0.392 0.073,-0.404 0.091,-0.413C0.109,-0.422 0.128,-0.427 0.148,-0.427C0.161,-0.427 0.175,-0.426 0.191,-0.424C0.19,-0.44 0.19,-0.452 0.19,-0.463C0.19,-0.502 0.201,-0.539 0.222,-0.575C0.238,-0.6 0.264,-0.627 0.301,-0.654C0.264,-0.643 0.24,-0.637 0.227,-0.637C0.216,-0.637 0.187,-0.641 0.139,-0.649C0.121,-0.653 0.108,-0.655 0.102,-0.655C0.091,-0.655 0.08,-0.65 0.071,-0.64C0.062,-0.631 0.055,-0.613 0.05,-0.588L0.025,-0.588C0.031,-0.618 0.038,-0.641 0.047,-0.657C0.061,-0.681 0.079,-0.699 0.101,-0.712C0.122,-0.725 0.144,-0.731 0.166,-0.731C0.179,-0.731 0.201,-0.726 0.234,-0.717C0.267,-0.707 0.292,-0.703 0.312,-0.703C0.351,-0.703 0.394,-0.715 0.443,-0.74L0.453,-0.719C0.387,-0.693 0.341,-0.661 0.316,-0.623C0.3,-0.598 0.292,-0.557 0.292,-0.5L0.292,-0.272C0.292,-0.232 0.288,-0.201 0.28,-0.178C0.271,-0.156 0.253,-0.127 0.224,-0.092C0.264,-0.114 0.294,-0.137 0.316,-0.16C0.337,-0.183 0.35,-0.204 0.356,-0.224C0.361,-0.244 0.364,-0.279 0.364,-0.328L0.364,-0.494C0.364,-0.546 0.37,-0.584 0.382,-0.609C0.394,-0.634 0.415,-0.657 0.444,-0.676C0.473,-0.695 0.525,-0.716 0.6,-0.74ZM0.464,-0.414L0.464,-0.392C0.507,-0.375 0.547,-0.366 0.583,-0.366C0.605,-0.366 0.624,-0.368 0.64,-0.373C0.657,-0.377 0.676,-0.384 0.698,-0.396C0.692,-0.42 0.681,-0.441 0.666,-0.459C0.651,-0.477 0.626,-0.495 0.593,-0.514L0.464,-0.414ZM0.464,-0.245C0.504,-0.262 0.542,-0.27 0.579,-0.27C0.598,-0.27 0.617,-0.268 0.634,-0.265C0.651,-0.261 0.672,-0.255 0.698,-0.245L0.698,-0.37C0.673,-0.36 0.653,-0.353 0.636,-0.349C0.62,-0.345 0.601,-0.343 0.581,-0.343C0.543,-0.343 0.505,-0.351 0.464,-0.367L0.464,-0.245Z" style="fill:white;fill-rule:nonzero;"/>
            </g>
            <g transform="matrix(300,0,0,300,3147.22,4075.15)">
                <path d="M0.434,-0.73C0.49,-0.724 0.535,-0.716 0.567,-0.706C0.615,-0.69 0.657,-0.669 0.693,-0.64C0.729,-0.612 0.758,-0.579 0.778,-0.541C0.798,-0.502 0.809,-0.46 0.809,-0.416C0.809,-0.374 0.798,-0.333 0.776,-0.292C0.755,-0.252 0.718,-0.207 0.666,-0.156C0.614,-0.106 0.561,-0.067 0.508,-0.04C0.455,-0.013 0.403,0 0.352,0C0.298,0 0.245,-0.014 0.194,-0.041C0.144,-0.068 0.104,-0.105 0.077,-0.152C0.049,-0.199 0.035,-0.252 0.035,-0.309C0.035,-0.342 0.039,-0.374 0.045,-0.404C0.052,-0.434 0.064,-0.47 0.081,-0.51C0.113,-0.526 0.151,-0.548 0.194,-0.576C0.218,-0.591 0.276,-0.628 0.37,-0.687C0.389,-0.699 0.41,-0.713 0.434,-0.73ZM0.396,-0.633C0.374,-0.634 0.353,-0.635 0.331,-0.636L0.331,-0.347C0.331,-0.316 0.329,-0.294 0.325,-0.282C0.32,-0.269 0.313,-0.256 0.301,-0.243L0.211,-0.156C0.242,-0.13 0.27,-0.112 0.298,-0.101C0.325,-0.09 0.358,-0.083 0.396,-0.081L0.396,-0.633ZM0.417,-0.502C0.441,-0.482 0.463,-0.468 0.484,-0.459C0.505,-0.45 0.528,-0.445 0.553,-0.445C0.576,-0.445 0.597,-0.45 0.616,-0.459C0.635,-0.468 0.656,-0.482 0.677,-0.502C0.659,-0.527 0.641,-0.544 0.625,-0.556C0.596,-0.577 0.565,-0.594 0.531,-0.606C0.497,-0.618 0.459,-0.626 0.417,-0.631L0.417,-0.502ZM0.231,-0.572C0.203,-0.551 0.183,-0.534 0.171,-0.52C0.155,-0.501 0.142,-0.479 0.131,-0.452C0.121,-0.425 0.115,-0.396 0.115,-0.364C0.115,-0.295 0.142,-0.231 0.195,-0.171C0.21,-0.185 0.22,-0.199 0.224,-0.213C0.229,-0.227 0.231,-0.254 0.231,-0.294L0.231,-0.572ZM0.417,-0.299C0.441,-0.322 0.462,-0.338 0.482,-0.347C0.502,-0.356 0.525,-0.36 0.552,-0.36C0.579,-0.36 0.604,-0.355 0.626,-0.346C0.649,-0.336 0.672,-0.319 0.698,-0.295C0.707,-0.327 0.711,-0.355 0.711,-0.379C0.711,-0.401 0.709,-0.42 0.706,-0.436C0.703,-0.448 0.698,-0.463 0.69,-0.481C0.662,-0.458 0.637,-0.443 0.616,-0.434C0.595,-0.426 0.572,-0.422 0.547,-0.422C0.524,-0.422 0.503,-0.426 0.483,-0.433C0.464,-0.441 0.442,-0.455 0.417,-0.475L0.417,-0.299ZM0.417,-0.081C0.458,-0.083 0.492,-0.09 0.518,-0.101C0.557,-0.117 0.59,-0.14 0.619,-0.169C0.648,-0.198 0.671,-0.234 0.69,-0.275C0.645,-0.317 0.599,-0.338 0.552,-0.338C0.525,-0.338 0.499,-0.331 0.474,-0.316C0.456,-0.306 0.437,-0.288 0.417,-0.264L0.417,-0.081Z" style="fill:white;fill-rule:nonzero;"/>
            </g>
            <g transform="matrix(300,0,0,300,3460.5,4075.15)">
                <path d="M0.754,-0.73L0.772,-0.717C0.766,-0.686 0.756,-0.661 0.744,-0.643C0.733,-0.624 0.715,-0.61 0.692,-0.599C0.669,-0.589 0.643,-0.583 0.613,-0.583C0.597,-0.583 0.577,-0.584 0.555,-0.586L0.555,-0.093C0.604,-0.108 0.643,-0.127 0.672,-0.151C0.702,-0.174 0.729,-0.208 0.754,-0.252L0.772,-0.243C0.758,-0.2 0.742,-0.165 0.723,-0.139C0.692,-0.096 0.653,-0.062 0.605,-0.037C0.558,-0.012 0.502,0 0.439,0C0.378,0 0.321,-0.012 0.268,-0.035C0.237,-0.049 0.208,-0.068 0.183,-0.093C0.157,-0.118 0.136,-0.147 0.119,-0.183C0.103,-0.218 0.095,-0.258 0.095,-0.302C0.095,-0.347 0.104,-0.39 0.122,-0.431C0.139,-0.472 0.166,-0.511 0.201,-0.549C0.223,-0.572 0.254,-0.598 0.294,-0.627L0.233,-0.63C0.21,-0.631 0.185,-0.626 0.158,-0.615C0.13,-0.605 0.108,-0.59 0.093,-0.572C0.078,-0.554 0.064,-0.526 0.053,-0.49L0.034,-0.501C0.045,-0.547 0.06,-0.583 0.077,-0.609C0.101,-0.643 0.131,-0.67 0.17,-0.688C0.208,-0.707 0.252,-0.716 0.301,-0.716C0.335,-0.716 0.396,-0.709 0.482,-0.695C0.569,-0.681 0.628,-0.673 0.661,-0.673C0.683,-0.673 0.699,-0.677 0.711,-0.683C0.722,-0.69 0.737,-0.706 0.754,-0.73ZM0.349,-0.622L0.323,-0.624C0.28,-0.587 0.248,-0.549 0.227,-0.512C0.199,-0.461 0.186,-0.409 0.186,-0.356C0.186,-0.265 0.223,-0.19 0.298,-0.133C0.322,-0.153 0.336,-0.169 0.341,-0.181C0.347,-0.194 0.349,-0.219 0.349,-0.257L0.349,-0.622ZM0.532,-0.591C0.501,-0.595 0.474,-0.6 0.45,-0.604L0.45,-0.312C0.45,-0.278 0.449,-0.257 0.446,-0.247C0.443,-0.238 0.437,-0.227 0.427,-0.216C0.409,-0.196 0.372,-0.164 0.317,-0.12C0.345,-0.107 0.367,-0.098 0.384,-0.093C0.413,-0.085 0.441,-0.082 0.468,-0.082C0.483,-0.082 0.504,-0.083 0.532,-0.087L0.532,-0.591Z" style="fill:white;fill-rule:nonzero;"/>
            </g>
        </g>
    </g>
</svg>
