<?xml version="1.0" encoding="UTF-8" standalone="no"?>
<!DOCTYPE svg PUBLIC "-//W3C//DTD SVG 1.1//EN" "http://www.w3.org/Graphics/SVG/1.1/DTD/svg11.dtd">
<svg width="100%" height="100%" viewBox="0 0 970 241" version="1.1" xmlns="http://www.w3.org/2000/svg" xmlns:xlink="http://www.w3.org/1999/xlink" xml:space="preserve" xmlns:serif="http://www.serif.com/" style="fill-rule:evenodd;clip-rule:evenodd;stroke-linejoin:round;stroke-miterlimit:2;">
    <g transform="matrix(1,0,0,1,-2870.24,-5880.78)">
        <g transform="matrix(300,0,0,300,2872,6102.71)">
            <path d="M0.643,-0.74C0.7,-0.726 0.744,-0.708 0.776,-0.688C0.819,-0.66 0.852,-0.626 0.874,-0.586C0.896,-0.546 0.907,-0.504 0.907,-0.459C0.907,-0.427 0.902,-0.395 0.891,-0.363C0.88,-0.332 0.862,-0.297 0.837,-0.259C0.829,-0.245 0.786,-0.187 0.71,-0.086C0.749,-0.103 0.788,-0.111 0.827,-0.111C0.844,-0.111 0.859,-0.11 0.87,-0.108C0.882,-0.105 0.891,-0.104 0.898,-0.104C0.903,-0.104 0.908,-0.107 0.913,-0.112C0.918,-0.117 0.928,-0.135 0.944,-0.166L0.968,-0.157L0.884,0C0.84,-0.015 0.803,-0.022 0.774,-0.022C0.741,-0.022 0.714,-0.016 0.693,-0.003C0.672,0.009 0.651,0.031 0.632,0.063L0.612,0.053C0.623,0.02 0.643,-0.022 0.671,-0.071C0.719,-0.152 0.754,-0.218 0.777,-0.27C0.748,-0.29 0.721,-0.303 0.696,-0.312C0.672,-0.32 0.646,-0.324 0.619,-0.324C0.596,-0.324 0.574,-0.321 0.554,-0.316C0.534,-0.31 0.511,-0.3 0.484,-0.285L0.484,-0.199C0.484,-0.146 0.481,-0.109 0.476,-0.086C0.47,-0.064 0.458,-0.041 0.44,-0.018C0.421,0.005 0.397,0.025 0.367,0.04C0.338,0.056 0.308,0.063 0.276,0.063C0.263,0.063 0.251,0.062 0.238,0.06C0.231,0.058 0.211,0.053 0.177,0.043C0.143,0.033 0.125,0.027 0.12,0.026C0.111,0.025 0.101,0.024 0.091,0.024C0.076,0.024 0.062,0.026 0.05,0.03C0.038,0.035 0.024,0.042 0.008,0.053L-0.006,0.041C0.027,-0.018 0.072,-0.047 0.129,-0.047C0.153,-0.047 0.182,-0.043 0.219,-0.035C0.242,-0.03 0.257,-0.028 0.265,-0.028C0.283,-0.028 0.298,-0.035 0.311,-0.049C0.323,-0.063 0.33,-0.081 0.33,-0.104C0.33,-0.132 0.32,-0.156 0.3,-0.176C0.28,-0.195 0.256,-0.205 0.228,-0.205C0.209,-0.205 0.189,-0.197 0.167,-0.181L0.153,-0.194C0.168,-0.212 0.182,-0.225 0.197,-0.233C0.211,-0.241 0.227,-0.245 0.245,-0.245C0.256,-0.245 0.266,-0.243 0.278,-0.24C0.289,-0.236 0.3,-0.231 0.313,-0.224C0.307,-0.252 0.297,-0.274 0.283,-0.29C0.259,-0.316 0.228,-0.33 0.192,-0.33C0.176,-0.33 0.163,-0.328 0.153,-0.325C0.145,-0.322 0.135,-0.316 0.124,-0.308L0.112,-0.325C0.129,-0.343 0.146,-0.355 0.16,-0.362C0.175,-0.369 0.191,-0.373 0.208,-0.373C0.223,-0.373 0.237,-0.37 0.25,-0.366C0.263,-0.362 0.28,-0.352 0.301,-0.338C0.301,-0.364 0.297,-0.385 0.288,-0.401C0.28,-0.416 0.265,-0.43 0.243,-0.443C0.221,-0.456 0.2,-0.462 0.18,-0.462C0.161,-0.462 0.143,-0.455 0.124,-0.442L0.112,-0.459C0.126,-0.475 0.14,-0.485 0.153,-0.491C0.169,-0.499 0.186,-0.503 0.205,-0.503C0.221,-0.503 0.235,-0.501 0.249,-0.496C0.263,-0.492 0.28,-0.482 0.301,-0.468L0.301,-0.577L0.643,-0.74ZM0.484,-0.477C0.515,-0.459 0.542,-0.447 0.564,-0.44C0.586,-0.433 0.61,-0.429 0.634,-0.429C0.662,-0.429 0.688,-0.434 0.713,-0.442C0.738,-0.451 0.767,-0.466 0.8,-0.489C0.782,-0.535 0.751,-0.573 0.708,-0.601C0.664,-0.629 0.615,-0.644 0.561,-0.644C0.537,-0.644 0.512,-0.639 0.484,-0.631L0.484,-0.477ZM0.461,-0.624L0.402,-0.594L0.402,-0.174C0.402,-0.125 0.397,-0.09 0.387,-0.07C0.377,-0.049 0.359,-0.029 0.331,-0.009C0.364,-0.012 0.388,-0.019 0.403,-0.03C0.425,-0.045 0.441,-0.064 0.449,-0.087C0.457,-0.11 0.461,-0.148 0.461,-0.203L0.461,-0.624ZM0.484,-0.311C0.513,-0.325 0.537,-0.334 0.557,-0.339C0.577,-0.345 0.598,-0.347 0.622,-0.347C0.651,-0.347 0.678,-0.343 0.703,-0.334C0.729,-0.326 0.756,-0.312 0.785,-0.292C0.794,-0.315 0.801,-0.337 0.806,-0.358C0.81,-0.379 0.813,-0.399 0.813,-0.418C0.813,-0.432 0.811,-0.448 0.807,-0.465C0.771,-0.442 0.741,-0.427 0.716,-0.418C0.69,-0.41 0.664,-0.406 0.637,-0.406C0.613,-0.406 0.59,-0.409 0.566,-0.416C0.543,-0.422 0.516,-0.434 0.484,-0.451L0.484,-0.311Z" style="fill:white;fill-rule:nonzero;"/>
        </g>
        <g transform="matrix(300,0,0,300,3234.93,6102.71)">
            <path d="M0.434,-0.73C0.49,-0.724 0.535,-0.716 0.567,-0.706C0.615,-0.69 0.657,-0.669 0.693,-0.64C0.729,-0.612 0.758,-0.579 0.778,-0.541C0.798,-0.502 0.809,-0.46 0.809,-0.416C0.809,-0.374 0.798,-0.333 0.776,-0.292C0.755,-0.252 0.718,-0.207 0.666,-0.156C0.614,-0.106 0.561,-0.067 0.508,-0.04C0.455,-0.013 0.403,0 0.352,0C0.298,0 0.245,-0.014 0.194,-0.041C0.144,-0.068 0.104,-0.105 0.077,-0.152C0.049,-0.199 0.035,-0.252 0.035,-0.309C0.035,-0.342 0.039,-0.374 0.045,-0.404C0.052,-0.434 0.064,-0.47 0.081,-0.51C0.113,-0.526 0.151,-0.548 0.194,-0.576C0.218,-0.591 0.276,-0.628 0.37,-0.687C0.389,-0.699 0.41,-0.713 0.434,-0.73ZM0.396,-0.633C0.374,-0.634 0.353,-0.635 0.331,-0.636L0.331,-0.347C0.331,-0.316 0.329,-0.294 0.325,-0.282C0.32,-0.269 0.313,-0.256 0.301,-0.243L0.211,-0.156C0.242,-0.13 0.27,-0.112 0.298,-0.101C0.325,-0.09 0.358,-0.083 0.396,-0.081L0.396,-0.633ZM0.417,-0.502C0.441,-0.482 0.463,-0.468 0.484,-0.459C0.505,-0.45 0.528,-0.445 0.553,-0.445C0.576,-0.445 0.597,-0.45 0.616,-0.459C0.635,-0.468 0.656,-0.482 0.677,-0.502C0.659,-0.527 0.641,-0.544 0.625,-0.556C0.596,-0.577 0.565,-0.594 0.531,-0.606C0.497,-0.618 0.459,-0.626 0.417,-0.631L0.417,-0.502ZM0.231,-0.572C0.203,-0.551 0.183,-0.534 0.171,-0.52C0.155,-0.501 0.142,-0.479 0.131,-0.452C0.121,-0.425 0.115,-0.396 0.115,-0.364C0.115,-0.295 0.142,-0.231 0.195,-0.171C0.21,-0.185 0.22,-0.199 0.224,-0.213C0.229,-0.227 0.231,-0.254 0.231,-0.294L0.231,-0.572ZM0.417,-0.299C0.441,-0.322 0.462,-0.338 0.482,-0.347C0.502,-0.356 0.525,-0.36 0.552,-0.36C0.579,-0.36 0.604,-0.355 0.626,-0.346C0.649,-0.336 0.672,-0.319 0.698,-0.295C0.707,-0.327 0.711,-0.355 0.711,-0.379C0.711,-0.401 0.709,-0.42 0.706,-0.436C0.703,-0.448 0.698,-0.463 0.69,-0.481C0.662,-0.458 0.637,-0.443 0.616,-0.434C0.595,-0.426 0.572,-0.422 0.547,-0.422C0.524,-0.422 0.503,-0.426 0.483,-0.433C0.464,-0.441 0.442,-0.455 0.417,-0.475L0.417,-0.299ZM0.417,-0.081C0.458,-0.083 0.492,-0.09 0.518,-0.101C0.557,-0.117 0.59,-0.14 0.619,-0.169C0.648,-0.198 0.671,-0.234 0.69,-0.275C0.645,-0.317 0.599,-0.338 0.552,-0.338C0.525,-0.338 0.499,-0.331 0.474,-0.316C0.456,-0.306 0.437,-0.288 0.417,-0.264L0.417,-0.081Z" style="fill:white;fill-rule:nonzero;"/>
        </g>
        <g transform="matrix(300,0,0,300,3548.2,6102.71)">
            <path d="M0.627,-0.582L0.865,-0.74C0.903,-0.686 0.93,-0.637 0.946,-0.593C0.963,-0.55 0.971,-0.507 0.971,-0.465C0.971,-0.423 0.964,-0.385 0.95,-0.349C0.928,-0.292 0.896,-0.237 0.854,-0.186C0.813,-0.134 0.752,-0.072 0.672,0C0.657,-0.018 0.64,-0.031 0.623,-0.039C0.606,-0.047 0.589,-0.051 0.573,-0.051C0.552,-0.051 0.53,-0.048 0.506,-0.041C0.483,-0.034 0.45,-0.02 0.409,0C0.394,-0.017 0.38,-0.029 0.366,-0.036C0.348,-0.044 0.326,-0.048 0.301,-0.048C0.275,-0.048 0.252,-0.045 0.23,-0.038C0.209,-0.031 0.182,-0.019 0.151,0L0.136,-0.011C0.188,-0.101 0.214,-0.173 0.214,-0.228C0.214,-0.259 0.205,-0.285 0.186,-0.306C0.168,-0.326 0.147,-0.336 0.125,-0.336C0.111,-0.336 0.097,-0.331 0.083,-0.319L0.069,-0.33C0.087,-0.368 0.115,-0.387 0.152,-0.387C0.164,-0.387 0.177,-0.384 0.19,-0.378C0.203,-0.372 0.216,-0.362 0.229,-0.35C0.227,-0.467 0.207,-0.557 0.169,-0.62C0.15,-0.651 0.129,-0.667 0.104,-0.667C0.092,-0.667 0.082,-0.662 0.073,-0.652C0.064,-0.642 0.057,-0.622 0.052,-0.592L0.035,-0.597C0.037,-0.642 0.047,-0.677 0.066,-0.702C0.085,-0.727 0.11,-0.74 0.143,-0.74C0.173,-0.74 0.202,-0.727 0.232,-0.703C0.261,-0.678 0.285,-0.638 0.303,-0.582L0.54,-0.74C0.572,-0.7 0.601,-0.647 0.627,-0.582ZM0.309,-0.559C0.317,-0.529 0.322,-0.496 0.325,-0.46C0.348,-0.447 0.367,-0.438 0.383,-0.433C0.399,-0.428 0.417,-0.426 0.435,-0.426C0.454,-0.426 0.471,-0.428 0.488,-0.433C0.504,-0.438 0.525,-0.447 0.548,-0.46C0.541,-0.5 0.533,-0.535 0.522,-0.563C0.511,-0.592 0.493,-0.626 0.468,-0.666L0.309,-0.559ZM0.633,-0.562C0.639,-0.547 0.643,-0.534 0.645,-0.522C0.647,-0.511 0.649,-0.49 0.651,-0.46C0.676,-0.448 0.695,-0.439 0.71,-0.435C0.725,-0.431 0.741,-0.429 0.759,-0.429C0.776,-0.429 0.793,-0.431 0.808,-0.436C0.824,-0.44 0.843,-0.448 0.865,-0.46C0.862,-0.492 0.856,-0.52 0.848,-0.545C0.834,-0.584 0.815,-0.624 0.791,-0.665L0.633,-0.562ZM0.548,-0.437C0.522,-0.423 0.501,-0.414 0.485,-0.41C0.469,-0.405 0.451,-0.403 0.433,-0.403C0.416,-0.403 0.399,-0.405 0.381,-0.41C0.363,-0.415 0.345,-0.423 0.326,-0.433L0.326,-0.42C0.326,-0.378 0.318,-0.33 0.301,-0.278C0.32,-0.286 0.338,-0.292 0.355,-0.296C0.372,-0.3 0.387,-0.302 0.401,-0.302C0.422,-0.302 0.442,-0.299 0.46,-0.293C0.479,-0.288 0.5,-0.277 0.525,-0.262C0.541,-0.312 0.549,-0.361 0.549,-0.408C0.549,-0.414 0.549,-0.424 0.548,-0.437ZM0.865,-0.433C0.84,-0.423 0.821,-0.416 0.806,-0.412C0.791,-0.409 0.775,-0.407 0.758,-0.407C0.742,-0.407 0.725,-0.409 0.707,-0.414C0.689,-0.418 0.671,-0.424 0.653,-0.433C0.652,-0.403 0.649,-0.379 0.645,-0.36C0.641,-0.341 0.632,-0.317 0.619,-0.286C0.634,-0.291 0.649,-0.295 0.662,-0.298C0.676,-0.3 0.689,-0.302 0.702,-0.302C0.726,-0.302 0.748,-0.299 0.768,-0.292C0.788,-0.286 0.809,-0.275 0.831,-0.26C0.854,-0.322 0.866,-0.375 0.866,-0.42C0.866,-0.423 0.866,-0.427 0.865,-0.433ZM0.822,-0.236C0.8,-0.252 0.78,-0.263 0.762,-0.269C0.745,-0.276 0.725,-0.279 0.702,-0.279C0.687,-0.279 0.672,-0.277 0.655,-0.273C0.639,-0.27 0.622,-0.264 0.605,-0.257C0.588,-0.227 0.568,-0.197 0.545,-0.167C0.522,-0.138 0.489,-0.1 0.445,-0.055C0.496,-0.082 0.538,-0.101 0.572,-0.111C0.605,-0.122 0.637,-0.127 0.666,-0.127C0.689,-0.127 0.715,-0.121 0.743,-0.11C0.774,-0.15 0.8,-0.192 0.822,-0.236ZM0.517,-0.236C0.493,-0.253 0.473,-0.264 0.457,-0.27C0.441,-0.275 0.424,-0.278 0.406,-0.278C0.389,-0.278 0.371,-0.276 0.352,-0.271C0.333,-0.265 0.312,-0.257 0.29,-0.247C0.276,-0.21 0.261,-0.177 0.245,-0.148C0.229,-0.119 0.209,-0.087 0.183,-0.051C0.232,-0.077 0.274,-0.095 0.306,-0.105C0.339,-0.115 0.371,-0.12 0.402,-0.12C0.417,-0.12 0.434,-0.118 0.454,-0.115C0.479,-0.154 0.5,-0.195 0.517,-0.236Z" style="fill:white;fill-rule:nonzero;"/>
        </g>
    </g>
</svg>
