<?xml version="1.0" encoding="UTF-8" standalone="no"?>
<!DOCTYPE svg PUBLIC "-//W3C//DTD SVG 1.1//EN" "http://www.w3.org/Graphics/SVG/1.1/DTD/svg11.dtd">
<svg width="100%" height="100%" viewBox="0 0 848 222" version="1.1" xmlns="http://www.w3.org/2000/svg" xmlns:xlink="http://www.w3.org/1999/xlink" xml:space="preserve" xmlns:serif="http://www.serif.com/" style="fill-rule:evenodd;clip-rule:evenodd;stroke-linejoin:round;stroke-miterlimit:2;">
    <g transform="matrix(1,0,0,1,-2872.46,-5417.77)">
        <g transform="matrix(300,0,0,300,2861.91,5639.69)">
            <path d="M0.434,-0.73C0.49,-0.724 0.535,-0.716 0.567,-0.706C0.615,-0.69 0.657,-0.669 0.693,-0.64C0.729,-0.612 0.758,-0.579 0.778,-0.541C0.798,-0.502 0.809,-0.46 0.809,-0.416C0.809,-0.374 0.798,-0.333 0.776,-0.292C0.755,-0.252 0.718,-0.207 0.666,-0.156C0.614,-0.106 0.561,-0.067 0.508,-0.04C0.455,-0.013 0.403,0 0.352,0C0.298,0 0.245,-0.014 0.194,-0.041C0.144,-0.068 0.104,-0.105 0.077,-0.152C0.049,-0.199 0.035,-0.252 0.035,-0.309C0.035,-0.342 0.039,-0.374 0.045,-0.404C0.052,-0.434 0.064,-0.47 0.081,-0.51C0.113,-0.526 0.151,-0.548 0.194,-0.576C0.218,-0.591 0.276,-0.628 0.37,-0.687C0.389,-0.699 0.41,-0.713 0.434,-0.73ZM0.396,-0.633C0.374,-0.634 0.353,-0.635 0.331,-0.636L0.331,-0.347C0.331,-0.316 0.329,-0.294 0.325,-0.282C0.32,-0.269 0.313,-0.256 0.301,-0.243L0.211,-0.156C0.242,-0.13 0.27,-0.112 0.298,-0.101C0.325,-0.09 0.358,-0.083 0.396,-0.081L0.396,-0.633ZM0.417,-0.502C0.441,-0.482 0.463,-0.468 0.484,-0.459C0.505,-0.45 0.528,-0.445 0.553,-0.445C0.576,-0.445 0.597,-0.45 0.616,-0.459C0.635,-0.468 0.656,-0.482 0.677,-0.502C0.659,-0.527 0.641,-0.544 0.625,-0.556C0.596,-0.577 0.565,-0.594 0.531,-0.606C0.497,-0.618 0.459,-0.626 0.417,-0.631L0.417,-0.502ZM0.231,-0.572C0.203,-0.551 0.183,-0.534 0.171,-0.52C0.155,-0.501 0.142,-0.479 0.131,-0.452C0.121,-0.425 0.115,-0.396 0.115,-0.364C0.115,-0.295 0.142,-0.231 0.195,-0.171C0.21,-0.185 0.22,-0.199 0.224,-0.213C0.229,-0.227 0.231,-0.254 0.231,-0.294L0.231,-0.572ZM0.417,-0.299C0.441,-0.322 0.462,-0.338 0.482,-0.347C0.502,-0.356 0.525,-0.36 0.552,-0.36C0.579,-0.36 0.604,-0.355 0.626,-0.346C0.649,-0.336 0.672,-0.319 0.698,-0.295C0.707,-0.327 0.711,-0.355 0.711,-0.379C0.711,-0.401 0.709,-0.42 0.706,-0.436C0.703,-0.448 0.698,-0.463 0.69,-0.481C0.662,-0.458 0.637,-0.443 0.616,-0.434C0.595,-0.426 0.572,-0.422 0.547,-0.422C0.524,-0.422 0.503,-0.426 0.483,-0.433C0.464,-0.441 0.442,-0.455 0.417,-0.475L0.417,-0.299ZM0.417,-0.081C0.458,-0.083 0.492,-0.09 0.518,-0.101C0.557,-0.117 0.59,-0.14 0.619,-0.169C0.648,-0.198 0.671,-0.234 0.69,-0.275C0.645,-0.317 0.599,-0.338 0.552,-0.338C0.525,-0.338 0.499,-0.331 0.474,-0.316C0.456,-0.306 0.437,-0.288 0.417,-0.264L0.417,-0.081Z" style="fill:white;fill-rule:nonzero;"/>
        </g>
        <g transform="matrix(300,0,0,300,3175.18,5639.69)">
            <path d="M0.793,-0.714L0.808,-0.699C0.78,-0.664 0.763,-0.639 0.756,-0.623C0.749,-0.607 0.746,-0.584 0.746,-0.553L0.746,-0.205C0.746,-0.157 0.75,-0.127 0.758,-0.114C0.766,-0.102 0.776,-0.095 0.787,-0.095C0.795,-0.095 0.804,-0.1 0.814,-0.11L0.821,-0.081L0.718,0C0.69,-0.018 0.671,-0.035 0.662,-0.051C0.653,-0.068 0.647,-0.096 0.644,-0.136C0.592,-0.086 0.543,-0.051 0.498,-0.031C0.452,-0.01 0.402,0 0.348,0C0.248,0 0.172,-0.036 0.119,-0.107C0.079,-0.16 0.06,-0.222 0.06,-0.292C0.06,-0.345 0.071,-0.393 0.094,-0.438C0.117,-0.483 0.151,-0.527 0.197,-0.569C0.228,-0.597 0.27,-0.627 0.322,-0.659C0.281,-0.649 0.25,-0.644 0.23,-0.644C0.215,-0.644 0.199,-0.644 0.181,-0.646C0.162,-0.648 0.147,-0.648 0.135,-0.648C0.108,-0.648 0.086,-0.64 0.071,-0.624C0.055,-0.607 0.047,-0.584 0.047,-0.555C0.047,-0.544 0.048,-0.53 0.05,-0.514L0.029,-0.514C0.025,-0.537 0.023,-0.556 0.023,-0.571C0.023,-0.623 0.037,-0.664 0.064,-0.694C0.091,-0.725 0.123,-0.74 0.16,-0.74C0.17,-0.74 0.18,-0.739 0.189,-0.737C0.195,-0.736 0.214,-0.729 0.247,-0.717C0.28,-0.705 0.31,-0.699 0.336,-0.699C0.36,-0.699 0.382,-0.704 0.403,-0.712C0.414,-0.717 0.426,-0.726 0.44,-0.74L0.462,-0.74L0.462,-0.466C0.496,-0.448 0.527,-0.439 0.557,-0.439C0.573,-0.439 0.587,-0.441 0.599,-0.445C0.611,-0.448 0.626,-0.456 0.644,-0.466L0.644,-0.608L0.589,-0.648L0.534,-0.587L0.517,-0.602L0.635,-0.733L0.739,-0.659L0.793,-0.714ZM0.44,-0.691C0.419,-0.67 0.406,-0.65 0.401,-0.633C0.395,-0.615 0.392,-0.581 0.392,-0.531L0.392,-0.304C0.392,-0.279 0.39,-0.261 0.387,-0.249C0.382,-0.233 0.373,-0.218 0.36,-0.203C0.341,-0.181 0.307,-0.153 0.258,-0.117C0.282,-0.101 0.304,-0.09 0.324,-0.084C0.345,-0.077 0.369,-0.074 0.397,-0.074C0.411,-0.074 0.425,-0.075 0.44,-0.077L0.44,-0.691ZM0.239,-0.133C0.261,-0.156 0.275,-0.178 0.281,-0.198C0.288,-0.218 0.292,-0.254 0.292,-0.306L0.292,-0.451C0.292,-0.488 0.293,-0.513 0.295,-0.524C0.297,-0.536 0.302,-0.549 0.311,-0.563C0.325,-0.589 0.35,-0.622 0.386,-0.664C0.334,-0.634 0.293,-0.605 0.262,-0.578C0.232,-0.55 0.206,-0.515 0.187,-0.473C0.167,-0.431 0.157,-0.384 0.157,-0.333C0.157,-0.288 0.165,-0.246 0.182,-0.209C0.194,-0.184 0.213,-0.158 0.239,-0.133ZM0.644,-0.44C0.625,-0.43 0.609,-0.424 0.596,-0.42C0.584,-0.417 0.57,-0.416 0.555,-0.416C0.526,-0.416 0.496,-0.424 0.462,-0.44L0.462,-0.326C0.497,-0.341 0.528,-0.349 0.556,-0.349C0.583,-0.349 0.612,-0.341 0.644,-0.327L0.644,-0.44ZM0.644,-0.303C0.612,-0.319 0.582,-0.327 0.556,-0.327C0.54,-0.327 0.525,-0.325 0.512,-0.321C0.498,-0.317 0.482,-0.31 0.462,-0.299L0.462,-0.082C0.495,-0.089 0.524,-0.099 0.551,-0.111C0.578,-0.124 0.609,-0.143 0.644,-0.168L0.644,-0.303Z" style="fill:white;fill-rule:nonzero;"/>
        </g>
        <g transform="matrix(300,0,0,300,3488.31,5639.69)">
            <path d="M0.754,-0.73L0.772,-0.717C0.766,-0.686 0.756,-0.661 0.744,-0.643C0.733,-0.624 0.715,-0.61 0.692,-0.599C0.669,-0.589 0.643,-0.583 0.613,-0.583C0.597,-0.583 0.577,-0.584 0.555,-0.586L0.555,-0.093C0.604,-0.108 0.643,-0.127 0.672,-0.151C0.702,-0.174 0.729,-0.208 0.754,-0.252L0.772,-0.243C0.758,-0.2 0.742,-0.165 0.723,-0.139C0.692,-0.096 0.653,-0.062 0.605,-0.037C0.558,-0.012 0.502,0 0.439,0C0.378,0 0.321,-0.012 0.268,-0.035C0.237,-0.049 0.208,-0.068 0.183,-0.093C0.157,-0.118 0.136,-0.147 0.119,-0.183C0.103,-0.218 0.095,-0.258 0.095,-0.302C0.095,-0.347 0.104,-0.39 0.122,-0.431C0.139,-0.472 0.166,-0.511 0.201,-0.549C0.223,-0.572 0.254,-0.598 0.294,-0.627L0.233,-0.63C0.21,-0.631 0.185,-0.626 0.158,-0.615C0.13,-0.605 0.108,-0.59 0.093,-0.572C0.078,-0.554 0.064,-0.526 0.053,-0.49L0.034,-0.501C0.045,-0.547 0.06,-0.583 0.077,-0.609C0.101,-0.643 0.131,-0.67 0.17,-0.688C0.208,-0.707 0.252,-0.716 0.301,-0.716C0.335,-0.716 0.396,-0.709 0.482,-0.695C0.569,-0.681 0.628,-0.673 0.661,-0.673C0.683,-0.673 0.699,-0.677 0.711,-0.683C0.722,-0.69 0.737,-0.706 0.754,-0.73ZM0.349,-0.622L0.323,-0.624C0.28,-0.587 0.248,-0.549 0.227,-0.512C0.199,-0.461 0.186,-0.409 0.186,-0.356C0.186,-0.265 0.223,-0.19 0.298,-0.133C0.322,-0.153 0.336,-0.169 0.341,-0.181C0.347,-0.194 0.349,-0.219 0.349,-0.257L0.349,-0.622ZM0.532,-0.591C0.501,-0.595 0.474,-0.6 0.45,-0.604L0.45,-0.312C0.45,-0.278 0.449,-0.257 0.446,-0.247C0.443,-0.238 0.437,-0.227 0.427,-0.216C0.409,-0.196 0.372,-0.164 0.317,-0.12C0.345,-0.107 0.367,-0.098 0.384,-0.093C0.413,-0.085 0.441,-0.082 0.468,-0.082C0.483,-0.082 0.504,-0.083 0.532,-0.087L0.532,-0.591Z" style="fill:white;fill-rule:nonzero;"/>
        </g>
    </g>
</svg>
