<?xml version="1.0" encoding="UTF-8" standalone="no"?>
<!DOCTYPE svg PUBLIC "-//W3C//DTD SVG 1.1//EN" "http://www.w3.org/Graphics/SVG/1.1/DTD/svg11.dtd">
<svg width="100%" height="100%" viewBox="0 0 2014 266" version="1.1" xmlns="http://www.w3.org/2000/svg" xmlns:xlink="http://www.w3.org/1999/xlink" xml:space="preserve" xmlns:serif="http://www.serif.com/" style="fill-rule:evenodd;clip-rule:evenodd;stroke-linejoin:round;stroke-miterlimit:2;">
    <g transform="matrix(1,0,0,1,-946.087,-4383.04)">
        <g transform="matrix(1,0,0,1,-218.525,0)">
            <g transform="matrix(300,0,0,300,1159.78,4605.99)">
                <path d="M0.314,-0.73L0.534,-0.656L0.551,-0.685C0.557,-0.695 0.561,-0.702 0.563,-0.704C0.566,-0.707 0.569,-0.708 0.572,-0.708C0.575,-0.708 0.578,-0.707 0.58,-0.705C0.582,-0.702 0.583,-0.7 0.583,-0.697C0.583,-0.692 0.579,-0.683 0.571,-0.67L0.465,-0.489L0.549,-0.495C0.575,-0.496 0.604,-0.492 0.638,-0.484C0.672,-0.476 0.701,-0.463 0.725,-0.446C0.749,-0.429 0.768,-0.409 0.782,-0.385C0.796,-0.362 0.803,-0.337 0.803,-0.309C0.803,-0.257 0.781,-0.207 0.738,-0.157C0.695,-0.107 0.618,-0.055 0.508,0C0.469,-0.014 0.424,-0.029 0.373,-0.045C0.281,-0.003 0.206,0.018 0.147,0.018C0.105,0.018 0.073,0.008 0.05,-0.01C0.027,-0.028 0.016,-0.05 0.016,-0.074C0.016,-0.099 0.03,-0.123 0.057,-0.144C0.084,-0.166 0.125,-0.176 0.179,-0.176C0.2,-0.176 0.226,-0.174 0.257,-0.168L0.297,-0.238L0.226,-0.233C0.209,-0.233 0.186,-0.235 0.157,-0.24C0.129,-0.245 0.105,-0.253 0.087,-0.265C0.068,-0.276 0.055,-0.29 0.045,-0.307C0.036,-0.323 0.032,-0.341 0.032,-0.359C0.032,-0.388 0.042,-0.414 0.063,-0.436C0.076,-0.45 0.097,-0.463 0.127,-0.475L0.126,-0.48C0.126,-0.511 0.14,-0.545 0.167,-0.585C0.194,-0.624 0.243,-0.672 0.314,-0.73ZM0.49,-0.578C0.439,-0.604 0.399,-0.621 0.371,-0.629C0.342,-0.638 0.317,-0.642 0.295,-0.642C0.265,-0.642 0.24,-0.633 0.221,-0.616C0.201,-0.599 0.192,-0.579 0.192,-0.556C0.192,-0.533 0.2,-0.514 0.217,-0.5C0.233,-0.485 0.258,-0.478 0.291,-0.478C0.313,-0.478 0.362,-0.481 0.438,-0.487L0.49,-0.578ZM0.388,-0.398C0.345,-0.392 0.304,-0.389 0.265,-0.389C0.22,-0.389 0.189,-0.394 0.17,-0.405C0.152,-0.415 0.138,-0.431 0.129,-0.454C0.105,-0.439 0.094,-0.42 0.094,-0.398C0.094,-0.378 0.103,-0.361 0.121,-0.348C0.145,-0.331 0.186,-0.323 0.245,-0.323C0.272,-0.323 0.307,-0.325 0.349,-0.33L0.388,-0.398ZM0.375,-0.332C0.453,-0.34 0.507,-0.344 0.537,-0.344C0.578,-0.344 0.61,-0.334 0.632,-0.315C0.654,-0.297 0.665,-0.274 0.665,-0.248C0.665,-0.225 0.654,-0.203 0.633,-0.182C0.611,-0.16 0.565,-0.133 0.495,-0.101L0.595,-0.075C0.637,-0.101 0.67,-0.13 0.693,-0.161C0.716,-0.191 0.728,-0.225 0.728,-0.262C0.728,-0.286 0.721,-0.309 0.706,-0.333C0.692,-0.356 0.669,-0.375 0.639,-0.388C0.609,-0.402 0.575,-0.409 0.536,-0.409C0.504,-0.409 0.463,-0.406 0.414,-0.4L0.375,-0.332ZM0.279,-0.164C0.31,-0.157 0.335,-0.151 0.355,-0.145C0.374,-0.14 0.408,-0.128 0.458,-0.111C0.537,-0.147 0.576,-0.182 0.576,-0.215C0.576,-0.226 0.572,-0.235 0.562,-0.244C0.553,-0.252 0.541,-0.256 0.527,-0.256C0.51,-0.256 0.488,-0.255 0.463,-0.252C0.392,-0.244 0.345,-0.24 0.323,-0.24L0.279,-0.164ZM0.339,-0.057C0.258,-0.084 0.191,-0.097 0.14,-0.097C0.113,-0.097 0.092,-0.091 0.076,-0.08C0.065,-0.072 0.06,-0.062 0.06,-0.051C0.06,-0.039 0.065,-0.029 0.076,-0.022C0.093,-0.01 0.118,-0.004 0.15,-0.004C0.199,-0.004 0.262,-0.022 0.339,-0.057Z" style="fill:white;fill-rule:nonzero;"/>
            </g>
            <g transform="matrix(300,0,0,300,1473.05,4605.99)">
                <path d="M0.415,-0.722L0.437,-0.722L0.437,-0.634L0.573,-0.722C0.641,-0.679 0.689,-0.644 0.715,-0.618C0.741,-0.592 0.758,-0.568 0.766,-0.545C0.775,-0.522 0.779,-0.489 0.779,-0.444L0.779,-0.133L0.629,0C0.589,-0.016 0.554,-0.028 0.525,-0.036C0.495,-0.043 0.466,-0.048 0.437,-0.05L0.437,0.141L0.255,0.141L0.255,-0.059C0.206,-0.056 0.166,-0.049 0.134,-0.037C0.102,-0.025 0.07,-0.007 0.038,0.019L0.022,0C0.067,-0.049 0.105,-0.083 0.137,-0.102C0.169,-0.122 0.209,-0.136 0.255,-0.146C0.255,-0.19 0.249,-0.225 0.238,-0.252C0.227,-0.279 0.207,-0.303 0.178,-0.325C0.149,-0.347 0.112,-0.364 0.067,-0.376L0.067,-0.397C0.09,-0.408 0.11,-0.42 0.128,-0.432L0.255,-0.515L0.255,-0.549C0.255,-0.581 0.252,-0.604 0.246,-0.619C0.239,-0.634 0.228,-0.646 0.211,-0.656C0.194,-0.666 0.175,-0.67 0.155,-0.67C0.132,-0.67 0.107,-0.662 0.08,-0.646L0.067,-0.661C0.09,-0.682 0.112,-0.697 0.134,-0.707C0.156,-0.717 0.18,-0.722 0.207,-0.722C0.237,-0.722 0.264,-0.716 0.288,-0.703C0.312,-0.691 0.329,-0.675 0.34,-0.656C0.35,-0.638 0.355,-0.612 0.356,-0.581L0.415,-0.621L0.415,-0.722ZM0.437,-0.45C0.461,-0.433 0.483,-0.422 0.501,-0.416C0.519,-0.409 0.538,-0.406 0.559,-0.406C0.579,-0.406 0.599,-0.409 0.617,-0.416C0.635,-0.422 0.657,-0.433 0.682,-0.45C0.681,-0.478 0.677,-0.501 0.669,-0.519C0.661,-0.538 0.644,-0.558 0.617,-0.58C0.591,-0.601 0.552,-0.625 0.5,-0.65L0.437,-0.608L0.437,-0.45ZM0.415,-0.593L0.356,-0.555L0.356,0.119L0.415,0.119L0.415,-0.593ZM0.255,-0.488L0.148,-0.417C0.171,-0.407 0.189,-0.397 0.205,-0.386C0.221,-0.375 0.237,-0.361 0.255,-0.343L0.255,-0.488ZM0.437,-0.272C0.463,-0.287 0.485,-0.297 0.504,-0.302C0.522,-0.308 0.541,-0.311 0.56,-0.311C0.579,-0.311 0.598,-0.308 0.615,-0.302C0.633,-0.297 0.655,-0.287 0.682,-0.272L0.682,-0.424C0.655,-0.408 0.632,-0.398 0.614,-0.392C0.596,-0.387 0.576,-0.384 0.555,-0.384C0.535,-0.384 0.516,-0.387 0.5,-0.392C0.483,-0.397 0.462,-0.406 0.437,-0.421L0.437,-0.272ZM0.437,-0.146C0.475,-0.144 0.513,-0.139 0.551,-0.129C0.588,-0.119 0.632,-0.102 0.682,-0.078L0.682,-0.245C0.657,-0.261 0.636,-0.273 0.618,-0.279C0.6,-0.285 0.581,-0.288 0.56,-0.288C0.539,-0.288 0.52,-0.285 0.502,-0.279C0.484,-0.273 0.462,-0.261 0.437,-0.245L0.437,-0.146Z" style="fill:white;fill-rule:nonzero;"/>
            </g>
            <g transform="matrix(300,0,0,300,1786.32,4605.99)">
                <path d="M0.434,-0.73C0.49,-0.724 0.535,-0.716 0.567,-0.706C0.615,-0.69 0.657,-0.669 0.693,-0.64C0.729,-0.612 0.758,-0.579 0.778,-0.541C0.798,-0.502 0.809,-0.46 0.809,-0.416C0.809,-0.374 0.798,-0.333 0.776,-0.292C0.755,-0.252 0.718,-0.207 0.666,-0.156C0.614,-0.106 0.561,-0.067 0.508,-0.04C0.455,-0.013 0.403,0 0.352,0C0.298,0 0.245,-0.014 0.194,-0.041C0.144,-0.068 0.104,-0.105 0.077,-0.152C0.049,-0.199 0.035,-0.252 0.035,-0.309C0.035,-0.342 0.039,-0.374 0.045,-0.404C0.052,-0.434 0.064,-0.47 0.081,-0.51C0.113,-0.526 0.151,-0.548 0.194,-0.576C0.218,-0.591 0.276,-0.628 0.37,-0.687C0.389,-0.699 0.41,-0.713 0.434,-0.73ZM0.396,-0.633C0.374,-0.634 0.353,-0.635 0.331,-0.636L0.331,-0.347C0.331,-0.316 0.329,-0.294 0.325,-0.282C0.32,-0.269 0.313,-0.256 0.301,-0.243L0.211,-0.156C0.242,-0.13 0.27,-0.112 0.298,-0.101C0.325,-0.09 0.358,-0.083 0.396,-0.081L0.396,-0.633ZM0.417,-0.502C0.441,-0.482 0.463,-0.468 0.484,-0.459C0.505,-0.45 0.528,-0.445 0.553,-0.445C0.576,-0.445 0.597,-0.45 0.616,-0.459C0.635,-0.468 0.656,-0.482 0.677,-0.502C0.659,-0.527 0.641,-0.544 0.625,-0.556C0.596,-0.577 0.565,-0.594 0.531,-0.606C0.497,-0.618 0.459,-0.626 0.417,-0.631L0.417,-0.502ZM0.231,-0.572C0.203,-0.551 0.183,-0.534 0.171,-0.52C0.155,-0.501 0.142,-0.479 0.131,-0.452C0.121,-0.425 0.115,-0.396 0.115,-0.364C0.115,-0.295 0.142,-0.231 0.195,-0.171C0.21,-0.185 0.22,-0.199 0.224,-0.213C0.229,-0.227 0.231,-0.254 0.231,-0.294L0.231,-0.572ZM0.417,-0.299C0.441,-0.322 0.462,-0.338 0.482,-0.347C0.502,-0.356 0.525,-0.36 0.552,-0.36C0.579,-0.36 0.604,-0.355 0.626,-0.346C0.649,-0.336 0.672,-0.319 0.698,-0.295C0.707,-0.327 0.711,-0.355 0.711,-0.379C0.711,-0.401 0.709,-0.42 0.706,-0.436C0.703,-0.448 0.698,-0.463 0.69,-0.481C0.662,-0.458 0.637,-0.443 0.616,-0.434C0.595,-0.426 0.572,-0.422 0.547,-0.422C0.524,-0.422 0.503,-0.426 0.483,-0.433C0.464,-0.441 0.442,-0.455 0.417,-0.475L0.417,-0.299ZM0.417,-0.081C0.458,-0.083 0.492,-0.09 0.518,-0.101C0.557,-0.117 0.59,-0.14 0.619,-0.169C0.648,-0.198 0.671,-0.234 0.69,-0.275C0.645,-0.317 0.599,-0.338 0.552,-0.338C0.525,-0.338 0.499,-0.331 0.474,-0.316C0.456,-0.306 0.437,-0.288 0.417,-0.264L0.417,-0.081Z" style="fill:white;fill-rule:nonzero;"/>
            </g>
            <g transform="matrix(300,0,0,300,2099.59,4605.99)">
                <path d="M0.754,-0.73L0.772,-0.717C0.766,-0.686 0.756,-0.661 0.744,-0.643C0.733,-0.624 0.715,-0.61 0.692,-0.599C0.669,-0.589 0.643,-0.583 0.613,-0.583C0.597,-0.583 0.577,-0.584 0.555,-0.586L0.555,-0.093C0.604,-0.108 0.643,-0.127 0.672,-0.151C0.702,-0.174 0.729,-0.208 0.754,-0.252L0.772,-0.243C0.758,-0.2 0.742,-0.165 0.723,-0.139C0.692,-0.096 0.653,-0.062 0.605,-0.037C0.558,-0.012 0.502,0 0.439,0C0.378,0 0.321,-0.012 0.268,-0.035C0.237,-0.049 0.208,-0.068 0.183,-0.093C0.157,-0.118 0.136,-0.147 0.119,-0.183C0.103,-0.218 0.095,-0.258 0.095,-0.302C0.095,-0.347 0.104,-0.39 0.122,-0.431C0.139,-0.472 0.166,-0.511 0.201,-0.549C0.223,-0.572 0.254,-0.598 0.294,-0.627L0.233,-0.63C0.21,-0.631 0.185,-0.626 0.158,-0.615C0.13,-0.605 0.108,-0.59 0.093,-0.572C0.078,-0.554 0.064,-0.526 0.053,-0.49L0.034,-0.501C0.045,-0.547 0.06,-0.583 0.077,-0.609C0.101,-0.643 0.131,-0.67 0.17,-0.688C0.208,-0.707 0.252,-0.716 0.301,-0.716C0.335,-0.716 0.396,-0.709 0.482,-0.695C0.569,-0.681 0.628,-0.673 0.661,-0.673C0.683,-0.673 0.699,-0.677 0.711,-0.683C0.722,-0.69 0.737,-0.706 0.754,-0.73ZM0.349,-0.622L0.323,-0.624C0.28,-0.587 0.248,-0.549 0.227,-0.512C0.199,-0.461 0.186,-0.409 0.186,-0.356C0.186,-0.265 0.223,-0.19 0.298,-0.133C0.322,-0.153 0.336,-0.169 0.341,-0.181C0.347,-0.194 0.349,-0.219 0.349,-0.257L0.349,-0.622ZM0.532,-0.591C0.501,-0.595 0.474,-0.6 0.45,-0.604L0.45,-0.312C0.45,-0.278 0.449,-0.257 0.446,-0.247C0.443,-0.238 0.437,-0.227 0.427,-0.216C0.409,-0.196 0.372,-0.164 0.317,-0.12C0.345,-0.107 0.367,-0.098 0.384,-0.093C0.413,-0.085 0.441,-0.082 0.468,-0.082C0.483,-0.082 0.504,-0.083 0.532,-0.087L0.532,-0.591Z" style="fill:white;fill-rule:nonzero;"/>
            </g>
            <g transform="matrix(300,0,0,300,2397.19,4605.99)">
                <path d="M0.575,-0.74L0.583,-0.723C0.549,-0.713 0.526,-0.699 0.513,-0.683C0.5,-0.666 0.493,-0.643 0.493,-0.615C0.493,-0.58 0.501,-0.518 0.516,-0.429C0.528,-0.357 0.536,-0.311 0.538,-0.292C0.54,-0.273 0.542,-0.253 0.542,-0.233C0.542,-0.181 0.532,-0.138 0.513,-0.103C0.494,-0.069 0.469,-0.043 0.439,-0.027C0.409,-0.011 0.382,-0.003 0.357,-0.003C0.332,-0.003 0.289,-0.013 0.229,-0.032C0.182,-0.046 0.148,-0.054 0.128,-0.054C0.107,-0.054 0.09,-0.049 0.076,-0.038C0.062,-0.028 0.052,-0.013 0.045,0.007L0.026,0C0.034,-0.031 0.044,-0.055 0.057,-0.071C0.074,-0.093 0.091,-0.109 0.11,-0.118C0.129,-0.126 0.156,-0.132 0.192,-0.134C0.228,-0.136 0.252,-0.143 0.265,-0.157C0.278,-0.17 0.285,-0.19 0.285,-0.219C0.285,-0.276 0.273,-0.319 0.251,-0.349C0.235,-0.37 0.213,-0.381 0.187,-0.381C0.176,-0.381 0.164,-0.378 0.153,-0.374C0.141,-0.369 0.126,-0.36 0.106,-0.345L0.092,-0.357C0.109,-0.386 0.129,-0.408 0.152,-0.423C0.175,-0.438 0.202,-0.445 0.233,-0.445C0.238,-0.445 0.243,-0.445 0.25,-0.445C0.251,-0.498 0.259,-0.541 0.273,-0.575C0.287,-0.609 0.314,-0.648 0.354,-0.692C0.315,-0.674 0.29,-0.663 0.279,-0.659C0.269,-0.656 0.257,-0.654 0.245,-0.654C0.235,-0.654 0.22,-0.656 0.201,-0.66C0.181,-0.663 0.167,-0.665 0.157,-0.665C0.134,-0.665 0.117,-0.66 0.105,-0.65C0.093,-0.64 0.085,-0.624 0.082,-0.602L0.063,-0.606C0.069,-0.642 0.08,-0.67 0.098,-0.691C0.124,-0.72 0.158,-0.734 0.2,-0.734C0.213,-0.734 0.227,-0.732 0.245,-0.728C0.277,-0.721 0.304,-0.718 0.326,-0.718C0.344,-0.718 0.359,-0.719 0.372,-0.722C0.385,-0.725 0.401,-0.731 0.419,-0.74L0.431,-0.725C0.397,-0.697 0.373,-0.669 0.36,-0.641C0.347,-0.613 0.34,-0.573 0.34,-0.521C0.34,-0.494 0.341,-0.471 0.343,-0.45C0.344,-0.441 0.348,-0.412 0.356,-0.362C0.365,-0.298 0.37,-0.257 0.37,-0.237C0.37,-0.2 0.359,-0.171 0.336,-0.151C0.32,-0.136 0.293,-0.124 0.255,-0.116C0.294,-0.083 0.32,-0.063 0.335,-0.055C0.35,-0.047 0.366,-0.042 0.381,-0.042C0.403,-0.042 0.421,-0.05 0.436,-0.066C0.451,-0.082 0.459,-0.103 0.459,-0.128C0.459,-0.159 0.452,-0.217 0.437,-0.302C0.419,-0.403 0.411,-0.479 0.411,-0.529C0.411,-0.576 0.417,-0.613 0.43,-0.641C0.444,-0.669 0.463,-0.692 0.489,-0.709C0.509,-0.723 0.537,-0.733 0.575,-0.74Z" style="fill:white;fill-rule:nonzero;"/>
            </g>
            <g transform="matrix(300,0,0,300,2641.76,4605.99)">
                <path d="M0.806,-0.73L0.828,-0.73C0.826,-0.701 0.822,-0.68 0.814,-0.665C0.804,-0.645 0.789,-0.629 0.768,-0.617C0.748,-0.605 0.725,-0.6 0.7,-0.6C0.674,-0.6 0.642,-0.607 0.606,-0.621L0.606,-0.492L0.759,-0.492L0.731,-0.419L0.606,-0.419L0.606,-0.187C0.606,-0.141 0.603,-0.108 0.596,-0.087C0.59,-0.066 0.578,-0.045 0.559,-0.026C0.541,-0.007 0.517,0.009 0.489,0.022C0.449,0.041 0.417,0.055 0.393,0.063L0.188,0.131C0.124,0.107 0.086,0.095 0.076,0.095C0.067,0.095 0.059,0.098 0.052,0.105C0.044,0.111 0.039,0.122 0.036,0.136L0.016,0.131C0.016,0.109 0.018,0.091 0.024,0.078C0.033,0.057 0.045,0.041 0.061,0.03C0.077,0.02 0.094,0.014 0.112,0.014C0.138,0.014 0.171,0.023 0.212,0.041C0.241,0.053 0.258,0.061 0.264,0.062C0.271,0.064 0.277,0.065 0.283,0.065C0.293,0.065 0.302,0.061 0.311,0.053C0.319,0.045 0.324,0.032 0.327,0.015C0.329,-0.002 0.331,-0.038 0.331,-0.092L0.331,-0.419L0.3,-0.419C0.25,-0.419 0.213,-0.414 0.189,-0.402C0.164,-0.391 0.143,-0.371 0.126,-0.344L0.107,-0.352C0.12,-0.395 0.137,-0.426 0.158,-0.444C0.194,-0.476 0.244,-0.492 0.307,-0.492C0.312,-0.492 0.32,-0.492 0.331,-0.492L0.331,-0.596L0.364,-0.594C0.401,-0.594 0.437,-0.602 0.472,-0.616C0.508,-0.631 0.538,-0.649 0.562,-0.669C0.578,-0.683 0.595,-0.704 0.613,-0.73C0.666,-0.696 0.71,-0.679 0.744,-0.679C0.759,-0.679 0.771,-0.683 0.782,-0.691C0.792,-0.699 0.8,-0.712 0.806,-0.73ZM0.506,-0.601C0.484,-0.589 0.459,-0.58 0.431,-0.574L0.431,-0.181C0.431,-0.167 0.43,-0.141 0.427,-0.104C0.426,-0.082 0.423,-0.065 0.419,-0.053C0.414,-0.037 0.406,-0.02 0.395,-0.005C0.384,0.01 0.366,0.029 0.341,0.053C0.383,0.038 0.417,0.019 0.443,-0.004C0.468,-0.027 0.485,-0.052 0.493,-0.079C0.502,-0.105 0.506,-0.145 0.506,-0.198L0.506,-0.601Z" style="fill:white;fill-rule:nonzero;"/>
            </g>
            <g transform="matrix(300,0,0,300,2956.2,4605.99)">
                <path d="M0.06,-0.679L0.049,-0.698C0.072,-0.717 0.091,-0.729 0.105,-0.735C0.119,-0.74 0.135,-0.743 0.154,-0.743C0.181,-0.743 0.205,-0.738 0.229,-0.727C0.252,-0.717 0.27,-0.703 0.283,-0.686C0.293,-0.672 0.301,-0.652 0.308,-0.625C0.356,-0.661 0.397,-0.686 0.43,-0.699C0.464,-0.713 0.496,-0.72 0.527,-0.72C0.585,-0.72 0.635,-0.696 0.677,-0.647C0.72,-0.599 0.741,-0.533 0.741,-0.448C0.741,-0.399 0.733,-0.353 0.717,-0.31C0.701,-0.267 0.677,-0.231 0.645,-0.203C0.613,-0.176 0.576,-0.156 0.534,-0.143C0.491,-0.131 0.454,-0.125 0.424,-0.125L0.217,-0.129C0.186,-0.129 0.156,-0.124 0.129,-0.114C0.102,-0.104 0.082,-0.09 0.07,-0.073C0.057,-0.056 0.051,-0.037 0.051,-0.017C0.051,0.009 0.061,0.031 0.08,0.049C0.099,0.068 0.122,0.077 0.149,0.077C0.164,0.077 0.179,0.075 0.194,0.07C0.21,0.066 0.24,0.055 0.284,0.036C0.347,0.008 0.4,-0.006 0.442,-0.006C0.485,-0.006 0.519,0.004 0.544,0.024C0.563,0.04 0.572,0.06 0.572,0.085C0.572,0.1 0.568,0.112 0.559,0.121C0.551,0.13 0.54,0.135 0.527,0.135C0.517,0.135 0.507,0.131 0.5,0.123C0.492,0.114 0.488,0.104 0.488,0.091C0.488,0.081 0.492,0.07 0.499,0.057C0.504,0.049 0.506,0.044 0.506,0.041C0.506,0.036 0.504,0.032 0.5,0.029C0.495,0.025 0.488,0.023 0.479,0.023C0.468,0.023 0.456,0.026 0.443,0.03C0.431,0.035 0.408,0.047 0.374,0.066C0.326,0.093 0.289,0.111 0.262,0.121C0.234,0.13 0.209,0.135 0.187,0.135C0.143,0.135 0.106,0.12 0.075,0.091C0.045,0.062 0.029,0.028 0.029,-0.011C0.029,-0.049 0.044,-0.081 0.073,-0.108C0.102,-0.135 0.147,-0.15 0.208,-0.153C0.209,-0.16 0.209,-0.165 0.209,-0.168C0.209,-0.205 0.201,-0.238 0.185,-0.265C0.169,-0.292 0.148,-0.312 0.123,-0.326C0.106,-0.334 0.085,-0.339 0.06,-0.339L0.06,-0.357C0.074,-0.36 0.086,-0.361 0.096,-0.361C0.117,-0.361 0.136,-0.358 0.153,-0.352C0.171,-0.346 0.189,-0.336 0.208,-0.322C0.209,-0.332 0.209,-0.34 0.209,-0.347C0.209,-0.387 0.197,-0.42 0.173,-0.446C0.148,-0.472 0.119,-0.485 0.085,-0.485C0.077,-0.485 0.067,-0.484 0.055,-0.482L0.055,-0.501C0.076,-0.513 0.097,-0.518 0.117,-0.518C0.132,-0.518 0.146,-0.516 0.158,-0.512C0.171,-0.507 0.188,-0.499 0.208,-0.486L0.208,-0.529C0.208,-0.591 0.199,-0.634 0.18,-0.659C0.161,-0.684 0.138,-0.696 0.111,-0.696C0.094,-0.696 0.077,-0.691 0.06,-0.679ZM0.385,-0.512C0.405,-0.494 0.423,-0.481 0.44,-0.475C0.457,-0.468 0.475,-0.464 0.496,-0.464C0.519,-0.464 0.54,-0.468 0.559,-0.476C0.578,-0.484 0.599,-0.499 0.624,-0.521C0.614,-0.551 0.603,-0.574 0.592,-0.59C0.575,-0.615 0.556,-0.634 0.533,-0.646C0.511,-0.658 0.488,-0.664 0.464,-0.664C0.441,-0.664 0.415,-0.657 0.385,-0.643L0.385,-0.512ZM0.362,-0.631C0.344,-0.62 0.326,-0.608 0.308,-0.596L0.308,-0.153C0.32,-0.153 0.329,-0.153 0.335,-0.153L0.362,-0.153L0.362,-0.631ZM0.385,-0.334C0.41,-0.351 0.431,-0.363 0.449,-0.369C0.467,-0.375 0.487,-0.378 0.507,-0.378C0.528,-0.378 0.547,-0.375 0.566,-0.369C0.584,-0.363 0.605,-0.351 0.629,-0.334C0.634,-0.363 0.637,-0.388 0.637,-0.409C0.637,-0.431 0.634,-0.459 0.629,-0.495C0.601,-0.474 0.577,-0.46 0.557,-0.452C0.536,-0.444 0.515,-0.44 0.491,-0.44C0.474,-0.44 0.457,-0.443 0.441,-0.449C0.425,-0.455 0.406,-0.466 0.385,-0.481L0.385,-0.334ZM0.385,-0.153C0.432,-0.154 0.471,-0.16 0.5,-0.171C0.53,-0.182 0.555,-0.198 0.574,-0.219C0.593,-0.24 0.609,-0.27 0.624,-0.309C0.6,-0.327 0.579,-0.339 0.563,-0.345C0.546,-0.351 0.527,-0.354 0.507,-0.354C0.486,-0.354 0.466,-0.351 0.448,-0.345C0.43,-0.338 0.409,-0.326 0.385,-0.309L0.385,-0.153Z" style="fill:white;fill-rule:nonzero;"/>
            </g>
        </g>
    </g>
</svg>
