<?xml version="1.0" encoding="UTF-8" standalone="no"?>
<!DOCTYPE svg PUBLIC "-//W3C//DTD SVG 1.1//EN" "http://www.w3.org/Graphics/SVG/1.1/DTD/svg11.dtd">
<svg width="100%" height="100%" viewBox="0 0 2712 264" version="1.1" xmlns="http://www.w3.org/2000/svg" xmlns:xlink="http://www.w3.org/1999/xlink" xml:space="preserve" xmlns:serif="http://www.serif.com/" style="fill-rule:evenodd;clip-rule:evenodd;stroke-linejoin:round;stroke-miterlimit:2;">
    <g transform="matrix(1,0,0,1,-6480.79,-1083.59)">
        <g transform="matrix(1,0,0,1.02413,-0.717811,0)">
            <g transform="matrix(1,0,0,0.976438,5910.3,-3617.18)">
                <g transform="matrix(300,0,0,300,547.873,5011)">
                    <path d="M0.151,-0.351L0.127,-0.351C0.105,-0.411 0.091,-0.465 0.085,-0.511C0.079,-0.557 0.077,-0.588 0.078,-0.604L0.078,-0.676L0.197,-0.676L0.197,-0.604C0.197,-0.589 0.194,-0.559 0.189,-0.512C0.183,-0.466 0.171,-0.413 0.151,-0.351ZM0.385,-0.351L0.362,-0.351C0.339,-0.411 0.325,-0.465 0.319,-0.511C0.313,-0.557 0.311,-0.588 0.313,-0.604L0.313,-0.676L0.432,-0.676L0.432,-0.604C0.432,-0.589 0.429,-0.559 0.423,-0.512C0.418,-0.466 0.405,-0.413 0.385,-0.351Z" style="fill:white;fill-rule:nonzero;"/>
                </g>
                <g transform="matrix(300,0,0,300,773.546,5011)">
                    <path d="M0.754,-0.73L0.772,-0.717C0.766,-0.686 0.756,-0.661 0.744,-0.643C0.733,-0.624 0.715,-0.61 0.692,-0.599C0.669,-0.589 0.643,-0.583 0.613,-0.583C0.597,-0.583 0.577,-0.584 0.555,-0.586L0.555,-0.093C0.604,-0.108 0.643,-0.127 0.672,-0.151C0.702,-0.174 0.729,-0.208 0.754,-0.252L0.772,-0.243C0.758,-0.2 0.742,-0.165 0.723,-0.139C0.692,-0.096 0.653,-0.062 0.605,-0.037C0.558,-0.012 0.502,0 0.439,0C0.378,0 0.321,-0.012 0.268,-0.035C0.237,-0.049 0.208,-0.068 0.183,-0.093C0.157,-0.118 0.136,-0.147 0.119,-0.183C0.103,-0.218 0.095,-0.258 0.095,-0.302C0.095,-0.347 0.104,-0.39 0.122,-0.431C0.139,-0.472 0.166,-0.511 0.201,-0.549C0.223,-0.572 0.254,-0.598 0.294,-0.627L0.233,-0.63C0.21,-0.631 0.185,-0.626 0.158,-0.615C0.13,-0.605 0.108,-0.59 0.093,-0.572C0.078,-0.554 0.064,-0.526 0.053,-0.49L0.034,-0.501C0.045,-0.547 0.06,-0.583 0.077,-0.609C0.101,-0.643 0.131,-0.67 0.17,-0.688C0.208,-0.707 0.252,-0.716 0.301,-0.716C0.335,-0.716 0.396,-0.709 0.482,-0.695C0.569,-0.681 0.628,-0.673 0.661,-0.673C0.683,-0.673 0.699,-0.677 0.711,-0.683C0.722,-0.69 0.737,-0.706 0.754,-0.73ZM0.349,-0.622L0.323,-0.624C0.28,-0.587 0.248,-0.549 0.227,-0.512C0.199,-0.461 0.186,-0.409 0.186,-0.356C0.186,-0.265 0.223,-0.19 0.298,-0.133C0.322,-0.153 0.336,-0.169 0.341,-0.181C0.347,-0.194 0.349,-0.219 0.349,-0.257L0.349,-0.622ZM0.532,-0.591C0.501,-0.595 0.474,-0.6 0.45,-0.604L0.45,-0.312C0.45,-0.278 0.449,-0.257 0.446,-0.247C0.443,-0.238 0.437,-0.227 0.427,-0.216C0.409,-0.196 0.372,-0.164 0.317,-0.12C0.345,-0.107 0.367,-0.098 0.384,-0.093C0.413,-0.085 0.441,-0.082 0.468,-0.082C0.483,-0.082 0.504,-0.083 0.532,-0.087L0.532,-0.591Z" style="fill:white;fill-rule:nonzero;"/>
                </g>
                <g transform="matrix(300,0,0,300,1065.14,5011)">
                    <path d="M0.678,-0.74L0.688,-0.717C0.664,-0.706 0.647,-0.694 0.635,-0.683C0.624,-0.672 0.616,-0.66 0.612,-0.646C0.607,-0.632 0.605,-0.611 0.605,-0.584C0.605,-0.575 0.605,-0.563 0.605,-0.549L0.614,-0.184C0.614,-0.144 0.619,-0.118 0.626,-0.105C0.632,-0.097 0.639,-0.092 0.646,-0.092C0.656,-0.092 0.67,-0.102 0.69,-0.121L0.705,-0.102L0.614,-0.025L0.583,0C0.558,-0.012 0.539,-0.028 0.529,-0.048C0.518,-0.068 0.512,-0.099 0.51,-0.143L0.322,0C0.216,-0.069 0.145,-0.104 0.106,-0.104C0.097,-0.104 0.089,-0.101 0.083,-0.095C0.078,-0.091 0.075,-0.085 0.075,-0.077C0.075,-0.069 0.078,-0.059 0.084,-0.049C0.093,-0.036 0.097,-0.027 0.097,-0.022C0.097,-0.016 0.094,-0.011 0.09,-0.007C0.085,-0.002 0.08,0 0.073,0C0.065,0 0.059,-0.003 0.054,-0.01C0.047,-0.019 0.043,-0.03 0.043,-0.044C0.043,-0.06 0.047,-0.077 0.056,-0.096C0.065,-0.116 0.079,-0.137 0.096,-0.16C0.1,-0.165 0.103,-0.169 0.106,-0.173L0.176,-0.269C0.129,-0.304 0.095,-0.338 0.076,-0.371C0.057,-0.403 0.048,-0.44 0.048,-0.48C0.048,-0.527 0.06,-0.57 0.084,-0.61C0.108,-0.65 0.144,-0.682 0.192,-0.705C0.24,-0.728 0.289,-0.74 0.34,-0.74C0.418,-0.74 0.493,-0.713 0.565,-0.659C0.582,-0.677 0.599,-0.692 0.616,-0.704C0.632,-0.716 0.653,-0.728 0.678,-0.74ZM0.438,-0.626C0.397,-0.647 0.356,-0.657 0.315,-0.657C0.272,-0.657 0.231,-0.647 0.193,-0.628C0.155,-0.609 0.127,-0.585 0.108,-0.555C0.089,-0.524 0.08,-0.494 0.08,-0.462C0.08,-0.395 0.116,-0.336 0.188,-0.285L0.351,-0.508C0.327,-0.521 0.305,-0.528 0.285,-0.528C0.258,-0.528 0.236,-0.515 0.219,-0.49C0.216,-0.485 0.212,-0.482 0.209,-0.482C0.207,-0.482 0.205,-0.483 0.203,-0.485C0.202,-0.487 0.201,-0.489 0.201,-0.492C0.201,-0.502 0.206,-0.516 0.216,-0.534C0.226,-0.552 0.241,-0.567 0.261,-0.578C0.281,-0.589 0.303,-0.594 0.325,-0.594C0.347,-0.594 0.373,-0.589 0.402,-0.578L0.438,-0.626ZM0.501,-0.576C0.492,-0.587 0.485,-0.593 0.482,-0.596C0.48,-0.598 0.472,-0.604 0.458,-0.614L0.244,-0.323L0.507,-0.323L0.501,-0.576ZM0.192,-0.252L0.148,-0.191L0.396,-0.084L0.511,-0.17L0.509,-0.252L0.192,-0.252Z" style="fill:white;fill-rule:nonzero;"/>
                </g>
                <g transform="matrix(300,0,0,300,1343.84,5011)">
                    <path d="M0.579,-0.74L0.591,-0.722C0.553,-0.716 0.525,-0.706 0.507,-0.689C0.488,-0.673 0.479,-0.649 0.479,-0.618C0.479,-0.601 0.481,-0.576 0.484,-0.543C0.491,-0.487 0.494,-0.441 0.494,-0.406C0.494,-0.358 0.483,-0.316 0.462,-0.28C0.441,-0.244 0.391,-0.193 0.313,-0.126C0.364,-0.142 0.41,-0.151 0.451,-0.151C0.488,-0.151 0.522,-0.146 0.552,-0.135C0.582,-0.125 0.615,-0.107 0.651,-0.082L0.7,-0.126L0.714,-0.109L0.588,0C0.553,-0.026 0.519,-0.045 0.484,-0.056C0.45,-0.068 0.41,-0.074 0.364,-0.074C0.322,-0.074 0.282,-0.069 0.244,-0.059C0.206,-0.049 0.158,-0.029 0.099,0L0.089,-0.014C0.148,-0.057 0.187,-0.092 0.206,-0.119C0.225,-0.145 0.235,-0.169 0.235,-0.192C0.235,-0.215 0.228,-0.233 0.214,-0.248C0.2,-0.263 0.184,-0.27 0.166,-0.27C0.157,-0.27 0.146,-0.267 0.135,-0.262L0.12,-0.276C0.132,-0.287 0.143,-0.294 0.153,-0.298C0.163,-0.303 0.175,-0.305 0.188,-0.305C0.196,-0.305 0.204,-0.304 0.212,-0.302C0.22,-0.299 0.228,-0.296 0.236,-0.292C0.237,-0.299 0.237,-0.305 0.237,-0.31C0.237,-0.33 0.23,-0.348 0.214,-0.364C0.198,-0.379 0.179,-0.387 0.156,-0.387C0.14,-0.387 0.123,-0.38 0.106,-0.367L0.089,-0.379C0.101,-0.395 0.113,-0.406 0.126,-0.413C0.146,-0.423 0.168,-0.429 0.19,-0.429C0.195,-0.429 0.201,-0.428 0.207,-0.427C0.212,-0.426 0.219,-0.425 0.225,-0.423C0.223,-0.443 0.222,-0.46 0.222,-0.473C0.222,-0.513 0.228,-0.546 0.24,-0.574C0.252,-0.602 0.272,-0.631 0.301,-0.661C0.27,-0.65 0.244,-0.644 0.222,-0.644C0.2,-0.644 0.173,-0.649 0.14,-0.659C0.126,-0.664 0.114,-0.666 0.105,-0.666C0.088,-0.666 0.074,-0.661 0.062,-0.65C0.051,-0.639 0.045,-0.626 0.045,-0.612C0.045,-0.606 0.046,-0.6 0.049,-0.592L0.028,-0.584C0.024,-0.6 0.022,-0.612 0.022,-0.623C0.022,-0.654 0.035,-0.682 0.059,-0.705C0.083,-0.728 0.113,-0.74 0.147,-0.74C0.162,-0.74 0.186,-0.734 0.219,-0.722C0.252,-0.71 0.277,-0.705 0.295,-0.705C0.328,-0.705 0.36,-0.716 0.39,-0.74L0.404,-0.722C0.372,-0.698 0.349,-0.673 0.336,-0.65C0.323,-0.626 0.316,-0.597 0.316,-0.563C0.316,-0.538 0.318,-0.509 0.321,-0.476C0.328,-0.415 0.331,-0.373 0.331,-0.35C0.331,-0.303 0.323,-0.261 0.308,-0.222C0.293,-0.184 0.265,-0.14 0.226,-0.09C0.286,-0.133 0.33,-0.178 0.356,-0.223C0.383,-0.269 0.396,-0.32 0.396,-0.377C0.396,-0.409 0.394,-0.445 0.389,-0.483C0.385,-0.522 0.382,-0.554 0.382,-0.581C0.382,-0.604 0.388,-0.627 0.399,-0.65C0.41,-0.673 0.424,-0.691 0.443,-0.704C0.461,-0.717 0.481,-0.726 0.503,-0.732C0.52,-0.736 0.545,-0.739 0.579,-0.74Z" style="fill:white;fill-rule:nonzero;"/>
                </g>
                <g transform="matrix(300,0,0,300,1622.54,5011)">
                    <path d="M0.579,-0.74L0.591,-0.722C0.553,-0.716 0.525,-0.706 0.507,-0.689C0.488,-0.673 0.479,-0.649 0.479,-0.618C0.479,-0.601 0.481,-0.576 0.484,-0.543C0.491,-0.487 0.494,-0.441 0.494,-0.406C0.494,-0.358 0.483,-0.316 0.462,-0.28C0.441,-0.244 0.391,-0.193 0.313,-0.126C0.364,-0.142 0.41,-0.151 0.451,-0.151C0.488,-0.151 0.522,-0.146 0.552,-0.135C0.582,-0.125 0.615,-0.107 0.651,-0.082L0.7,-0.126L0.714,-0.109L0.588,0C0.553,-0.026 0.519,-0.045 0.484,-0.056C0.45,-0.068 0.41,-0.074 0.364,-0.074C0.322,-0.074 0.282,-0.069 0.244,-0.059C0.206,-0.049 0.158,-0.029 0.099,0L0.089,-0.014C0.148,-0.057 0.187,-0.092 0.206,-0.119C0.225,-0.145 0.235,-0.169 0.235,-0.192C0.235,-0.215 0.228,-0.233 0.214,-0.248C0.2,-0.263 0.184,-0.27 0.166,-0.27C0.157,-0.27 0.146,-0.267 0.135,-0.262L0.12,-0.276C0.132,-0.287 0.143,-0.294 0.153,-0.298C0.163,-0.303 0.175,-0.305 0.188,-0.305C0.196,-0.305 0.204,-0.304 0.212,-0.302C0.22,-0.299 0.228,-0.296 0.236,-0.292C0.237,-0.299 0.237,-0.305 0.237,-0.31C0.237,-0.33 0.23,-0.348 0.214,-0.364C0.198,-0.379 0.179,-0.387 0.156,-0.387C0.14,-0.387 0.123,-0.38 0.106,-0.367L0.089,-0.379C0.101,-0.395 0.113,-0.406 0.126,-0.413C0.146,-0.423 0.168,-0.429 0.19,-0.429C0.195,-0.429 0.201,-0.428 0.207,-0.427C0.212,-0.426 0.219,-0.425 0.225,-0.423C0.223,-0.443 0.222,-0.46 0.222,-0.473C0.222,-0.513 0.228,-0.546 0.24,-0.574C0.252,-0.602 0.272,-0.631 0.301,-0.661C0.27,-0.65 0.244,-0.644 0.222,-0.644C0.2,-0.644 0.173,-0.649 0.14,-0.659C0.126,-0.664 0.114,-0.666 0.105,-0.666C0.088,-0.666 0.074,-0.661 0.062,-0.65C0.051,-0.639 0.045,-0.626 0.045,-0.612C0.045,-0.606 0.046,-0.6 0.049,-0.592L0.028,-0.584C0.024,-0.6 0.022,-0.612 0.022,-0.623C0.022,-0.654 0.035,-0.682 0.059,-0.705C0.083,-0.728 0.113,-0.74 0.147,-0.74C0.162,-0.74 0.186,-0.734 0.219,-0.722C0.252,-0.71 0.277,-0.705 0.295,-0.705C0.328,-0.705 0.36,-0.716 0.39,-0.74L0.404,-0.722C0.372,-0.698 0.349,-0.673 0.336,-0.65C0.323,-0.626 0.316,-0.597 0.316,-0.563C0.316,-0.538 0.318,-0.509 0.321,-0.476C0.328,-0.415 0.331,-0.373 0.331,-0.35C0.331,-0.303 0.323,-0.261 0.308,-0.222C0.293,-0.184 0.265,-0.14 0.226,-0.09C0.286,-0.133 0.33,-0.178 0.356,-0.223C0.383,-0.269 0.396,-0.32 0.396,-0.377C0.396,-0.409 0.394,-0.445 0.389,-0.483C0.385,-0.522 0.382,-0.554 0.382,-0.581C0.382,-0.604 0.388,-0.627 0.399,-0.65C0.41,-0.673 0.424,-0.691 0.443,-0.704C0.461,-0.717 0.481,-0.726 0.503,-0.732C0.52,-0.736 0.545,-0.739 0.579,-0.74Z" style="fill:white;fill-rule:nonzero;"/>
                </g>
                <g transform="matrix(300,0,0,300,1901.24,5011)">
                    <path d="M0.06,-0.679L0.049,-0.698C0.072,-0.717 0.091,-0.729 0.105,-0.735C0.119,-0.74 0.135,-0.743 0.154,-0.743C0.181,-0.743 0.205,-0.738 0.229,-0.727C0.252,-0.717 0.27,-0.703 0.283,-0.686C0.293,-0.672 0.301,-0.652 0.308,-0.625C0.356,-0.661 0.397,-0.686 0.43,-0.699C0.464,-0.713 0.496,-0.72 0.527,-0.72C0.585,-0.72 0.635,-0.696 0.677,-0.647C0.72,-0.599 0.741,-0.533 0.741,-0.448C0.741,-0.399 0.733,-0.353 0.717,-0.31C0.701,-0.267 0.677,-0.231 0.645,-0.203C0.613,-0.176 0.576,-0.156 0.534,-0.143C0.491,-0.131 0.454,-0.125 0.424,-0.125L0.217,-0.129C0.186,-0.129 0.156,-0.124 0.129,-0.114C0.102,-0.104 0.082,-0.09 0.07,-0.073C0.057,-0.056 0.051,-0.037 0.051,-0.017C0.051,0.009 0.061,0.031 0.08,0.049C0.099,0.068 0.122,0.077 0.149,0.077C0.164,0.077 0.179,0.075 0.194,0.07C0.21,0.066 0.24,0.055 0.284,0.036C0.347,0.008 0.4,-0.006 0.442,-0.006C0.485,-0.006 0.519,0.004 0.544,0.024C0.563,0.04 0.572,0.06 0.572,0.085C0.572,0.1 0.568,0.112 0.559,0.121C0.551,0.13 0.54,0.135 0.527,0.135C0.517,0.135 0.507,0.131 0.5,0.123C0.492,0.114 0.488,0.104 0.488,0.091C0.488,0.081 0.492,0.07 0.499,0.057C0.504,0.049 0.506,0.044 0.506,0.041C0.506,0.036 0.504,0.032 0.5,0.029C0.495,0.025 0.488,0.023 0.479,0.023C0.468,0.023 0.456,0.026 0.443,0.03C0.431,0.035 0.408,0.047 0.374,0.066C0.326,0.093 0.289,0.111 0.262,0.121C0.234,0.13 0.209,0.135 0.187,0.135C0.143,0.135 0.106,0.12 0.075,0.091C0.045,0.062 0.029,0.028 0.029,-0.011C0.029,-0.049 0.044,-0.081 0.073,-0.108C0.102,-0.135 0.147,-0.15 0.208,-0.153C0.209,-0.16 0.209,-0.165 0.209,-0.168C0.209,-0.205 0.201,-0.238 0.185,-0.265C0.169,-0.292 0.148,-0.312 0.123,-0.326C0.106,-0.334 0.085,-0.339 0.06,-0.339L0.06,-0.357C0.074,-0.36 0.086,-0.361 0.096,-0.361C0.117,-0.361 0.136,-0.358 0.153,-0.352C0.171,-0.346 0.189,-0.336 0.208,-0.322C0.209,-0.332 0.209,-0.34 0.209,-0.347C0.209,-0.387 0.197,-0.42 0.173,-0.446C0.148,-0.472 0.119,-0.485 0.085,-0.485C0.077,-0.485 0.067,-0.484 0.055,-0.482L0.055,-0.501C0.076,-0.513 0.097,-0.518 0.117,-0.518C0.132,-0.518 0.146,-0.516 0.158,-0.512C0.171,-0.507 0.188,-0.499 0.208,-0.486L0.208,-0.529C0.208,-0.591 0.199,-0.634 0.18,-0.659C0.161,-0.684 0.138,-0.696 0.111,-0.696C0.094,-0.696 0.077,-0.691 0.06,-0.679ZM0.385,-0.512C0.405,-0.494 0.423,-0.481 0.44,-0.475C0.457,-0.468 0.475,-0.464 0.496,-0.464C0.519,-0.464 0.54,-0.468 0.559,-0.476C0.578,-0.484 0.599,-0.499 0.624,-0.521C0.614,-0.551 0.603,-0.574 0.592,-0.59C0.575,-0.615 0.556,-0.634 0.533,-0.646C0.511,-0.658 0.488,-0.664 0.464,-0.664C0.441,-0.664 0.415,-0.657 0.385,-0.643L0.385,-0.512ZM0.362,-0.631C0.344,-0.62 0.326,-0.608 0.308,-0.596L0.308,-0.153C0.32,-0.153 0.329,-0.153 0.335,-0.153L0.362,-0.153L0.362,-0.631ZM0.385,-0.334C0.41,-0.351 0.431,-0.363 0.449,-0.369C0.467,-0.375 0.487,-0.378 0.507,-0.378C0.528,-0.378 0.547,-0.375 0.566,-0.369C0.584,-0.363 0.605,-0.351 0.629,-0.334C0.634,-0.363 0.637,-0.388 0.637,-0.409C0.637,-0.431 0.634,-0.459 0.629,-0.495C0.601,-0.474 0.577,-0.46 0.557,-0.452C0.536,-0.444 0.515,-0.44 0.491,-0.44C0.474,-0.44 0.457,-0.443 0.441,-0.449C0.425,-0.455 0.406,-0.466 0.385,-0.481L0.385,-0.334ZM0.385,-0.153C0.432,-0.154 0.471,-0.16 0.5,-0.171C0.53,-0.182 0.555,-0.198 0.574,-0.219C0.593,-0.24 0.609,-0.27 0.624,-0.309C0.6,-0.327 0.579,-0.339 0.563,-0.345C0.546,-0.351 0.527,-0.354 0.507,-0.354C0.486,-0.354 0.466,-0.351 0.448,-0.345C0.43,-0.338 0.409,-0.326 0.385,-0.309L0.385,-0.153Z" style="fill:white;fill-rule:nonzero;"/>
                </g>
                <g transform="matrix(300,0,0,300,2198.84,5011)">
                    <path d="M0.657,-0.74C0.691,-0.731 0.716,-0.717 0.733,-0.7C0.758,-0.675 0.77,-0.647 0.77,-0.614C0.77,-0.588 0.761,-0.561 0.741,-0.533C0.722,-0.504 0.687,-0.471 0.636,-0.432C0.68,-0.428 0.712,-0.421 0.732,-0.411C0.753,-0.4 0.767,-0.387 0.775,-0.371C0.783,-0.354 0.787,-0.327 0.787,-0.289L0.787,-0.121C0.671,-0.108 0.573,-0.068 0.491,0C0.463,-0.02 0.436,-0.033 0.41,-0.042C0.369,-0.055 0.325,-0.062 0.278,-0.062C0.221,-0.062 0.175,-0.05 0.14,-0.027C0.116,-0.011 0.104,0.004 0.104,0.02C0.104,0.026 0.108,0.035 0.115,0.046C0.121,0.058 0.125,0.067 0.125,0.074C0.125,0.08 0.122,0.086 0.117,0.091C0.112,0.096 0.107,0.098 0.101,0.098C0.092,0.098 0.084,0.094 0.076,0.085C0.069,0.077 0.065,0.065 0.065,0.052C0.065,0.039 0.07,0.025 0.079,0.009C0.088,-0.008 0.107,-0.031 0.137,-0.061C0.167,-0.091 0.186,-0.113 0.194,-0.127C0.202,-0.141 0.207,-0.154 0.207,-0.167C0.207,-0.181 0.202,-0.193 0.192,-0.202C0.183,-0.211 0.17,-0.216 0.156,-0.216C0.143,-0.216 0.132,-0.212 0.123,-0.205C0.115,-0.197 0.109,-0.185 0.106,-0.167L0.088,-0.168C0.088,-0.174 0.088,-0.178 0.088,-0.181C0.088,-0.209 0.097,-0.231 0.115,-0.249C0.134,-0.266 0.158,-0.275 0.189,-0.275C0.193,-0.275 0.198,-0.275 0.206,-0.274C0.205,-0.306 0.201,-0.329 0.191,-0.344C0.177,-0.367 0.155,-0.378 0.126,-0.378C0.108,-0.378 0.092,-0.374 0.078,-0.364C0.07,-0.359 0.063,-0.349 0.055,-0.334L0.037,-0.341C0.04,-0.372 0.052,-0.397 0.073,-0.415C0.094,-0.434 0.121,-0.443 0.153,-0.443C0.165,-0.443 0.18,-0.442 0.198,-0.44C0.2,-0.486 0.204,-0.519 0.211,-0.54C0.218,-0.561 0.23,-0.58 0.247,-0.598C0.264,-0.615 0.296,-0.639 0.343,-0.67C0.299,-0.655 0.261,-0.648 0.23,-0.648C0.21,-0.648 0.184,-0.652 0.152,-0.66C0.133,-0.664 0.12,-0.666 0.112,-0.666C0.098,-0.666 0.085,-0.661 0.075,-0.651C0.065,-0.641 0.058,-0.624 0.055,-0.598L0.037,-0.598C0.038,-0.628 0.043,-0.653 0.053,-0.673C0.063,-0.693 0.078,-0.709 0.099,-0.721C0.119,-0.734 0.141,-0.74 0.164,-0.74C0.181,-0.74 0.209,-0.735 0.248,-0.725C0.288,-0.715 0.319,-0.71 0.344,-0.71C0.362,-0.71 0.379,-0.712 0.396,-0.716C0.413,-0.72 0.435,-0.728 0.462,-0.74L0.472,-0.718C0.402,-0.684 0.355,-0.651 0.331,-0.618C0.308,-0.586 0.296,-0.543 0.296,-0.489L0.296,-0.288C0.296,-0.244 0.292,-0.21 0.282,-0.186C0.272,-0.161 0.252,-0.134 0.223,-0.102C0.28,-0.127 0.319,-0.153 0.339,-0.181C0.359,-0.209 0.369,-0.25 0.369,-0.304L0.369,-0.448C0.369,-0.516 0.375,-0.563 0.386,-0.59C0.398,-0.618 0.42,-0.641 0.451,-0.661C0.482,-0.681 0.551,-0.707 0.657,-0.74ZM0.573,-0.692C0.537,-0.676 0.514,-0.663 0.501,-0.652C0.489,-0.641 0.481,-0.628 0.476,-0.612C0.471,-0.597 0.469,-0.572 0.469,-0.535L0.469,-0.335C0.469,-0.3 0.465,-0.273 0.459,-0.255C0.452,-0.237 0.44,-0.219 0.421,-0.201C0.403,-0.184 0.365,-0.159 0.309,-0.125C0.339,-0.13 0.368,-0.132 0.394,-0.132C0.439,-0.132 0.481,-0.126 0.521,-0.114L0.521,-0.521L0.543,-0.521L0.543,-0.394C0.588,-0.421 0.621,-0.448 0.643,-0.477C0.664,-0.505 0.675,-0.536 0.675,-0.569C0.675,-0.597 0.666,-0.62 0.65,-0.64C0.633,-0.659 0.607,-0.677 0.573,-0.692ZM0.543,-0.323C0.57,-0.314 0.594,-0.309 0.615,-0.309C0.637,-0.309 0.661,-0.314 0.688,-0.323C0.688,-0.346 0.682,-0.364 0.672,-0.377C0.662,-0.391 0.643,-0.404 0.615,-0.416C0.58,-0.393 0.556,-0.377 0.543,-0.371L0.543,-0.323ZM0.688,-0.302C0.66,-0.292 0.636,-0.287 0.615,-0.287C0.593,-0.287 0.569,-0.292 0.543,-0.302L0.543,-0.215C0.568,-0.224 0.591,-0.229 0.613,-0.229C0.634,-0.229 0.659,-0.224 0.688,-0.215L0.688,-0.302ZM0.688,-0.192C0.658,-0.203 0.632,-0.208 0.611,-0.208C0.59,-0.208 0.567,-0.203 0.543,-0.192L0.543,-0.105C0.557,-0.099 0.57,-0.092 0.583,-0.084C0.616,-0.102 0.651,-0.115 0.688,-0.125L0.688,-0.192Z" style="fill:white;fill-rule:nonzero;"/>
                </g>
                <g transform="matrix(300,0,0,300,2511.96,5011)">
                    <path d="M0.678,-0.74L0.688,-0.717C0.664,-0.706 0.647,-0.694 0.635,-0.683C0.624,-0.672 0.616,-0.66 0.612,-0.646C0.607,-0.632 0.605,-0.611 0.605,-0.584C0.605,-0.575 0.605,-0.563 0.605,-0.549L0.614,-0.184C0.614,-0.144 0.619,-0.118 0.626,-0.105C0.632,-0.097 0.639,-0.092 0.646,-0.092C0.656,-0.092 0.67,-0.102 0.69,-0.121L0.705,-0.102L0.614,-0.025L0.583,0C0.558,-0.012 0.539,-0.028 0.529,-0.048C0.518,-0.068 0.512,-0.099 0.51,-0.143L0.322,0C0.216,-0.069 0.145,-0.104 0.106,-0.104C0.097,-0.104 0.089,-0.101 0.083,-0.095C0.078,-0.091 0.075,-0.085 0.075,-0.077C0.075,-0.069 0.078,-0.059 0.084,-0.049C0.093,-0.036 0.097,-0.027 0.097,-0.022C0.097,-0.016 0.094,-0.011 0.09,-0.007C0.085,-0.002 0.08,0 0.073,0C0.065,0 0.059,-0.003 0.054,-0.01C0.047,-0.019 0.043,-0.03 0.043,-0.044C0.043,-0.06 0.047,-0.077 0.056,-0.096C0.065,-0.116 0.079,-0.137 0.096,-0.16C0.1,-0.165 0.103,-0.169 0.106,-0.173L0.176,-0.269C0.129,-0.304 0.095,-0.338 0.076,-0.371C0.057,-0.403 0.048,-0.44 0.048,-0.48C0.048,-0.527 0.06,-0.57 0.084,-0.61C0.108,-0.65 0.144,-0.682 0.192,-0.705C0.24,-0.728 0.289,-0.74 0.34,-0.74C0.418,-0.74 0.493,-0.713 0.565,-0.659C0.582,-0.677 0.599,-0.692 0.616,-0.704C0.632,-0.716 0.653,-0.728 0.678,-0.74ZM0.438,-0.626C0.397,-0.647 0.356,-0.657 0.315,-0.657C0.272,-0.657 0.231,-0.647 0.193,-0.628C0.155,-0.609 0.127,-0.585 0.108,-0.555C0.089,-0.524 0.08,-0.494 0.08,-0.462C0.08,-0.395 0.116,-0.336 0.188,-0.285L0.351,-0.508C0.327,-0.521 0.305,-0.528 0.285,-0.528C0.258,-0.528 0.236,-0.515 0.219,-0.49C0.216,-0.485 0.212,-0.482 0.209,-0.482C0.207,-0.482 0.205,-0.483 0.203,-0.485C0.202,-0.487 0.201,-0.489 0.201,-0.492C0.201,-0.502 0.206,-0.516 0.216,-0.534C0.226,-0.552 0.241,-0.567 0.261,-0.578C0.281,-0.589 0.303,-0.594 0.325,-0.594C0.347,-0.594 0.373,-0.589 0.402,-0.578L0.438,-0.626ZM0.501,-0.576C0.492,-0.587 0.485,-0.593 0.482,-0.596C0.48,-0.598 0.472,-0.604 0.458,-0.614L0.244,-0.323L0.507,-0.323L0.501,-0.576ZM0.192,-0.252L0.148,-0.191L0.396,-0.084L0.511,-0.17L0.509,-0.252L0.192,-0.252Z" style="fill:white;fill-rule:nonzero;"/>
                </g>
                <g transform="matrix(300,0,0,300,2790.67,5011)">
                    <path d="M0.643,-0.74C0.7,-0.726 0.744,-0.708 0.776,-0.688C0.819,-0.66 0.852,-0.626 0.874,-0.586C0.896,-0.546 0.907,-0.504 0.907,-0.459C0.907,-0.427 0.902,-0.395 0.891,-0.363C0.88,-0.332 0.862,-0.297 0.837,-0.259C0.829,-0.245 0.786,-0.187 0.71,-0.086C0.749,-0.103 0.788,-0.111 0.827,-0.111C0.844,-0.111 0.859,-0.11 0.87,-0.108C0.882,-0.105 0.891,-0.104 0.898,-0.104C0.903,-0.104 0.908,-0.107 0.913,-0.112C0.918,-0.117 0.928,-0.135 0.944,-0.166L0.968,-0.157L0.884,0C0.84,-0.015 0.803,-0.022 0.774,-0.022C0.741,-0.022 0.714,-0.016 0.693,-0.003C0.672,0.009 0.651,0.031 0.632,0.063L0.612,0.053C0.623,0.02 0.643,-0.022 0.671,-0.071C0.719,-0.152 0.754,-0.218 0.777,-0.27C0.748,-0.29 0.721,-0.303 0.696,-0.312C0.672,-0.32 0.646,-0.324 0.619,-0.324C0.596,-0.324 0.574,-0.321 0.554,-0.316C0.534,-0.31 0.511,-0.3 0.484,-0.285L0.484,-0.199C0.484,-0.146 0.481,-0.109 0.476,-0.086C0.47,-0.064 0.458,-0.041 0.44,-0.018C0.421,0.005 0.397,0.025 0.367,0.04C0.338,0.056 0.308,0.063 0.276,0.063C0.263,0.063 0.251,0.062 0.238,0.06C0.231,0.058 0.211,0.053 0.177,0.043C0.143,0.033 0.125,0.027 0.12,0.026C0.111,0.025 0.101,0.024 0.091,0.024C0.076,0.024 0.062,0.026 0.05,0.03C0.038,0.035 0.024,0.042 0.008,0.053L-0.006,0.041C0.027,-0.018 0.072,-0.047 0.129,-0.047C0.153,-0.047 0.182,-0.043 0.219,-0.035C0.242,-0.03 0.257,-0.028 0.265,-0.028C0.283,-0.028 0.298,-0.035 0.311,-0.049C0.323,-0.063 0.33,-0.081 0.33,-0.104C0.33,-0.132 0.32,-0.156 0.3,-0.176C0.28,-0.195 0.256,-0.205 0.228,-0.205C0.209,-0.205 0.189,-0.197 0.167,-0.181L0.153,-0.194C0.168,-0.212 0.182,-0.225 0.197,-0.233C0.211,-0.241 0.227,-0.245 0.245,-0.245C0.256,-0.245 0.266,-0.243 0.278,-0.24C0.289,-0.236 0.3,-0.231 0.313,-0.224C0.307,-0.252 0.297,-0.274 0.283,-0.29C0.259,-0.316 0.228,-0.33 0.192,-0.33C0.176,-0.33 0.163,-0.328 0.153,-0.325C0.145,-0.322 0.135,-0.316 0.124,-0.308L0.112,-0.325C0.129,-0.343 0.146,-0.355 0.16,-0.362C0.175,-0.369 0.191,-0.373 0.208,-0.373C0.223,-0.373 0.237,-0.37 0.25,-0.366C0.263,-0.362 0.28,-0.352 0.301,-0.338C0.301,-0.364 0.297,-0.385 0.288,-0.401C0.28,-0.416 0.265,-0.43 0.243,-0.443C0.221,-0.456 0.2,-0.462 0.18,-0.462C0.161,-0.462 0.143,-0.455 0.124,-0.442L0.112,-0.459C0.126,-0.475 0.14,-0.485 0.153,-0.491C0.169,-0.499 0.186,-0.503 0.205,-0.503C0.221,-0.503 0.235,-0.501 0.249,-0.496C0.263,-0.492 0.28,-0.482 0.301,-0.468L0.301,-0.577L0.643,-0.74ZM0.484,-0.477C0.515,-0.459 0.542,-0.447 0.564,-0.44C0.586,-0.433 0.61,-0.429 0.634,-0.429C0.662,-0.429 0.688,-0.434 0.713,-0.442C0.738,-0.451 0.767,-0.466 0.8,-0.489C0.782,-0.535 0.751,-0.573 0.708,-0.601C0.664,-0.629 0.615,-0.644 0.561,-0.644C0.537,-0.644 0.512,-0.639 0.484,-0.631L0.484,-0.477ZM0.461,-0.624L0.402,-0.594L0.402,-0.174C0.402,-0.125 0.397,-0.09 0.387,-0.07C0.377,-0.049 0.359,-0.029 0.331,-0.009C0.364,-0.012 0.388,-0.019 0.403,-0.03C0.425,-0.045 0.441,-0.064 0.449,-0.087C0.457,-0.11 0.461,-0.148 0.461,-0.203L0.461,-0.624ZM0.484,-0.311C0.513,-0.325 0.537,-0.334 0.557,-0.339C0.577,-0.345 0.598,-0.347 0.622,-0.347C0.651,-0.347 0.678,-0.343 0.703,-0.334C0.729,-0.326 0.756,-0.312 0.785,-0.292C0.794,-0.315 0.801,-0.337 0.806,-0.358C0.81,-0.379 0.813,-0.399 0.813,-0.418C0.813,-0.432 0.811,-0.448 0.807,-0.465C0.771,-0.442 0.741,-0.427 0.716,-0.418C0.69,-0.41 0.664,-0.406 0.637,-0.406C0.613,-0.406 0.59,-0.409 0.566,-0.416C0.543,-0.422 0.516,-0.434 0.484,-0.451L0.484,-0.311Z" style="fill:white;fill-rule:nonzero;"/>
                </g>
                <g transform="matrix(300,0,0,300,3153.6,5011)">
                    <path d="M0.151,-0.351L0.127,-0.351C0.105,-0.411 0.091,-0.465 0.085,-0.511C0.079,-0.557 0.077,-0.588 0.078,-0.604L0.078,-0.676L0.197,-0.676L0.197,-0.604C0.197,-0.589 0.194,-0.559 0.189,-0.512C0.183,-0.466 0.171,-0.413 0.151,-0.351ZM0.385,-0.351L0.362,-0.351C0.339,-0.411 0.325,-0.465 0.319,-0.511C0.313,-0.557 0.311,-0.588 0.313,-0.604L0.313,-0.676L0.432,-0.676L0.432,-0.604C0.432,-0.589 0.429,-0.559 0.423,-0.512C0.418,-0.466 0.405,-0.413 0.385,-0.351Z" style="fill:white;fill-rule:nonzero;"/>
                </g>
            </g>
        </g>
    </g>
</svg>
