<svg version="1" xmlns="http://www.w3.org/2000/svg" width="1706.667" height="1706.667" viewBox="0 0 1280.000000 1280.000000"><path d="M.1 43.2c.1 25.3.5 40.4.9 36.3C2.7 63.7 10.3 48.6 22.9 36c10-10 23.3-19.5 25.9-18.5 1.5.6 1.3 1-1.3 3.2-15.2 12.7-21.8 21-26.1 32.8-5.5 15.2-4.9 32.9 1.6 48 2.7 6 8.5 14.5 9.9 14.3.8-.2 2.8-2 4.5-4.1l3.1-3.9.3-33.1.4-33.2 22.5-18.6L86.1 4.2l9.5 3.4c10.7 3.8 23.8 6.4 32.5 6.4 4.5 0 6 .4 6.8 1.7.7 1.5-.7 3.3-7.9 10l-8.7 8.2-7.3-1.5c-8.3-1.7-19.3-5.5-26.3-9.1-2.7-1.3-5.1-2.2-5.4-1.9-.3.3-.1 27.4.3 60.3l.9 59.8 8-.3c15.4-.6 30.2-6.4 43.6-17.1 4.6-3.6 5.4-4 6.7-2.7 1.2 1.2.6 2.4-4.6 8.7-10.6 12.9-20.4 19.7-36.2 25-7.8 2.6-11.6 3.3-21.2 3.7-17.5.7-31-2.7-44.5-11.4C15.9 136.9 3.4 116.5 1 96.2.6 92.5.2 143.5.2 209.5.1 311.8.3 328.9 1.4 325.7c2.7-7.4 6.4-9.9 17.6-11.6 8.3-1.3 12.3-3.2 15.4-7.4 1.8-2.4 2.1-4.3 2.1-12 0-8.2-.3-9.8-3-15.2-6.1-12.2-17.5-16.2-24.9-8.9-1.9 2-3 2.4-3.8 1.6-1.7-1.7.9-6.7 5.9-11.2 4-3.5 10.5-6 15.8-6 .9 0 1.5-1.8 2-5.8 1.1-11.1 2.8-17.4 6.2-23 6.9-11.4 15.5-18.1 39.2-29.9l14.4-7.2 2.9 1.7c4.3 2.5 9.7 8.7 10.3 11.9 1.9 9 0 9.2 19-2.8l16.9-10.8 3.1 2.3c1.6 1.2 6.1 4.6 9.9 7.4 3.8 2.9 7.4 5.2 8.1 5.2.6 0 2.6-1.6 4.5-3.5 2.5-2.6 3.7-3.2 4.6-2.4 1 .8.5 2-2.2 5.5-1.9 2.5-3.7 5.8-4.2 7.2-.4 1.5-.7 22.1-.7 45.7 0 39.6.1 43.3 1.8 45.8 2 3.2 6 3.6 8.9 1 1.7-1.5 2-1.5 3.4-.2 1.3 1.4.3 2.4-9.1 9.8l-10.6 8.3-4-2.7c-2.6-1.7-4.8-4.3-6.2-7.3-2.1-4.6-2.2-6-2.6-52.7l-.3-48-7.1-5.4-7.1-5.4-3.3 1.8-3.3 1.8V247h5c2.8 0 5 .3 5 .6s-2.3 3.3-5 6.7l-5 6.2v18.3c0 19.5-.1 19.2 4.7 14.9 2-1.8 4.3-1.7 4.3.3 0 .4-7 6.7-15.7 14l-15.6 13.2-5.5-6.1c-2.9-3.4-7.4-7.5-9.8-9.2-2.4-1.6-4.4-3.6-4.4-4.3 0-.7 1.4-2.2 3-3.4l3-2.3V260H58.2l-.4 25.2-.3 25.3-3 5.4c-6.2 11.2-15.7 15.1-32.2 13.4-12.3-1.3-15.9-.5-17.1 4-1 3.9-3.9 4.8-4.5 1.5-.2-1.3-.4 19.3-.4 45.7 0 26.4.2 46.6.4 45 1.5-13.2 5-23.2 11.7-33.5 6.5-9.9 20-22.2 32.7-29.8 3.3-2 3.7-2.1 4.3-.6.4 1 0 2.2-1.1 2.9C28 378.7 17.8 397.4 17.9 420c.1 13.6 3.5 24.3 11.3 35.8l3 4.4 3.4-3.3c1.9-1.8 3.9-4.9 4.4-6.9.6-1.9 1-17.1 1-34v-30.5l22.4-18.7 22.5-18.7 9.8 3.4c10.9 3.8 24.7 6.5 32.9 6.5 4.1 0 5.5.4 6.3 1.8.8 1.6-.4 3.2-7.8 10l-8.8 8.1-7.4-1.5c-6.8-1.4-18.4-5.5-28.3-9.8l-3.9-1.8.6 32.4c.4 17.8.7 44.8.7 60V485h7.3c8.9 0 18.4-2 26.1-5.4 6.4-2.8 16.5-9.3 20.9-13.4 2.5-2.4 2.9-2.5 4.3-1 1.5 1.5 1.2 2.2-4.4 9-10.6 12.8-20.3 19.5-36.2 25-9.2 3.2-10.1 3.3-25 3.3-14.8 0-15.9-.1-24.3-3.1-12-4.3-18.9-8.7-27.2-17-11-11-18.1-25.4-20.4-40.9C.6 437.9.2 483.3.2 555c0 65.7.3 118 .8 116.3 1.9-8 6.7-11.6 17.8-13.2 8.4-1.3 12.4-3.2 15.6-7.4 1.8-2.5 2.1-4.2 2.1-12.5-.1-8.5-.4-10.3-2.7-14.7-6.8-13-19.3-16.6-26.6-7.7-.8 1.1-1.5 1.3-2.3.5-1.6-1.6 1.2-7.3 5.8-11.4 3.8-3.4 10.6-5.9 16.2-5.9 1.5 0 1.8-1 1.9-6.3.6-23.7 11.4-35.8 48.1-54.2l11.3-5.6 4.6 2.8c4.9 3.1 8.8 9.2 9.7 15.5l.6 3.7 17.1-11 17.1-10.9 3.1 2.3c1.7 1.3 6.2 4.7 10 7.5 3.8 2.9 7.4 5.2 8.1 5.2.6 0 2.6-1.6 4.5-3.5 2.5-2.6 3.7-3.2 4.7-2.4 1 .9.8 1.7-1.2 4.1-6.2 7.4-6 5.4-6.3 52.3-.2 39.5-.1 43.3 1.5 46.5 2.1 4.1 6.3 5.2 9.4 2.4 1.7-1.5 2.1-1.6 3.4-.3 1.3 1.2.1 2.5-9.1 9.7l-10.5 8.2-4.3-2.9c-8.1-5.6-8-4.9-8.4-59.6l-.4-48-7.1-5.4-7.1-5.4-3.3 1.8-3.3 1.8V591h5c2.8 0 5 .3 5 .6s-2.3 3.3-5 6.6l-5 6v18.4c0 19.7-.1 19.4 4.8 15.1 1.7-1.6 2.5-1.8 3.4-.9 1.5 1.5 2.4.6-16.1 16.1l-14.4 12-6-6.5c-3.4-3.6-7.8-7.7-9.9-9-2.1-1.3-3.8-2.9-3.8-3.4 0-.6 1.4-2.3 3.1-3.8l3.1-2.7.5-17.8.6-17.7H58v22.8c0 17.2-.4 24.1-1.5 27.8-2.7 9.2-9 15.3-18.4 18.1-4.5 1.3-7 1.3-16.1.4-12.6-1.3-15.3-.6-17.2 4.6-1.5 4-3.5 4.3-4.1.5-.2-1.5-.4 19.3-.4 46.3 0 28.8.3 46.3.8 42.5 2-16.6 9.1-30.5 22.3-43.5 10.2-10.1 22.8-19 25.4-18 1.4.5 1.2 1-1.3 3.1-19.7 16.5-27.1 28.2-29.4 46.9-2.1 16.9 2.4 33.1 13.5 48.3.1.2 1.6-.6 3.3-1.9 5.7-4.2 6.1-6.7 6.1-41.2v-31.2l22.5-18.7L86 692.2l9.7 3.3c10.8 3.8 24.7 6.5 32.9 6.5 8.8 0 8.6 1.8-1.4 11.5l-8.6 8.2-6.6-1.3c-8-1.5-20.6-5.7-27.3-9.1-2.7-1.3-5.1-2.2-5.4-1.9-.3.2-.1 27.2.3 60l.7 59.6h7.6c8.8 0 17.5-1.9 25.6-5.5 6.2-2.7 16.4-9.2 20.6-13.2 2.4-2.2 5.9-2.4 5.9-.2 0 1.5-12.1 15.4-17.3 19.7-20.6 17.2-54.6 22.1-79.2 11.4-19.8-8.6-32.8-23.4-39.9-45-1-2.9-2.1-8.3-2.6-12C.6 780.5.2 831.7.2 898s.3 119 .8 117.3c1.9-8 6.7-11.6 17.8-13.2 13.4-2 17.5-6 18-17.6.7-12.4-4.6-23.7-12.9-28-5.2-2.8-14.3-1.1-16.6 3-.5.8-1.3 1.1-2.1.6-2.1-1.3.7-6.9 5.5-11.2 3.8-3.5 10.6-5.9 16.3-5.9 1.8 0 2-.7 2-6.8.1-22.4 10.7-34.7 45.3-52.3l13.8-7 4 2.3c4.3 2.4 9.9 9.8 9.9 13.2 0 1.2.3 3.1.6 4.2.5 2 1.9 1.3 17.7-8.7l17-10.9 3.1 2.3c1.7 1.3 6.2 4.7 10 7.5 3.8 2.9 7.4 5.2 8.1 5.2.6 0 2.6-1.6 4.5-3.5 2.6-2.7 3.6-3.2 4.7-2.3 1.1.9 1 1.6-1 3.7-6.4 6.8-6.2 5.3-6.2 54.2 0 42.5.1 44.8 1.9 46.8 2.3 2.5 6.3 2.7 8.8.4 1.6-1.4 2.1-1.5 3.3-.2 1.2 1.2 0 2.5-9.1 9.6l-10.6 8.2-3.8-2.5c-2.4-1.6-4.8-4.5-6.2-7.3-2.3-4.6-2.3-5-2.6-52.6l-.4-48-7-5.4-7-5.4-3.4 1.6-3.4 1.7v43.9l5.1.3 5.1.3-5.1 6.4-5.1 6.4v18.4c0 19.6-.1 19.3 4.8 15 1.7-1.6 2.5-1.8 3.4-.9 1.4 1.4 2.8 0-15.5 15.4l-14.8 12.5-6.7-6.9c-3.6-3.8-8.1-7.8-9.9-8.9-1.8-1.1-3.3-2.5-3.3-3s1.4-2.2 3.2-3.7l3.1-2.9.5-17.6.5-17.7H58.2l-.4 24.7c-.4 27.7-1 30.3-7.9 37.1-7.1 7-13.9 8.7-28.3 7.1-12.2-1.3-14.9-.6-16.7 4.5-1.5 4.3-3.6 4.7-4.2.8-.2-1.5-.4 19.6-.4 46.8 0 28.8.3 46.6.7 42.5 1.9-16.8 9-30.8 22.4-44 10.2-10.1 22.8-19 25.4-18 1.4.5.9 1.2-2.3 3.8-19.3 14.9-28.6 32.3-28.7 53.2-.1 15.6 4 27.8 13.8 41.3.1.2 1.6-.6 3.3-1.9 5.7-4.2 6.1-6.7 6.1-41.2v-31.2l22.6-18.7 22.5-18.7 7.9 2.8c10.6 3.9 20.2 6 31.1 6.8 6.5.4 9.2 1 9.6 2 .4.9-2.4 4.5-7.3 9.4-6.1 6.1-8.5 7.9-10.7 7.9-6.2 0-17.2-3.5-36.6-11.7-1.2-.6-1.3 5.5-.8 42.3.4 23.6.7 50.7.7 60.1v17.3h7c16.6 0 34-6.9 47.1-18.7 2.4-2.2 5.9-2.3 5.9-.2 0 1.3-11.1 13.9-17 19.2-6 5.4-18.3 11.8-28.5 14.8-11 3.2-27.9 3.7-38.5 1-10.3-2.5-22.7-8.5-29.5-14.1-13.6-11.3-23-28.8-25.4-47.2-.5-3.7-.9 26.7-1 72.9L0 1280h29v-3.3c0-1.7.6-5.5 1.4-8.3 4.3-16.4 15.7-26.6 46.7-41.9l11.5-5.8 4.3 2.8c4.6 3.1 9.1 9.8 9.1 13.6.1 6 1.1 5.8 18.5-5.4l16.7-10.7 3.1 2.2c1.8 1.2 6.4 4.6 10.3 7.5 3.9 2.9 7.5 5.3 7.9 5.3.5 0 2.6-1.7 4.7-3.7 3.2-3.1 3.8-3.4 4.4-1.9.4 1-.1 2.5-1.4 3.9-5.1 5.7-5.7 8.1-6 27.5l-.4 18.2h69.8l2.6-5.3c5.8-11.8 19.1-25.5 34.2-35.2 3.2-2 5.6-3.9 5.3-4.1-.2-.3-2.4 0-4.8.5-2.4.6-10.9 1.1-18.9 1.1-12.8 0-14.9.3-17.8 2-4.4 2.7-7.2 8.9-7.2 16.3 0 4.2-.3 5.8-1.2 5.5-2.1-.7-2.2-16.2-.2-22.3 3.2-10.1 12.4-17.5 21.5-17.5 2.3 0 8.5 1.4 13.8 3.1 16 5.2 26.1 5 33.8-.7 1.7-1.3 4.1-2.4 5.2-2.4 2.1 0 2.1.4 2.1 24.5v24.6l4.7 2.1c7 3.1 17.3 3 23.6 0l4.7-2.4v-25.6l-5.2-3.7-5.2-3.8-4.9 5.2c-2.6 2.8-5.2 5.1-5.7 5.1-2.8 0-.9-3 8.4-13.3l10.4-11.6 9.2 6.6 9.1 6.6 5-4.9c3.6-3.6 5.2-4.5 6-3.7.9.9.3 2.4-2.5 6.1-6.3 8.6-6.8 10.9-7.4 29.9l-.5 17.3h67.1l3.1-4.9c4.6-7.2 19.2-20.7 40.4-37.5l18.8-14.8 8.2 3.4c10.4 4.4 13.2 5.5 18.5 6.8 5.3 1.4 18.9 1.4 22.4.1 2-.8 2.8-.7 3.2.4.3 1-4.5 5.1-14.9 12.7-8.5 6.2-15.4 11.5-15.5 11.8 0 .3 3 1.1 6.6 1.8 11.5 2.2 22.8 9.7 27.3 18.1 1.2 2.1 1.6 2.1 28.1 2.1h26.9l2.1-3c1.2-1.7 4.6-4.5 7.6-6.1 4.4-2.5 5.4-3.6 5.4-5.8 0-1.4 1.6-6 3.6-10.1 3-6.4 5.4-9.3 16-19.8 6.8-6.7 13-12.2 13.7-12.2.7 0 9.9 2.9 20.4 6.4l19.2 6.4 2.6-4.4c2.5-4.2 5.5-5.9 5.5-3.1 0 .7-4.7 9.3-10.5 19.1s-10.5 18-10.5 18.1c0 .1 4.9 0 10.8-.3 17.2-.8 30.3 3.1 39.6 11.6l3.5 3.2h32.4c26.3 0 33.3-.3 36.7-1.5 2.3-.8 6.9-1.5 10.1-1.5h5.8v-6.3c0-3.5.3-7.7.7-9.3 1.5-6.4 6.4-14.2 12.4-19.7 3.4-3.1 5.8-5.7 5.3-5.7-.4.1-3.3.7-6.3 1.4-4.8 1.1-7.2 1.1-17.3-.4-14.3-2-16.6-1.3-19.3 5.6-1.1 2.9-2.3 4.4-3.4 4.4-1.5 0-1.7-.5-1-3.3 2-8.5 7.7-15.8 14.8-18.9 5.6-2.5 10.7-2.5 20.9.1 13.3 3.4 23.4 2.5 36.4-3.3 1.1-.5 1.9-.2 2.2.8.5 1.2-1 2.4-6 4.9-3.7 1.7-9.3 5.6-12.4 8.5-7.8 7.1-9 10.8-9.6 29.5l-.6 14.7h14.1l.4-15.2c.3-12.7.7-16.1 2.4-19.8 4.1-8.8 11.8-14.3 29-20.5 7.5-2.8 9.9-3.3 10.5-2.3 1 1.6.4 2.1-4.9 4.1-2.3 1-5.9 2.8-8 4.1-10.4 6.9-11.5 9.3-12 26.1-.6 20.3-2.3 19.9 17.2 4.2l16.8-13.7 3.1 1.8c5.3 3 16.4 14.1 18.5 18.5 1.1 2.3 2.3 6.1 2.7 8.4l.7 4.3h53.6l1.2-3.8c3.2-10.2 5.3-14.3 8.4-15.9 4.1-2.1 28.6-17.4 45.9-28.6l13.8-9 8.2 1.1c29.6 3.8 51.1 20.3 57.2 43.8.8 3.2 1.5 7.3 1.5 9.1v3.3h62.7l3.2-6.5c4.5-9.1 13.5-20 22-26.5 3.9-3 7.1-5.9 7.1-6.3 0-.5-4.4-.7-9.7-.5-16.5.6-26.1 6.6-31.3 19.4-1.8 4.2-2.5 5.2-3.6 4.4-1-.9-1-2.1.3-6.3 4.4-15 13.3-24.5 28.1-29.9 8.5-3.2 24.3-2.8 50.2 1 35.9 5.3 38.9 5.2 45.2-1.8 5.7-6.4 7.8-3 3.7 6-4.7 10.4-13.1 15-27.4 15h-8.5v32h39l-.1-90.8c-.1-49.9-.5-87.7-.9-84.1-2.1 17.7-7.3 29.3-18 39.9-8.4 8.4-15.9 12.6-28.7 16.2-7.2 2.1-10.2 2.3-39.3 2.4-17.3.1-33.2.5-35.2.8-14.1 2.3-23.7 9.6-26 19.9-1.3 6 1.2 13.6 6.1 18 9 8.1 17.7 7.8 41.1-1.6 21-8.4 27.8-10 39.5-9.5 14.4.8 23 6.3 24.2 15.8.7 5-.2 8.5-2.9 11-2.8 2.6-8.2 2.6-10.8 0-3.8-3.8-3.7-6.8.5-17.2.4-1.1-.1-2.2-2-3.4-4-2.6-10.7-.6-26 7.7-23 12.4-32 15.5-43.4 14.7-27.2-2-40.7-33.4-21.8-50.5 5.5-4.9 12.9-8 22.1-9.4l7.9-1.2-.6-6.6c-.8-9.2-4-17.1-9.5-23.2-4.7-5.2-12.6-9.9-16.9-9.9-6.3 0-7.2-3.5-1.2-4.3 6.2-.8 14.7.9 21.2 4.3 3.1 1.6 6 3 6.3 3 .4 0 .4-3.1.2-7-1.2-16.5-12.7-28-28-28-5.9 0-6.6-2.3-1.3-4.6 6-2.5 15.1-1.8 22.3 1.6 3.5 1.7 6.6 3 6.9 3 1.1 0-.7-23.6-2.1-28.5-3.1-10.1-10.3-16.5-18.9-16.5-2.6 0-6.2.7-7.9 1.6-2.5 1.3-3.2 1.4-3.9.2-1.4-2.2-1.1-2.6 4.3-6.2 7-4.7 13.4-6.1 22.1-4.8 12.4 2 21.5 8.7 25.2 18.8 1 2.7 2 5.1 2.2 5.3.1.2 4-2.1 8.6-5.1 10.5-7 15.2-9.4 23-11.8 9.2-2.8 14.4-3.3 22.2-2 20.9 3.4 36 22.2 38.5 47.9.4 4.2.7-68.5.7-161.4 0-93-.3-166-.7-162.3-1.9 16.2-7.5 28.4-18 38.9-8.9 8.9-15.9 12.7-30.4 16.4-9.5 2.4-11.1 2.5-41.1 2.5-28.3 0-31.9.2-37.6 2-9.1 2.8-14.3 6.5-17.5 12.4-6 10.9-2.2 22.2 9.5 28.1 2.7 1.3 5.2 1.6 11 1.3 6.4-.4 10.3-1.5 24.1-7 21.2-8.3 28.6-10.2 39.4-9.6 6.4.3 9.6 1 13.9 3.2 7.2 3.5 10 7.3 10.5 14.5.4 5.1.1 5.9-2.3 8.4-3.7 3.7-8.7 3.7-12 .1-3-3.3-3.2-6.7-.5-13 1.9-4.3 1.9-4.9.5-6.3-2.5-2.5-9.7-1.7-16.8 1.8-3.4 1.7-12.1 6.2-19.4 10-14.3 7.4-22.9 10.1-32.2 10.1-19.7 0-35.7-17.9-32-35.9 2.7-13.3 13.2-21.7 30.3-24.2l7.9-1.2-.6-6.6c-.8-9.2-4-17.1-9.4-23.1-5.2-5.8-10.6-8.9-17.2-9.9-3.1-.4-4.7-1.2-4.9-2.2-.8-4.1 15.7-2.6 25.1 2.2 3.2 1.6 6 2.9 6.4 2.9.3 0 .4-3 .1-6.8-.6-8.3-3.4-14.8-8.5-19.9-5.5-5.5-10.6-7.7-18-7.7-5.3-.1-6.3-.4-6.3-1.8 0-2.6 6.2-4.8 13.4-4.8 4.7 0 7.5.7 12.4 3 3.5 1.7 6.6 3 6.8 3 .8 0 .4-13-.7-20.7-1.6-11.7-5-17.9-12-22.2-4.1-2.5-11.7-2.8-16.1-.5-2.5 1.3-3.2 1.4-3.9.2-1.4-2.2-1.1-2.6 4.4-6.3 6.8-4.5 13.9-6 21.7-4.7 13 2.3 21.8 8.8 25.5 18.8 1 2.7 2 5.1 2.1 5.3.2.2 4.5-2.3 9.6-5.6 11.4-7.4 13.5-8.5 21.8-11.1 9.3-2.9 13.6-3.4 21.4-2.3 9.3 1.3 16.9 5.3 24.1 12.5 9.5 9.6 13.7 19.4 15.4 35.6.5 4.1.8-68.3.8-161 0-92.9-.3-165.6-.8-162-3.7 29-21.1 48.4-49.4 54.9-8 1.9-12.7 2.1-42 2.4-32 .2-33.2.3-38.8 2.6-10.9 4.4-17.1 12.2-17 21.6 0 5.7 1.8 9.8 6 13.6 5.2 4.9 8.9 6.1 17.2 5.7 6.4-.3 10-1.3 23.1-6.6 21.9-8.6 29.3-10.5 40-10 6.9.3 9.8 1 14.3 3.2 7.2 3.5 10 7.3 10.5 14.5.4 5.1.1 5.9-2.3 8.4-3.6 3.6-8.6 3.7-12 .2-3.1-3-3.2-6.7-.5-13.1 1.8-4.1 1.9-4.9.6-6.2-1.7-1.8-8.7-1.8-13-.1-1.7.7-9.6 4.8-17.6 9-19.7 10.6-27.9 13.3-39 12.7-6.7-.4-9.6-1-13.7-3.1-23-11.8-23.8-41.4-1.4-52.6 3.6-1.8 9.8-3.4 18-4.7l4.4-.6-.6-6.7c-.3-3.6-1.5-9.2-2.7-12.3-4.1-11-16-20.8-25.2-20.8-3.1 0-3.8-.4-3.8-2s.7-2 3.8-2.1c10.5-.3 18 1.4 23.4 5.2 4.5 3.3 5.1 2.6 4.6-4.9-.6-8.3-3.4-14.8-8.5-19.9-5.5-5.5-10.6-7.7-18-7.7-5.3-.1-6.3-.4-6.3-1.8 0-2.6 6.2-4.8 13.4-4.8 4.7 0 7.5.7 12.4 3 3.5 1.7 6.6 3 6.9 3 1.1 0-.7-22.5-2.1-27.9-1.5-5.6-5.2-11-9.8-14.4-3.7-2.7-11.4-3.3-16.3-1.3-3.1 1.3-4 1.4-4.7.4-1.3-2.1-1-2.5 4.6-6.2 6.7-4.4 13.7-6 21.6-4.7 12.8 2.1 21.8 8.7 25.5 18.7 1 2.7 2 5.1 2.1 5.3.2.2 4.5-2.3 9.6-5.6 11.4-7.4 13.5-8.5 21.8-11.1 9.3-2.9 13.6-3.4 21.4-2.3 21.4 3.1 36.8 21.5 39.6 47.4.4 3.9.8-40.3.8-98.3l.1-105.5-2.1 5.5c-4.8 12.5-10.8 16.3-26.5 16.8l-10.3.4V304.9l3.8-1.3c11.7-4.2 22.2-12.2 28.4-21.8 3.1-4.8 5.8-6.3 5.8-3.1 0 .9-1.8 5.4-4.1 10.1-6.8 14.1-18.5 24.1-34.4 29.4-6 1.9-9 2.3-20.5 2.3-11.9 0-14.5-.4-22.1-2.7-24.1-7.7-38.9-26.9-38.9-50.8 0-21.1 11.5-40.4 33.5-56.4 1.8-1.3 1.6-1.5-2.8-2.1-9.3-1.4-21.6 1.7-27.9 7-4 3.4-8.5 10-9.3 13.7-.7 3.2-1.6 4-3.3 2.9-.9-.5-.8-2 .4-6.2 5.2-17.4 16.6-27.7 34.7-31.5 8.5-1.8 14.5-1.5 43.2 2.6 37.1 5.3 39.7 5.1 46-2.2 2.9-3.5 3.7-3.9 5-2.8 1.3 1.1 1.5-5.2 1.4-60.6-.1-39.3-.5-59.7-1-55.9-4.2 29-20 47-47.6 54.1-9.4 2.5-11 2.6-42.8 2.7-36.7.2-39.3.6-47.7 7-13.1 10-11.9 27.4 2.6 34.9 3.2 1.6 5.3 1.9 11.5 1.6 6.5-.3 9.9-1.3 23.1-6.6 20.8-8.3 30-10.6 40.5-10 6.3.3 9.5 1.1 13.8 3.2 7.2 3.5 10 7.3 10.5 14.5.4 4.9.1 5.9-2.2 8.3-3.5 3.9-9.6 3.9-12.5.2-2.6-3.3-2.7-6.9-.2-12.6 2.6-6.1 1.5-7.8-4.9-7.8-4.2 0-7.7 1.4-25.2 10.3-22.6 11.4-28.4 13.2-40.1 12.5-8.8-.6-15.1-3.4-21.3-9.5-11.9-12-12.1-30.2-.2-40.8 5.5-5 10.7-7.3 20.9-9.2l9.1-1.8-.6-7c-1.5-17.2-15.1-32.5-28.8-32.5-2.1 0-2.8-.5-2.8-1.9 0-4.2 15.5-3 25.3 2 3.2 1.6 6 2.9 6.4 2.9 1.3 0-.6-12.8-2.6-17.6-2.6-6.1-9.1-12.7-14.6-15-2.2-.9-6.5-1.6-9.7-1.7-5 0-5.8-.3-5.8-1.9 0-2.7 5.7-4.8 13.2-4.8 4.9 0 7.7.7 12.7 3 3.5 1.7 6.6 2.8 6.9 2.5.3-.3.1-6.3-.5-13.4-1.6-17.8-4.7-24.7-13.5-29.2-4.5-2.3-8.6-2.4-13.5-.4-4.1 1.7-6.3 1.4-6.3-.9 0-2 8.2-7.5 13.4-9.2 3.3-1-101.1-1.3-570.6-1.3L0 0l.1 43.2zM451.5 3.1c8.5 3.2 15.5 10.6 21.1 22.3l4.5 9.6 25.4-17 25.4-16.9 4.6 6.9c2.5 3.8 6.7 11.4 9.3 16.9l4.7 10L572 18.1C594.8 3 597.6 1.4 598.8 2.9c3.3 3.9 12.4 20.4 15.1 27.2 13.8 34.6 4 66.6-31.9 104.3-5.6 5.7-13.7 13.7-18.1 17.7l-8 7.2-3.2-3.1c-4.9-4.8-11.2-7.2-18.8-7.2-7.5 0-13.9 1.7-25.6 6.7l-8.2 3.4-3.8-3c-11.1-8.8-27.8-9.1-44.4-.6-4.3 2.2-7.8 3.3-8.9 3-1.8-.6-1.4-1.6 3.5-11.3 9.8-19.4 13.1-34.1 10.1-44.6-1.3-4.2-2.7-6.4-6.6-9.9-6.7-6-12.5-7-18.6-3-1.8 1.1-2.3 1.1-3.3 0-.8-1.1-.6-2.2 1.2-4.8 5.7-8.5 17.4-10.3 26.2-4.1 2.5 1.8 4.8 3.2 5.2 3.2.8 0-.6-17.1-2.3-27.2-2-11.7-4.6-19.9-9.2-28.3-5.8-10.5-12.6-14.4-19.1-10.9-3 1.6-3.9 2.9-5.6 8.1-2.2 7.2-4.5 8.4-4.5 2.5 0-9.4 6.1-21.6 12.2-24.4 7.4-3.5 11.6-3.6 19.3-.7zm273.8 1c18.4 3.8 28.1 3.7 38.9-.4l6.8-2.6 1.1 2.2c.7 1.1.8 2.2.3 2.4-.5.2-4.6 2.4-9.2 5-14.6 8.2-22.5 17-26.2 28.8-.8 2.7-1.5 15.7-1.9 39-.8 40.2-1 41-10.1 52.2-2.7 3.4-5 6.4-5 6.8 0 1.1 13.8-6.5 18.7-10.4 3.7-2.9 6-5.9 8.4-10.7l3.4-6.8.6-31.5c.9-41.4 2-46.3 11.8-55.4C769 17 776.7 13.4 798 6L813.5.6l6 2.8c7.5 3.4 12.1 7.7 15.1 14.1 6.1 12.9.1 27.3-17.6 42.2-8.2 6.8-8.7 8.3-3 8.3 4.6 0 13.9 2.9 18 5.6 2.4 1.6 4.8 4.4 6.1 7.1 2 4.2 2.2 6.5 2.7 28.4.4 19.8.2 23.9-.9 24.2-.8.2-5.4 1.2-10.4 2.1-16.6 3.2-31.5 9.4-45 18.7l-7.1 4.9-8.5-4.3c-10-5.1-19.6-7.5-32.2-8.4-16.9-1-34.2 4.3-40.5 12.5-2.7 3.6-2.6 5.3.9 14 1.7 4.1.4 6.6-3.9 7-6.6.7-8.8-9.6-3.9-18 1.4-2.5 6.7-8.9 11.7-14.4 12.3-13.2 15-17.5 15-23.5 0-3.7-.5-5.2-2.6-7.2-5.6-5.6-15-4.2-17.5 2.7-1.7 4.8-4.9 5-4.9.3.1-10.4 9.5-18.7 21.4-18.7h3.9l-.6-6.1c-.6-7.4-3.6-12.2-9.3-14.9-6.8-3.4-14.8-1.9-20.1 3.6-4.2 4.5-6.7 4.6-5.8.1 1.2-5.1 2.1-7.1 5-10.6 4.6-5.4 9.8-7.4 20.3-7.9l9.2-.4v-4.7c0-6 2.4-17 4.6-21.2 2.2-4.4 10.6-12.3 18.7-17.9 3.6-2.4 6.5-4.6 6.3-4.7-.2-.2-4.3.6-9.2 1.8-9.8 2.3-18.5 2.2-32.3-.4-11.7-2.3-17.3.6-18.7 9.5-.5 2.9-1.1 3.8-2.6 3.8-1.8 0-1.9-.5-1.3-4.3 1.9-12.5 7.1-19.9 16.6-23.5 7.3-2.8 10.5-2.7 28.2.9zm-434.8.4c9.4 1.2 24 5.6 32 9.6 33.8 16.9 47 51.2 31.5 81.8-8.6 17.1-33.2 41.3-53.4 52.6-12.1 6.8-21.8 9.7-34.2 10.2-14 .7-23.2-1.2-35.3-7.3-32.1-16-43.6-50.3-30.3-89.8l3.7-10.8 8-4.6c8-4.5 62.3-38.7 66-41.6 1.1-.9 3.1-1.4 4.5-1.1 1.4.2 4.8.7 7.5 1zm707.8-.4c24.4 3.6 42.2 12 55 25.8 15.8 17.1 20.7 40.8 12.5 60.5-8.4 20.2-36.3 48-60.2 60-11.9 6-22.3 8.6-34.1 8.6-32.7 0-60.3-22.2-66.1-53-2.8-14.5-.4-33.7 6.1-49.8 2.1-5.2 2.8-6 9.1-9.6 7.1-4 50.9-31.6 62.4-39.3 3.6-2.3 6.8-4.3 7.3-4.3.4 0 4.1.5 8 1.1zM258.1 192.5c15.5 5 24.7 4.7 32.6-1.1 1.7-1.3 4.1-2.4 5.2-2.4 2.1 0 2.1.4 2.1 24.6v24.5l4.8 2.2c6.7 3.1 17 3 23.5-.1l4.7-2.4v-12.6l-.1-12.7-5.2-3.8-5.2-3.8-5 5.6c-4.3 4.8-5.3 5.5-6.3 4.2-1-1.2.5-3.4 9.2-13l10.4-11.5 9.2 6.5 9.1 6.6 5-4.9c3.6-3.6 5.2-4.5 6-3.7.9.9 0 2.9-3.5 8.1-6 9.1-6.5 13.1-6.5 51.2 0 34.3.8 45.1 3.4 48 2 2.2 7 2.7 8.1.8.5-.7 1-.3 1.6 1.2 1 2.7 1.3 2.4-9.6 10.8l-7.8 6.2-2.8-2c-6.4-4.6-8.2-8.2-10.2-20.3-.2-1.5-1.8-.6-8.3 4.8-9.6 8-21.3 14-31.5 16.1-9.2 2-24 1.4-32-1.2-28.7-9.4-41.7-47.1-26.4-76.5 6.5-12.3 18.5-24.5 33.7-34.2 3.1-2 5.7-3.8 5.7-4 0-.2-3.3.2-7.2.9-4.6.8-11.4 1.1-18.4.7-10.3-.5-11.4-.4-15.1 1.6-5.8 3.3-7.8 7.2-7.8 15.3 0 5.8-.3 6.8-1.7 6.8s-1.8-1-2-4.8c-.6-17.5 4-27.9 14.6-32.8 6.9-3.2 11-3 23.7 1.1zm589.7-.2c-.1.1-3.4 1.8-7.3 3.7-8.9 4.4-15.7 10.6-18.6 17.3-2.2 5-2.3 6.5-2.9 38.7l-.5 33.5-2.6 5.5c-1.5 3-3.8 7-5.3 8.9-1.4 1.9-2.6 3.9-2.6 4.3 0 1.5 11.4-6.8 15.6-11.4 8.3-9 8.5-10 9.3-45.3.8-33.4 1-34.7 7.9-41.8 4.8-4.9 11.6-8.8 22.2-12.5 4.7-1.7 9.2-3.3 10.1-3.7 1-.4 1.9 0 2.2.9.5 1.2-1.2 2.4-6.6 4.9-4 1.9-8.9 4.9-11 6.7-6.4 5.6-7.1 7.7-7.5 24.7-.2 8.4-.1 15.3.3 15.3.3 0 7.7-5.7 16.3-12.7 8.6-6.9 16.2-13 16.8-13.4 1.3-1.1 11.5 6.2 16.6 11.9 6.5 7.2 7.9 11 9 25.7 1.2 15.7-.1 33.4-2.7 38.6-2.7 5.2-9.4 12.2-21.2 22-12.4 10.4-15.3 13.5-15.3 16.6 0 2.9 1.5 3.7 6.5 3.4 5.2-.2 7.3 1.8 5.7 5.4-1.4 3-6.5 4.6-10.5 3.2-5.9-2-7.7-9.8-3.9-17.2 1.1-2.2 5.7-8.7 10.2-14.5 9.1-11.8 12.7-18.4 13.6-25.2l.7-4.6-6.8-2.1c-17.2-5.3-34.4-.7-52.5 14-4.1 3.4-7.7 6.6-7.9 7.1-.2.7 1.2.9 3.5.6 2.2-.3 9.9-.1 17.2.4 15.4 1.1 18.5.4 23.7-4.9 2.4-2.5 3.8-3.2 4.9-2.6 1.3.7.1 3-7 12.8-4.7 6.6-9.1 12.6-9.8 13.3-1 1-3.2.6-11.7-2.2-18.5-6.2-35.5-6.7-49.2-1.6-9.8 3.7-12.1 8.2-8.6 16.8 1.6 3.8.5 6.5-2.9 7-4.5.7-6.9-8.6-3.7-14.7.8-1.6 5.2-7 9.9-12.1 11.8-12.7 14.8-19.5 11-24.8-2.5-3.6-7.7-3-11.1 1.3-1.5 1.9-3.4 3.5-4 3.5-1.9 0-1.6-4.6.6-8.9 2.2-4.3 5.7-6.9 11.6-8.6 3.8-1.2 4-1.3 3.7-5.1-.8-9.5-6-14.7-14.8-14.7-5.4 0-6 .3-9.2 3.7-4.2 4.6-6.7 4.3-5-.6 3-8.8 9.4-13 20.2-13.3l7.1-.3.5-8.4c.7-11.4 4.7-19.7 13-27 3.3-2.9 5.8-5.3 5.6-5.5-.2-.2-3 .4-6.3 1.2-5.4 1.4-7.1 1.4-16.2 0-14.2-2.1-15.5-2-18.4 1.5-1.4 1.6-2.8 4.3-3.2 6-.5 2.1-1.3 3-2.6 3-2.3 0-2.3.6-.3-6.1 2.1-6.9 7.3-13.3 13.5-16.4 5.6-2.9 10.9-3.2 18.9-1 15.1 4.1 24.7 3.7 36-1.4 3.9-1.7 4.6-1.8 5.3-.5.5.9.7 1.6.5 1.7zm-357.3 4.1c13.1 5.3 23.4 7.1 32.1 5.5 10.1-1.9 8.9 0-8.2 12.7l-15.8 11.8 6.4 1.3c28.7 5.8 40.1 30.9 25.7 56.5-13.7 24.3-52.4 41.5-79.9 35.4-15.4-3.4-30.1-13.3-36.1-24.4-3.2-5.8-5.7-15.8-5.7-22.8 0-6.7 3.3-19.3 6.7-25.7 1.6-2.8 6.2-8.6 10.3-13 9.2-9.8 49.9-42.8 52-42.2.8.2 6.5 2.4 12.5 4.9zm165.5 1.1c10.7 3.6 19.5 6.5 19.6 6.5.1 0 1.4-2 2.8-4.5 2.5-4.3 5.6-6 5.6-3.2 0 .7-4.3 8.7-9.6 17.8-5.3 9-10 17.2-10.5 18.2-.9 1.6-.3 1.7 9.8 1.1 22.1-1.3 39.6 6.6 46.8 20.9 1.9 3.9 2.5 6.6 2.5 11.8 0 18.4-13.3 33.8-44.3 50.8l-7.7 4.3-12.2-4.1-12.1-4.1-8.7 3.5c-13.7 5.5-20.4 7-31.5 7-8.4 0-10.6-.3-14.2-2.2-8.3-4.5-11.2-12.6-7.1-19.8 4.9-8.3 16.2-12.2 32.3-11.1l9 .7 3.3-5.9c1.7-3.3 3.2-6.1 3.2-6.3 0-.2-5.7-.4-12.8-.4-14.7-.1-22.2-2.1-28-7.7-10.8-10.5-7-26.9 7.6-32.7 2.7-1.1 3.2-1.9 3.2-4.6 0-1.8 1.6-6.6 3.6-10.6 3.1-6.1 5.9-9.5 16.1-19.7 6.8-6.7 12.7-12.2 13.1-12.2.4 0 9.5 2.9 20.2 6.5zm395.5-3.4c19.3 4.9 34.6 16.1 41.9 30.5 6.1 12.2 7.1 25.8 2.7 37.5-8.6 22.7-41.7 51.4-66.2 57.3-18.2 4.4-39.3-1.6-53.1-15.2-16.6-16.2-20.1-40.8-9.8-68.4 2-5.4 2.4-5.8 10.3-10.3 4.5-2.5 18.6-11.3 31.2-19.5l23-14.9 6 .5c3.3.3 9.6 1.4 14 2.5zm-600 153c8.1 3 15.4 10.6 20.5 21 2.2 4.6 4 8.9 4 9.6 0 .7.2 1.3.5 1.3s12-7.6 26-17l25.4-16.9 4.6 6.9c2.5 3.8 6.7 11.4 9.3 16.9l4.7 10L572 362c23.3-15.5 25.6-16.8 26.8-15.2 3.7 4.8 12.5 20.6 15.1 27.2 15.4 38.9 1.9 73.4-46.2 118.4L556 503.2l-4-3.6c-5.6-5-10.3-6.8-18.2-6.8-7.7 0-15.3 2-26 6.9l-7.7 3.6-3.8-3.3c-4.8-4.3-9.1-6-16.8-6.7-8.7-.8-17.4 1.1-27.4 5.9-5.8 2.7-8.6 3.7-9.4 2.9-.7-.7.5-4.2 4.1-11.3 7.7-15.5 10.4-24.5 10.6-35.3.1-8.2-.2-9.4-2.7-13.8-5.3-8.9-14.3-12.7-21.6-8.9-3.1 1.7-4.2 1.8-5 .8-1.6-1.8 3.1-8.2 7.9-10.6 7-3.6 14.9-2.3 21.9 3.6l3.4 2.8-.7-10.1c-1-15.1-3.2-27.2-6.6-36.4-6.6-18.2-15.2-25.9-23.9-21.5-3.4 1.8-5.5 5.2-6.5 10.9-.9 4.6-3 4.5-3.4-.1-.8-8.1 6-21.7 12.2-24.5 7.2-3.3 11.4-3.5 19.1-.6zm273.8 1c18.4 3.8 28.1 3.7 38.9-.4 6.6-2.5 6.8-2.5 7.8-.7.9 1.6.4 2.3-3.7 4.6-19.8 11.2-26.9 18.2-30.9 30.5-1.4 4.5-1.8 11.2-2.4 40.4-.7 40.2-.9 41-10 52.2-2.7 3.4-5 6.5-5 6.8 0 1.6 16.9-8.6 21.1-12.7 8.5-8.5 9.1-11.3 10-47.3 1-41 2-45.7 11.6-54.5 6.7-6.1 15.3-10.2 35.5-16.9l15.8-5.3 5.7 2.7c11.4 5.2 16.7 12.8 16.8 24 0 11.2-5.7 20.5-19.9 32.4-4.2 3.5-7.4 6.6-7.2 6.9.3.2 3.8 1 7.9 1.7 12.7 2.2 19.6 6.9 21.8 14.8.8 2.6 1.3 12.7 1.3 27.1l.1 23-8 1.3c-17.1 2.9-34 9.7-47.9 19.3l-7.2 5-8.8-4.5c-20.1-10.1-45.8-11.3-62.7-2.8-7.8 3.9-12.5 8.9-11.6 12.5.3 1.3 1.4 4.4 2.4 7.1 2.1 5.6 1.2 8-3.5 8.5-6.7.7-8.8-9.6-3.8-18.3 1.5-2.5 6.9-9.1 11.9-14.6 12.5-13.7 14.7-17.1 14.7-22.9 0-3.8-.5-5.3-2.6-7.3-5.6-5.6-15-4.2-17.5 2.7-1.7 4.8-4.9 5-4.9.3.1-10.4 9.5-18.7 21.4-18.7h3.9l-.6-6.1c-.6-7.4-3.6-12.2-9.3-14.9-6.9-3.4-14.8-1.9-20.2 3.7-3.9 4.2-6.8 3.9-5.7-.5 2-8 8.2-14.9 15.4-17 2.1-.7 7.3-1.2 11.5-1.2h7.6v-4.8c0-6.1 2.4-17.1 4.6-21.3 2.2-4.4 10.6-12.3 18.8-17.9 3.6-2.5 6.2-4.6 5.6-4.8-.5-.2-3.5.4-6.7 1.3-9.6 2.8-18.5 3-30.7.6-15.1-3-19.2-1.4-22 8.1-.8 2.6-2 4.4-3.1 4.6-1.5.3-1.6-.2-1-4 1.9-12.6 7.1-20 16.6-23.6 7.3-2.8 10.5-2.7 28.2.9zM298.5 350c49.5 10 75 51.4 55.5 90.1-4 7.9-11.8 17.4-23.7 29-18.2 17.5-34.6 27.8-51.5 32.1-6.8 1.7-10.2 2-19.3 1.5-18.5-.9-33.5-7.4-46-20.1-18.7-19-23.1-45.8-12.6-77.1l3.7-11 5.4-2.9c6.3-3.3 46.8-28.8 61-38.3 10.7-7.2 9.3-7 27.5-3.3zm707-.4c38.7 7.3 63.6 32.2 63.8 63.9.1 19.7-7.6 33.9-30.5 56.1-17.6 17-35.5 28-52 31.9-29.4 6.9-62.8-8.3-75.7-34.5-8.9-18.2-9.3-37.6-1.3-61.5l3.7-11 5.5-2.9c6.2-3.3 46.4-28.5 61-38.2 10.5-7.1 9-6.9 25.5-3.8zM258 536.5c12.5 3.9 19.9 4.4 27.2 1.9 2.5-.8 5.4-2.4 6.4-3.5.9-1 2.5-1.9 3.5-1.9 1.7 0 1.9 1.5 2.1 24.2l.3 24.3 5 2.5c6.7 3.4 16.9 3.5 23.8.3l4.7-2.2V556.4l-5.2-3.8-5.2-3.9-4.8 5.2c-3.4 3.7-5.3 5.1-6.5 4.7-1.8-.7-2.8.6 10.6-14.4 4.6-5 8.7-9.2 9.2-9.2s4.6 2.7 9.1 6 8.5 6 8.9 6c.4 0 2.8-2.1 5.3-4.8 3.6-3.8 4.7-4.5 5.7-3.5s.9 1.8-.9 4c-4.9 6.2-7.4 11.5-8.2 17.5-1.2 7.8-1.2 65.4-.1 76.1.6 5.1 1.4 8.4 2.6 9.7 2 2.2 6.5 2.6 8.3.8.9-.9 1.2-.8 1.4.5 0 .9.1 2.1.2 2.7.1.5-3.9 4.1-8.8 8l-8.9 6.9-2.8-1.9c-6.2-4.5-9.9-12-9.9-20 0-2.8-1.2-2.5-4.5 1-3.1 3.2-15 11.7-20 14.3-10.8 5.5-26.9 7.8-39.3 5.7-25.7-4.3-43.1-28.1-40.9-56 1.7-21.2 14-38.6 39.5-55.9 3.5-2.4 6.2-4.4 6-4.6-.2-.2-2.1 0-4.3.6-2.2.5-10.5.9-18.5.9-11.9 0-15.1.3-18 1.7-4.9 2.5-8 9-8 16.5 0 4.5-.3 5.8-1.5 5.8s-1.5-1.6-1.5-8.8c0-10.5 1-14.5 5.3-20.9 3.7-5.6 11.8-10.3 17.8-10.3 2.1 0 8.8 1.6 14.9 3.5zm589.3-2.1c.4 1.1-1.7 2.7-7.1 5.6-8.6 4.6-14.5 9.8-17.2 15-3.2 6.3-4 14.6-4 43 0 31.2-.4 34-6.9 43.7-2.2 3.2-3.8 5.9-3.6 6.1.2.2 1.6-.4 3.2-1.4 9.8-6.2 17.5-14.8 19.4-21.7.7-2.4 1.5-16.6 1.8-33.7.8-32.9 1.1-34.3 7.9-41.3 5-5.2 9.8-7.9 22.5-12.7 5.9-2.2 10.9-4 11.1-4 .2 0 .6.7 1 1.5.4 1.1-1.5 2.4-7.2 5-4.2 2-9.2 5-11 6.8-5.8 5.5-6.6 7.9-7 22.2-.6 20.2-2.3 19.8 17.2 4.2l17-13.6 3 1.7c5.1 2.9 17.3 15.5 19 19.7 2.4 5.6 3.9 23.8 3.1 38-1 18.5-3.8 22.9-26.6 41.8-10.8 8.9-13.4 12-12.7 15.3.2 1.5 1.4 2 5.5 2.2 5.6.3 7.8 2 6.8 5.2-1.3 4.1-8.4 5.6-12.9 2.7-3.4-2.2-4.9-8-3.4-12.8.6-2.1 5.6-9.7 11.1-17.1 10.7-14.3 13.4-19 14.3-26.1l.7-4.5-6.8-2.1c-17.2-5.3-34.4-.7-52.5 14-8.2 6.7-9.5 8.3-5.8 7.4 1.3-.3 8.9-.1 16.9.4 16.8 1.2 19.7.7 25-4.5 2.7-2.7 4.1-3.4 5.3-2.7 1.3.7.2 2.8-7 12.8-4.7 6.6-9.1 12.6-9.8 13.3-1 1-3.2.6-11.7-2.2-18.5-6.2-35.5-6.7-49.2-1.6-9.8 3.7-12.1 8.2-8.6 16.8 1.6 3.8.5 6.5-2.9 7-2.8.4-5.2-3.4-5.2-8.4 0-4.8 2.5-8.9 11-18.1 8.4-9 10.7-12.3 12.1-17.5 1.1-4 1-4.9-.4-7.2-2.7-4-7.8-3.6-11.4.9-3.8 4.7-6.4 4.8-5.3 0 1.7-7.7 8.7-14.4 14.9-14.5 2.3 0 2.4-.2 1.8-5.6-1-9.6-5.3-13.7-14.4-13.7-5.2 0-5.9.3-9.1 3.7-4 4.4-6.5 4.3-5.3-.2 2.7-9.4 10.4-14.2 23-14.2h5.3l-.5-3.3c-1.5-10.2 4.1-23.7 13.7-32.3 3.2-3 5.7-5.4 5.4-5.4-.4 0-3.3.7-6.6 1.5-5.3 1.4-6.9 1.4-15.3 0-14-2.2-16.3-2.1-19.2 1.5-1.4 1.6-2.8 4.3-3.2 6-.4 2-1.3 3-2.6 3-1.6 0-1.8-.5-1.2-3.3 2.4-12.3 12.8-21.7 23.9-21.7 2.5 0 8.2.9 12.7 2.1 10.6 2.7 18.7 2.7 26.8 0 3.5-1.2 7.1-2.6 7.9-3.1 2.1-1.3 2.7-1.2 3.3.4zm-356.8 6c12.9 5.3 22.7 6.9 31.7 5.5 3.9-.6 6.5-.6 7.1 0 .6.6-4.8 5.2-14.9 12.7l-15.9 11.8 6.4 1.3c28.8 5.9 40.2 30.8 25.8 56.5-13.6 24.3-52.5 41.5-80 35.4-15.4-3.4-30.9-14.2-36.6-25.3-3.5-6.9-5.4-16.9-4.7-24.9 1.2-14.9 6.9-26.3 19.4-38.7 9.8-9.8 47.4-39.7 49.2-39.2.8.2 6.5 2.4 12.5 4.9zm165.6 1.1c10.6 3.6 19.3 6.5 19.5 6.5.1 0 1.4-2 2.8-4.5 2.5-4.3 5.6-6 5.6-3.2 0 .7-4.3 8.7-9.6 17.8-5.3 9-10 17.2-10.5 18.1-.9 1.6-.2 1.7 9.8 1.2 28.7-1.6 49.3 12.1 49.3 32.8 0 18.4-13.3 33.7-44.2 50.6l-7.6 4.2-12.1-4.1-12-4.1-8.9 3.6c-4.9 1.9-12.9 4.5-17.8 5.7-21.2 5-36.9-1-36.9-14.2 0-6.1 3.7-10.9 11.2-14.6 5.5-2.6 6.5-2.8 18.9-2.8l13.1.1 3.1-5.7c1.8-3.2 3.2-5.9 3.2-6.1 0-.2-5.7-.3-12.8-.4-18.6-.1-27.2-3.7-32.3-13.6-5.1-9.9.8-23 12.1-27 2.5-.8 3-1.5 3-4.2 0-1.7 1.6-6.5 3.6-10.6 3-6.4 5.4-9.3 16-19.8 6.8-6.7 12.8-12.2 13.3-12.2s9.6 2.9 20.2 6.5zm395.2-3.4c30.1 7.6 49.3 30.1 47.4 55.4-1.1 14.2-7.3 25.2-23.7 41.6-29.1 29.2-57.6 36.9-84.9 22.8-27.3-14.2-36.4-45.8-22.6-79.6 1.4-3.5 2.9-4.8 9.8-8.9 9.1-5.2 37.2-23 47.5-30 6.6-4.4 6.8-4.5 12.7-3.9 3.3.3 9.5 1.5 13.8 2.6zm227.5-.3c.4 2.9-3.8 12-7.2 15.4-4.8 4.7-9.3 6.2-20.3 6.6l-10.3.4V648.9l3.8-1.3c11.7-4.2 22.2-12.2 28.4-21.8 3.2-4.9 5.8-6.2 5.8-3 0 2.9-7.4 16.8-11.9 22.1-5.6 6.6-15.8 13.3-25.6 16.7-7.2 2.5-9.4 2.8-21 2.8-19.8 0-33.2-4.6-44.7-15.3-23.8-22-22.2-57.9 3.5-83.3 3.3-3.2 7.9-7.2 10.3-9 5.4-3.8 4.5-4.8-4.6-4.8-7.3 0-14.4 1.9-20.4 5.4-5.4 3.2-7 5-10.9 12.9-2.2 4.5-3.6 6.4-4.5 5.8-.9-.6-.8-1.9.4-6.2 5.2-17.3 16.6-27.7 34.7-31.6 8.6-1.8 14.9-1.4 43.2 2.7 36.6 5.2 39.8 5.1 45.7-2 3.6-4.3 5.1-4.6 5.6-1.2zM453.7 692c8.2 4.1 13.6 10.3 18.9 21.5l4.5 9.3 22.7-15.2c12.5-8.4 23.9-16.1 25.4-17l2.7-1.8 4.7 7.2c2.5 4 6.7 11.7 9.3 17.1l4.7 9.9 25.4-17 25.5-17 1.7 2.3c4 5.2 11.3 18.5 14.4 26.1 16 39.5 2.5 74-46.7 119.7L556 847.2l-4.1-3.7c-5.6-5.1-10.2-6.8-18.1-6.7-7.8 0-15.3 2-26 6.9l-7.7 3.6-3.8-3.3c-4.8-4.3-9.1-6-16.8-6.7-8.7-.8-17.4 1.1-27.4 5.9-11.4 5.4-11.9 4.6-5.4-8.5 7.7-15.3 10.5-24.4 10.6-35.2.2-8.2 0-9.4-2.6-13.8-5.2-8.9-14.3-12.7-21.5-8.9-6.6 3.4-7.6-.3-1.8-6.6 2.8-3.2 8-5.2 13-5.2 4.5 0 11.3 2.7 13.5 5.3 2.8 3.5 3.4 1.9 2.7-7.6-1.6-21.2-6.1-38.3-12.9-48.9-4-6.4-6.9-8.7-11.8-9.4-5.7-.8-9.6 2.4-11.6 9.6-2.1 7.6-3.9 7.3-3.6-.7.1-4.4.9-7.7 2.9-11.8 6-12.2 17.4-15.8 30.1-9.5zm271.7.1c18.2 3.8 27 3.7 38.4-.3 6.9-2.5 7.3-2.5 8.2-.8.8 1.6-.4 2.6-9.3 7.8-15.1 8.9-21.6 15.9-25.3 27.3-1.4 4.5-1.8 11.2-2.4 40.4-.7 40.2-.9 41-10 52.2-2.7 3.4-5 6.5-5 6.8 0 1.6 16.8-8.5 21-12.7 8.6-8.5 9.2-11.2 10.1-47.3 1-40.9 2-45.8 11.8-54.8 6.2-5.8 14-9.5 35.1-16.8l15.5-5.3 6 2.8c11.7 5.3 16.9 12.8 17 24.1 0 11.3-5.4 20-19.8 32.2-8 6.8-8 6.8-5.1 7.4 19.3 4.3 24.1 6.9 27 14.6 1.6 4.1 1.8 8 1.9 28.2v23.5l-8 1.3c-17.1 2.9-34 9.7-48 19.4l-7.2 5-7.5-4.1c-23.5-12.7-57.4-11.7-72 2.1-4.4 4.1-4.6 5.8-1.7 12.3 1.1 2.6 1.9 5.6 1.7 6.8-.8 5.4-8.1 4.8-10.4-.8-3-7.1.2-13.5 14.7-29.4 12.2-13.5 13.9-16.2 13.9-22-.1-6.3-4.4-11-10.3-11-5 0-10.6 4.3-10.7 8.2 0 1.1-.8 1.8-2 1.8-4.5 0-1.1-12.3 4.9-17.3 3.6-3 8.8-4.7 14.5-4.7h3.9l-.6-6c-.3-3.5-1.4-7.4-2.6-9.4-2.5-4-9.2-7.6-14.2-7.6-4.6.1-11.4 3.3-13.4 6.4-1.7 2.6-3.9 3.4-4.9 1.8-1.4-2.3 2-9.9 6.3-14.2 5.5-5.4 10-7 20.5-7h7.6v-4.2c0-6.5 2.1-16.9 4.2-21.2 2.6-5.1 9.5-11.9 18.7-18.4 7.8-5.4 7.7-6.2-.5-3.7-8.9 2.7-17.8 2.9-30.6.6-10.3-1.9-12.1-2-15-.8-4.2 1.8-5.7 3.6-7.3 8.9-.7 2.6-1.9 4.4-2.9 4.6-1.5.3-1.7-.2-1-4.5 1.9-13.2 7-19.9 18.3-23.9 5.5-2 10-1.7 26.5 1.7zm-437.1-.1c24.6 3.6 39.9 10.4 53.7 24 12.7 12.5 18.2 24.8 18.3 41 .2 19.6-7.3 33.9-28.9 55.3-16.9 16.7-35.8 28.6-52 32.7-22.8 5.9-48.8-1.3-65.4-18-19.2-19.2-23.6-44.6-13.3-76.9 3.1-9.8 4-11.6 6.6-13 9.7-5.3 47.7-29 64.9-40.6 4.6-3 8.4-5.5 8.6-5.5.2 0 3.6.5 7.5 1zm711.5.5c23.6 3.6 38.7 10.7 52.3 24.5 11.9 12.1 17.3 25.2 17.2 41.5-.1 18.9-8.3 33.7-31 55.5-17.2 16.6-33.6 26.7-50.4 31.1-7.1 1.8-10.1 2.1-19.4 1.6-18.5-.9-33.4-7.4-46.1-20.1-19-19-23.3-47.1-12.1-78.7l3.3-9.4 6.9-3.9c7.8-4.3 48.6-29.9 61-38.3 4.4-2.9 8.1-5.3 8.2-5.3.2 0 4.7.7 10.1 1.5zM256.9 880.1c16 5.2 26.1 5 33.8-.7 1.7-1.3 4.1-2.4 5.2-2.4 2.1 0 2.1.4 2.1 24.6v24.5l4.8 2.1c6.8 3.1 17.1 3.1 23.5 0l4.7-2.4v-25.4l-5.2-3.8-5.2-3.9-4.7 5.1c-2.6 2.9-5.2 5.2-5.8 5.2-2.9 0-1.1-2.9 8.3-13.3l10.4-11.6 9.2 6.6 9.1 6.6 5-4.9c3.8-3.7 5.2-4.5 6.1-3.6.9.9.7 1.8-1 3.9-4.8 6.3-7.4 11.7-8.3 17.6-1.1 7.7-1.1 65.4 0 76 .6 5.1 1.4 8.4 2.6 9.7 2 2.2 6.5 2.6 8.3.8.9-.9 1.2-.8 1.4.5 0 .9.1 2.1.2 2.6.1.6-3.9 4.1-8.8 8l-8.9 7-3.9-3.1c-5.4-4.2-6.7-6.5-8-13.9-.6-3.5-1.3-6.6-1.4-6.8-.2-.2-2.9 1.9-6.1 4.6-19.2 16.5-38.6 22.3-59.4 17.9-32.9-7-48.7-45.6-32.1-78.3 5.6-10.9 19.1-24.5 33.6-33.7 3.2-2 5.6-3.9 5.4-4.1-.2-.2-2.1 0-4.3.6-2.2.5-10.5.9-18.5.9-17.3 0-20.2.9-23.8 8-1.8 3.5-2.2 5.8-2 10.3.3 4.9 0 5.7-1.4 5.7-1.6 0-1.8-1.1-1.8-9 0-14.9 4.6-24.1 14.4-28.6 6.8-3.1 11-3 22.5.7zm590.5-1.6c.4 1.1-1.4 2.5-6.6 5.1-9 4.5-15.9 11-18.9 17.7-2.2 5-2.3 6.5-2.9 38.7l-.5 33.5-2.6 5.5c-1.5 3-3.8 7-5.3 8.9-1.4 1.9-2.4 3.6-2.2 3.9.9.9 12.6-8 16.5-12.5 6.9-8.1 7.2-10 8-43.8.6-27.3.9-30.4 2.7-34.5 2.5-5.4 8-10.9 14.4-14.4 3.8-2.1 23-9.6 24.4-9.6.2 0 .6.7 1 1.5.4 1.1-1.5 2.4-7.2 5-4.2 2-9.2 5-11 6.8-5.8 5.5-6.6 7.9-7 22.2-.6 20.2-2.3 19.8 17.2 4.2l17-13.6 2.9 1.7c5.7 3.3 16.5 14.1 18.7 18.8 4.6 9.8 5 47.7.6 56.2-2.7 5.3-10.4 13.2-22.6 23.4-11.8 9.9-14.5 13-13.8 16.4.3 1.5 1.4 2 5.8 2.2 7.1.4 9.1 3.1 5 7.2-3 3-9.4 2.7-12.4-.5-5.7-6.2-4-11.8 8.6-28.6 10.8-14.3 13.5-19.1 14.4-26.2l.6-4.5-6.6-2.2c-4.5-1.5-8.9-2.1-13.8-2.1-14.9.2-25.7 5.1-43.4 19.8l-3.9 3.3h4.5c2.5 0 10.2.5 17.2 1 14.8 1.1 17.7.5 22.9-4.6 2.7-2.6 4.1-3.4 5.2-2.8 1.3.7-.2 3.4-8 14.2-7 9.9-10 13.2-11.2 12.9-.9-.3-5.6-1.9-10.4-3.6-17.4-6-36.5-6.3-49.1-.7-9.1 4-10.9 8-7.5 16.4 1.6 3.8.5 6.5-2.9 7-2.8.4-5.2-3.4-5.2-8.4 0-4.8 2.5-8.9 11-18.1 8.4-9 10.7-12.3 12.1-17.5 1.1-4 1-4.9-.4-7.2-2.7-4-7.8-3.6-11.4.9-3.4 4.2-5.3 4.5-5.3.7.1-6.4 8.5-15.1 14.8-15.2 1.9 0 2.2-.5 2.2-3.9 0-7.8-3.8-13.4-10.2-15.2-5.6-1.5-10.1-.2-14.2 3.9-4.4 4.3-6 3.4-4.1-2.3 2.7-7.8 11.1-12.5 22.4-12.5h5v-6.3c0-3.5.3-7.7.7-9.3 1.5-6.4 6.4-14.2 12.4-19.7 3.4-3.1 5.9-5.7 5.6-5.7-.3 0-3.1.7-6.2 1.5-5 1.3-6.8 1.3-15.5 0-5.5-.8-11.4-1.5-13.2-1.5-4.2 0-7.3 2.8-8.8 8-.8 2.8-1.8 4-3 4-4.1 0 1-12.9 7.3-18.6 7.7-6.9 14.1-7.9 28.1-4.3 4.5 1.2 10.9 2.1 14.2 2.1 5.6-.1 17.1-3 20.5-5.2 2.1-1.3 2.7-1.2 3.4.5zM489 883.7c5.2 2.2 11.7 4.5 14.3 5.2 5.4 1.3 16.4 1.6 21.9.6 2.1-.4 3.8-.3 4.2.4.4.5-6.4 6.2-15.1 12.7l-15.8 11.7 6.9 1.4c13.4 2.7 24.1 10.5 28.9 21.1 1.7 3.6 2.2 6.7 2.2 13.2 0 10.1-1.2 14.5-6.2 22.8-12.6 20.8-40.4 35.5-67.3 35.6-12.4 0-20.9-2.2-30.9-8.1-11.3-6.7-18.3-16.1-21.6-28.8-1.9-7.4-1.9-13 0-22 2.4-11.3 6.6-18.5 16.9-29.1 10.7-11 48.4-41.6 50.6-41 .8.2 5.8 2.2 11 4.3zm167.7 1.7l19.2 6.4 2.6-4.4c2.5-4.2 5.5-5.9 5.5-3.1 0 .7-4.1 8.3-9.1 16.8-5 8.4-9.7 16.5-10.4 17.9l-1.3 2.5h13.7c14.3 0 19 1 29.1 6 5.9 3 13.2 10.9 15.4 16.7 2.8 7.1 1.9 17.6-1.9 25.3-5.9 11.7-18.9 23.1-39.2 34.3l-9.1 5.1-12.1-4-12.1-4.1-8.8 3.5c-14.6 5.7-20.8 7.1-31.8 7.2-9.5 0-10.3-.2-14.9-3-12.2-7.6-10.6-20.8 3.4-27.4 5.2-2.4 6.6-2.6 18.7-2.6l13.1.1 3.1-5.7c1.8-3.2 3.2-6 3.2-6.2 0-.2-4.2-.2-9.2 0-22.8 1.2-37.8-7.7-37.8-22.4 0-7.5 7.5-17.1 14.8-19 1.7-.4 2.2-1.2 2.2-3.7 0-1.7 1.6-6.5 3.6-10.6 3-6.4 5.4-9.3 16-19.8 6.8-6.7 13-12.2 13.7-12.2.7 0 9.9 2.9 20.4 6.4zm394.8-3.3c19.1 4.7 34.6 16 41.9 30.5 8.4 16.7 7.1 33.3-3.9 49.9-5 7.5-20.9 23.6-29.9 30.2-7.8 5.8-18.6 11.4-26.6 13.7-30.6 9.1-63.4-9.5-70.6-40.1-2.9-12.1-.9-29.4 5.1-44 1.4-3.5 2.9-4.8 9.8-8.9 9.1-5.2 37.2-23 47.5-30 6.6-4.4 6.8-4.5 12.7-3.9 3.3.3 9.6 1.5 14 2.6zm227.3-.7c.6 2.9-2.8 10.6-6.5 14.7-4.9 5.4-12.1 7.9-22.8 7.9h-8.5v88.9l3.8-1.3c11.7-4.2 22.2-12.2 28.4-21.8 3.2-4.8 5.8-6.2 5.8-3.1 0 1-1.9 5.5-4.2 10.1-11.9 24.1-39 36.3-68.4 30.7-14.5-2.7-23.4-7.3-32.4-16.4-11.3-11.4-15.8-23.6-14.7-40.1 1.2-18 10.7-34.7 27.1-47.6 4.3-3.4 7.1-6.3 6.6-6.8s-4.8-.7-9.7-.4c-15 .7-24 6.2-29.6 17.8-2.2 4.8-3.6 6.7-4.5 6.1-.9-.6-.9-1.9.4-6.2 5.2-17.4 16.6-27.7 34.7-31.6 8.7-1.8 16.1-1.3 43.7 2.7 35.8 5.2 39.4 5 45.2-2 3.4-4.1 5.1-4.6 5.6-1.6zm-825 154.7c8 4 13.9 10.6 18.8 21.3 2.1 4.7 4.2 8.6 4.7 8.6.4 0 11.4-7.1 24.5-15.8 13-8.7 24.3-16.2 24.9-16.6 1.7-.9 9.1 10.5 15.2 23.5l4.7 9.9 25.4-17 25.5-17 1.7 2.3c4 5.2 11.3 18.5 14.4 26.1 8.2 20.2 8.5 38.9.9 57.5s-18.1 32.9-40.9 55.4l-17 16.7-2.5-2.3c-11.9-10.9-24.6-10.9-48.4-.3l-5.8 2.6-4.1-3.4c-5.2-4.5-11.5-6.6-19.7-6.6-8.8.1-13.9 1.3-24 6.1-5.7 2.6-8.8 3.6-9.5 2.9-.6-.6.7-4.4 4.2-11.2 9-18.1 12.8-34.1 10.3-43.4-2.3-8.5-10.8-16.4-17.6-16.4-1.4 0-4.2.7-6.2 1.5-4.8 2-6.8 1.4-5.2-1.7 3.2-6.2 9.2-9.8 16.3-9.8 4.5 0 11.3 2.7 13.5 5.3 2.8 3.5 3.4 1.9 2.7-7.6-1.6-22.1-6.1-38.8-13.2-49.5-9-13.6-21.1-12-23.8 3.1-.4 2.3-1.2 3.7-1.9 3.4-1.9-.6-2-5.7-.2-12.2 4.5-16.6 17.5-22.8 32.3-15.4zm271.8 0c17.8 3.7 26.7 3.6 38.1-.4 7-2.5 7.3-2.5 8.3-.7.9 1.6.1 2.4-6.5 6-16 8.8-24 16.9-27.7 28-1.9 6-2.2 9.5-2.8 41.5-.8 40.2-.9 41-10 52.2-2.8 3.5-4.5 6.3-3.8 6.3 2.8 0 15.7-8.1 20.1-12.6 8.4-8.4 8.9-11.1 9.8-46.9 1-40.9 2-45.8 11.8-54.8 6.2-5.8 14.5-9.8 34.7-16.7l14.9-5.2 5.3 1.8c6.3 2.1 13.4 8 16.5 13.8 3.3 6.2 3 16.4-.6 23.4-3.3 6.6-9 13.2-18.1 20.8-7.7 6.6-8 6 4.4 8.3 8.9 1.7 15.7 6.1 18.3 12 1.8 4 2.1 7.4 2.5 28.3l.5 23.7-2.4.5c-1.3.2-5.3 1-8.9 1.6-17.3 3.1-34.8 10.9-50.7 22.6-2.1 1.5-2.5 1.4-7.1-1.4-23.2-14.2-62.9-13.2-75.7 2-3 3.6-3.1 5.7-.4 10.9 3.5 6.9 1.3 12-4.5 10.5-3.5-.9-6-6.4-5-11 1.2-5.8 4.1-10 15.3-22.5 12.7-14 14.1-16.3 14.1-22.3-.1-6.7-4.4-10.8-11.4-10.8-3.9 0-9.6 4.8-9.6 8.1 0 1.2-.7 1.9-2 1.9-4.2 0-1.2-11.8 4.1-16.7 3.5-3.2 9.2-5.3 14.5-5.3h4.7l-.6-6c-.6-7.4-3.6-12.4-8.8-15-7.1-3.7-16.7-1.9-21.1 4-3.9 5.3-6.3 3.7-4.6-3 1.5-5.7 8.9-13.4 14.4-14.9 2.2-.6 7.4-1.1 11.7-1.1h7.7v-4.2c0-6.5 2.1-16.9 4.2-21.2 2.6-5.1 9.6-12 18.7-18.4 4.1-2.9 6.9-5.2 6.3-5.2-.6 0-4.8.9-9.4 2-10.4 2.5-13.7 2.5-27.6-.1-15.6-2.8-19.8-1.3-22.6 8.3-.8 2.6-2 4.4-3 4.6-1.5.3-1.7-.2-1-4.5 1.7-11.8 5.6-17.8 14.5-22.2 7.9-4 11.5-4 30.5 0zm-436.9 0c31.6 4.3 55.1 18.7 65.8 40.5 4.3 8.7 6.9 21.3 6 29.4-2 18.3-10 31.6-31.2 52-16.3 15.8-30.8 25-47.3 30.2-6.3 1.9-9.6 2.3-20 2.2-10.8 0-13.6-.4-20.5-2.7-32.2-10.7-49.8-38.9-45.6-73.2.8-5.9 2.8-14.5 4.9-21l3.7-10.9 7-3.9c7.7-4.4 48.4-29.9 61-38.4 4.4-2.9 8.1-5.3 8.2-5.3.1 0 3.7.5 8 1.1zm708.6-.1c25 3.6 40.1 10.5 54.2 24.5 12.4 12.3 17.9 25.3 17.8 42-.1 18.4-8.1 33.2-29.5 54.1-12.4 12.2-22.2 19.5-34.3 25.5-23.5 11.6-44.2 11.9-66.5.7-10.3-5.2-21.9-16.2-26.7-25.3-9.8-18.9-10.7-39.8-2.5-63.9l3.7-11 10.5-6.1c10.6-6.1 46.7-28.9 58.9-37.1 3.6-2.4 6.7-4.4 6.9-4.4.2 0 3.6.5 7.5 1z"/><path d="M495 28c-13.5 9-16.5 11.4-16.4 13.3.1 1.2.8 6.2 1.5 11.1l1.3 8.9 6.6 3.1c6 2.9 7.3 3.1 17.5 3.1 10.3 0 11.4-.2 17.7-3.2 7.8-3.7 7.6-2.5 3.1-18.3-2.3-8.2-11.9-28-13.8-28.7-.6-.2-8.4 4.7-17.5 10.7zM565.5 27.1c-8.2 5.5-15.6 10.3-16.3 10.8-1.1.6-1.1 2.2.2 8.7.9 4.3 1.7 9.4 1.8 11.2.3 3.1.8 3.6 7.3 6.4 6.1 2.7 8.2 3.1 16 3.1 7 .1 10.3-.4 14.6-2.1 9.6-3.8 9.4-3.5 7.5-13-2.3-11.3-12.2-34.1-15.1-34.8-.5-.1-7.7 4.2-16 9.7z"/><path d="M521.5 69.2c-11.7 4.9-22.3 4.8-34.4-.4-2.4-1-4.6-1.7-4.8-1.4-.2.2-.8 4.4-1.3 9.2-.5 4.9-1.8 12.2-2.8 16.1-1 4-1.5 7.3-1 7.3.4 0 3.1-.9 6-2 11.2-4.4 23.3-3.6 34.9 2.2 7.2 3.6 7.1 3.7 9.5-6.7 1.8-8 3.1-27.6 1.8-27.4-.5.1-4 1.4-7.9 3.1zM551.6 71.7c-1.1 8.2-2.8 15.6-4.8 20.7-1 2.7-1.6 5.1-1.3 5.4.2.3 2.2 0 4.2-.6 13.6-3.8 23.5-2.2 40.5 6.6.9.4 4.2-10.4 6.2-20.2 1.7-8.2 2.1-16.6.8-16.6-.5 0-3.5.9-6.8 2.1-11.3 3.9-20.2 3.5-36.1-1.6-2-.6-2.2-.3-2.7 4.2z"/><path d="M490.5 100.6c-1.1.3-5.1 1.6-9 3l-7 2.5-6.6 13.7c-3.7 7.5-8.6 16.6-11.1 20.2-2.4 3.6-4.8 7.1-5.2 7.8-.4.7 1.8 0 5.1-1.6 16.9-8.5 27.9-11.4 42.4-11.4h10.7l4.5-8.2c4.5-8 9-17.6 8.5-18.1-.2-.2-3.4-2-7.2-4.1-6.2-3.4-7.8-3.8-15-4-4.5-.2-9-.1-10.1.2zM548 102.1c-6 1.9-6.8 2.5-9.2 6.7-4.1 7.4-13.8 19.9-22.7 29.4-4.5 4.7-8.1 8.9-8.1 9.2 0 .3 3.5-1.1 7.8-3.2 21-10.5 37-13.5 50.1-9.6 3 .8 5.7 1.2 6.1.7 2.9-3.2 9.3-13 12.6-19 4.5-8.3 4.7-7.9-5.6-13-7.5-3.8-21.3-4.3-31-1.2zM787.7 14.3c-7.5 4.1-10.5 7.1-13.1 12.7-1.9 4.2-2 7.1-2.6 39.5l-.5 35-2.8 5.7c-3.7 7.5-7.3 10.6-26 22.4l-4.7 3 13.7-.4c10.1-.3 16.1 0 22.4 1.2 4.7.9 8.9 1.6 9.2 1.6.4 0 .7-19.6.7-43.5 0-42.8 0-43.5 2-43.5 1.9 0 2 .7 2 13.5 0 7.4.4 13.5.9 13.5 1.6 0 13.1-8.9 17.7-13.7 16-16.8 13.1-37.8-6.5-47.8-2.8-1.4-5.4-2.5-5.8-2.5-.4 0-3.4 1.5-6.6 3.3z"/><path d="M795.7 75.2l-7.8 5.1.3 5c.3 4.9.4 5 4.3 6.4 5.2 1.8 15.9 1.9 22.4.2l5.2-1.3-.6-4.1c-1-6.1-3.6-9.7-9.5-13.3-3-1.7-5.7-3.2-6-3.1-.3 0-4 2.3-8.3 5.1zM788 104.5c0 8.8.2 9.7 1.8 9 5.3-2.1 13.6-2.8 20.1-1.7 3.7.6 7.5 1.4 8.4 1.8 1.5.5 1.7-.5 1.7-9.1v-9.7l-2.7.6c-1.6.3-5.2 1-8 1.5-4.9.9-9.4.5-18.5-1.5l-2.8-.6v9.7zM792.3 116.7l-4.3 1.5V136.9l4.4 2.6 4.3 2.5 5.9-2.6c3.2-1.5 8.4-3.4 11.4-4.3l5.5-1.7.3-7.6.3-7.6-5.5-1.6c-6.7-2-16.7-1.9-22.3.1zM257.8 60.7c-.3 33.8-.5 38.1-2.1 41-.9 1.8-6.6 8-12.5 13.8L232.5 126l3 2.6c4.6 3.9 13.6 8.9 19.1 10.7 7 2.4 17.5 3.7 18 2.3.2-.6.3-27.4.2-59.6l-.3-58.5-7.2-.3-7.2-.3-.3 37.8zM277 38.1c0 15.9-.7 14.4 9 20.2 7.4 4.5 13.5 6 21.8 5.5 7.8-.4 17.8-4.7 22.4-9.5l2.7-2.8-3.7-4.4c-7.5-9-25-18.1-41.4-21.5C276 23.2 277 22 277 38.1zM231 41.3c-6.4 5.2-9.7 9.2-13.2 16.2-7.7 15.2-7.8 33.7-.1 48.9 2.9 5.8 10.4 16.5 11.6 16.6 1.8 0 6.6-9.5 7.2-14.4.3-2.8.5-20.1.3-38.5l-.3-33.4-5.5 4.6z"/><path d="M329 60.6c-8.7 5.9-14.7 7.8-24.6 7.7-8.7 0-16.1-2.5-23-7.8-1.8-1.4-3.5-2.5-3.8-2.5-.3 0-.6 8.3-.6 18.5s.4 18.5.8 18.5c.5 0 2.1-1.3 3.6-2.9 1.5-1.5 5.3-4.1 8.4-5.7 4.8-2.4 7.2-3 14.7-3.2 10.9-.4 17.4 1.6 26.4 8.4 3.2 2.4 6.1 4.4 6.4 4.4.3 0 1.1-3.1 1.7-6.8 1.7-9.3.9-23.5-1.6-28.9l-1.9-4.1-6.5 4.4z"/><path d="M294.2 89.1c-3.1 1.2-7.7 4.3-11.2 7.6l-6 5.5v40.6l4.3-.5c22.1-2.5 41.6-16.2 51.7-36.3l2.9-5.7-4.7-3.5c-6.8-5-9.1-6.3-14.6-8.1-6.7-2.3-15.8-2.1-22.4.4zM966.8 60.7c-.3 33.8-.5 38.1-2.1 41-.9 1.8-6.6 8-12.5 13.8L941.5 126l3 2.6c4.6 3.9 13.6 8.9 19.1 10.7 5.3 1.8 17.1 3.7 17.9 2.9.3-.3.5-27 .5-59.3V24.2l-2.2-.6c-1.3-.3-4.6-.6-7.5-.6h-5.2l-.3 37.7zM986 37.9v13.9l3.9 3.1c6.5 5.2 14.7 8.4 22.7 8.9 9.1.6 15.3-1.4 23.4-7.4l6.1-4.5-3.5-4.1c-9.8-11.4-27-19.6-48.8-23.3l-3.8-.6v14z"/><path d="M939.1 42c-18.2 15.7-23.4 42.5-12.4 64.4 2.7 5.5 10.4 16.5 11.5 16.6.3 0 2-2.1 3.6-4.6 4.1-6.1 4.4-9 4-48.4l-.3-33.4-6.4 5.4zM1040 59.6c-6 4.4-12.5 7.2-19.5 8.5-11.4 2-21.1-.7-32.2-8.7l-2.3-1.6v18.6c0 10.2.2 18.6.4 18.6s2.6-1.8 5.2-4c7-5.8 13.7-8 23.7-8 9.8.1 16.9 2.6 25.1 8.9 2.9 2.3 5.5 4.1 5.8 4.1 1.3 0 3-15.7 2.5-22.8-.6-7.8-2.6-15.3-4.3-15.9-.5-.2-2.5.8-4.4 2.3z"/><path d="M1005.5 88.3c-6 2-8.5 3.5-14.2 9l-5.3 5v40.5l4.3-.5c8-.9 16-3.3 23.1-7 9.5-4.9 22.7-18.1 27.6-27.6l3.5-6.8-4-3.6c-6.5-5.8-15.6-9.6-23.9-10-4.1-.1-8.8.3-11.1 1zM291.3 200.2c-5.7 6.2-5.7 6.7-6.3 42.8-.5 32.9-.5 33.6-2.9 37.6-2 3.5-8.7 9.9-19 18.2l-2.5 1.9 6.9 3.4c6.1 3 8 3.4 16.7 3.7l9.8.4v-55.1c0-30.3-.1-55.1-.3-55.1-.2 0-1.3 1-2.4 2.2z"/><path d="M274.5 208.3c-9.5 6.2-19.1 15.4-23 22.1-12.4 21.3-10.8 50.4 3.5 64.1l3.1 3 2-2.5c6.1-7.8 6.2-8.3 7-39.3.8-33 .9-33.1 11-45.5 2.8-3.5 4.9-6.5 4.7-6.7-.2-.2-4 1.9-8.3 4.8zM298 253.1c0 9.2.2 10.1 1.8 9.4 3.3-1.3 12.6-3.5 14.7-3.5 2.1 0 11.4 2.2 14.8 3.5 1.5.7 1.7-.2 1.7-9.4 0-11.2 0-11.3-6.6-8.5-4.9 2.1-15.7 2.1-20.6 0-2.1-.9-4.2-1.6-4.8-1.6-.6 0-1 3.8-1 10.1z"/><path d="M302.8 265.2l-4.8 2.1v39.5l4.9-1.3c6.9-1.8 14.9-5.6 22-10.5l6.2-4.1-.3-12.1-.3-12-5-1.9c-6.8-2.6-16.5-2.5-22.7.3zM861.5 238c-13.3 10.6-13.9 12.3-5.5 15.2 3 1.1 9 2.2 13.2 2.5 6.4.5 9 .2 14.8-1.7 4-1.3 7.4-2.9 7.7-3.5.7-2-2.1-7.8-5.8-12-3.1-3.5-11.4-9.6-12.8-9.4-.4 0-5.5 4-11.6 8.9z"/><path d="M850 266.5v11.3l6.3-2c8.6-2.9 22.1-2.8 29.9 0 3.1 1.1 5.9 1.8 6.2 1.5.9-.9.7-22.3-.2-22.3-.4 0-3.3.9-6.5 2-7.5 2.7-19.8 2.7-29 .1l-6.7-2v11.4zM462.7 206.7c-.9.8-.9 41.3 0 41.3s40.2-29.4 40.3-30.1c0-.3-4.6-1.8-10.2-3.4-5.7-1.6-14.1-4.1-18.7-5.7-8.9-2.9-10.3-3.2-11.4-2.1zM438.6 227.7c-2.7 3.2-6.5 9.1-8.4 13.2-3.4 7-3.6 8.3-4 19-.5 13.1 1.3 20.4 7 29.4l3.1 4.8 2.9-2.8c1.5-1.5 3.3-4.3 3.9-6.3.6-2.1.9-15 .7-33.3l-.3-29.8-4.9 5.8zM487 242.6c-1.4.3-4.2.9-6.3 1.5l-3.8 1 .3 10.7.3 10.7 6.9 3.5c6.4 3.3 7.5 3.5 16 3.4 8 0 9.9-.4 15.8-3.1l6.7-3.1-1.5-4.6c-3-8.8-13.5-17.6-22.9-19.1-6.9-1.1-8.9-1.3-11.5-.9zM467.3 250l-5.3 3v10.8c-.1 6.1-.6 11.8-1.3 13.3-.9 2-12.6 12.6-21.6 19.6-1.6 1.2 13 12 19.6 14.6 2.4.9 6.8 2 9.8 2.3l5.5.7v-33.7c0-18.5-.3-33.6-.7-33.6-.5 0-3.2 1.4-6 3z"/><path d="M477 280.5c0 5.2.2 9.5.5 9.5.2 0 3.8-1.1 7.9-2.5 9.5-3.2 16.9-3.2 26.1-.1 3.9 1.4 7.1 2.3 7.3 2.2 2-2 5.4-18.6 3.8-18.6-.2 0-3 1.2-6.2 2.7-5.2 2.5-7.1 2.8-16.4 2.8-9.3 0-11.2-.3-16.4-2.8-3.2-1.5-6-2.7-6.2-2.7-.2 0-.4 4.3-.4 9.5z"/><path d="M492 289.2c-3 .5-7.5 1.8-10 3.1l-4.5 2.2-.3 9.7-.3 9.8h3.5c5.4 0 15.8-3.6 22.2-7.9 6.5-4.3 15.1-12.6 13.7-13.4-4.2-2.6-17.5-4.5-24.3-3.5zM625.6 207c-6.6 2-12.1 10-11.3 16.2.7 5.5 3.2 8.7 8.4 11 4.1 1.8 5.9 1.9 17.7 1.4 19.1-1 17.8-.5 23.1-9.8 2.5-4.5 4.4-8.3 4.2-8.4-.2-.2-4.5-2.2-9.5-4.4-15-6.5-24.9-8.3-32.6-6zM600.2 242.2c-2.8 3.1-4.1 6.8-3.5 10.1.7 3.5 6.2 8.3 11 9.7 5.7 1.6 17.9 2.2 26.7 1.3l8-.8 3.3-5.5c1.8-3 3.3-5.7 3.3-6 0-.3-7.8-.5-17.2-.5-19.3 0-22.2-.8-26.3-7.3-2.4-3.8-2.6-3.8-5.3-1zM658.2 248.9c-4.1.6-4.6 1-8 7l-3.5 6.4 5.9-.6c25.5-2.7 34-1.9 40.5 4 7.6 6.9 7.1 16.3-1.2 23.8-2.2 1.9-8.2 5.7-13.4 8.2-5.2 2.6-9.5 5-9.5 5.4 0 .4 4 1.7 9 2.9l8.9 2.2 4.9-3.5c12.5-9.3 18.5-18.8 18.5-29.7 0-11.7-7.6-21.1-20.1-25-6.5-2-21.6-2.5-32-1.1z"/><path d="M653.1 276.6c-8.4.7-15.5 1.5-15.6 1.6-1.9 2.5-7.4 13.1-7.1 13.7.3.4 3 1.3 6.1 2 3.1.7 10.1 2.8 15.5 4.6l10 3.4 6.7-3.7c8.5-4.7 14.3-10.4 14.3-14.2 0-4.2-.9-5.9-4.1-7.5-3.2-1.7-5-1.7-25.8.1zM595.1 306.1c-6 4.2-5.9 9.4.1 12.5 4 2.1 17.9 2.4 24.8.5 8.5-2.4 20.2-7.3 19.3-8.2-2.1-2.1-20.4-6.1-30.3-6.6-9.9-.5-10.7-.4-13.9 1.8zM1013.7 207.7c-.4.3-.7 14.1-.7 30.5 0 24.6-.3 30.5-1.5 33.6-.9 2-5.6 7.8-10.6 12.8l-9 9 4.3 3c8.8 6.2 15.1 8.8 24.6 10l5.2.7v-99.1l-2.2-.6c-3.1-.8-9.3-.8-10.1.1zM1029 219.8v12l6.1 4c12.7 8.3 26.7 7.5 38.3-2.2l2.8-2.4-3.8-4.2c-8-8.8-23.3-16.1-39.1-18.5l-4.3-.7v12z"/><path d="M989.3 223.8c-2.8 2.6-6.3 6.5-7.7 8.7-10.4 16.4-8.2 39.4 5.1 55.4l2.9 3.3 2.9-4.2 3-4.3.3-31.9c.2-17.5 0-31.8-.5-31.8-.4 0-3.1 2.2-6 4.8zM1075 237.1c-5.9 4.7-12.4 7.2-20 7.7-9.2.5-14.3-.8-20.9-5.3l-5.1-3.5v32.2l3.7-3.2c11.2-9.9 26.7-10.4 39.9-1.4 3.5 2.4 6.6 4.4 6.8 4.4 1.3 0 2.8-12.4 2.3-18.6-.5-5.7-2.9-14.5-4-14.4-.1 0-1.3 1-2.7 2.1z"/><path d="M1049.5 261.1c-6.1.9-10.9 3.3-15.9 8l-4.6 4.2v33.9l5.7-.7c16.5-2 32.8-13.6 40.7-28.9l2.8-5.5-2.8-2.5c-7.5-6.5-17.5-9.8-25.9-8.5zM495.4 371.6c-13.6 9.3-16.9 12-16.8 13.7.1 1.2.7 6.2 1.4 11.1l1.3 8.8 6.6 3.2c6.1 2.9 7.4 3.1 17.6 3.1 10.3 0 11.4-.2 17.8-3.2 5.4-2.6 6.7-3.7 6.3-5-.2-1-.7-3.4-1.1-5.3-1.7-9.2-8-24.6-14.2-34.7l-2-3.3-16.9 11.6zM564.5 371.6c-8.8 5.8-16.1 10.7-16.3 10.9-.2.1.4 3.7 1.2 7.9.9 4.1 1.6 9 1.6 10.9 0 3.2.4 3.6 5.9 6.1 8.5 3.8 15.9 4.9 23.7 3.7 7-1.1 17.4-5.3 17.4-7.1 0-9.1-12.6-41.6-16.5-42.6-.5-.2-8.2 4.4-17 10.2z"/><path d="M521 413.2c-10.2 4.3-21.1 4.4-31.4.5-3.7-1.5-7.2-2.7-7.6-2.7-.4 0-1 4.2-1.3 9.2-.3 5.1-1.5 12.6-2.5 16.5-1.1 4-1.6 7.3-1.2 7.3.4 0 3.3-.9 6.6-2 12.5-4.4 22.7-3.6 34.6 2.4l6.6 3.4 1.6-5.6c3.1-11.4 5-32.3 2.9-32.1-.5 0-4.2 1.4-8.3 3.1zM551.6 414.3c-.3 2.3-.8 6.2-1.1 8.7-.3 2.5-1.7 7.6-3 11.4-1.3 3.9-2.2 7.2-2 7.5.3.2 2.2-.1 4.2-.7 11.7-3.3 23.4-2.2 34.4 3.4l6.8 3.4 2-6.4c4.2-13.6 6.6-30.6 4.3-30.6-.5 0-3.5.9-6.8 2.1-11.4 3.9-25.9 3.2-35.6-1.7-2.7-1.4-2.7-1.4-3.2 2.9z"/><path d="M557.5 444.1c-2.7.3-7.5 1.3-10.5 2.2-5.1 1.6-5.8 2.2-8.9 7.5-4.5 7.6-14.2 19.9-23 29.3-3.9 4.2-7.1 8-7.1 8.3 0 .3 3.5-1.1 7.8-3.2 20.8-10.4 37.1-13.6 49.8-9.7 2.7.8 5.2 1.5 5.5 1.5 1.6 0 16.9-24.4 16.9-26.8 0-.6-2.9-2.7-6.4-4.7-7-3.9-15.3-5.4-24.1-4.4zM486.2 445.5c-10.4 2.9-11.8 4.1-16.6 14.8-3.8 8.3-10.2 19.6-17 30l-1.9 2.8 7.9-3.6c19.2-8.9 26.3-10.7 40.5-10.7h10.6l3.5-6.1c4.3-7.4 8.3-15.4 9.2-18.4.6-1.9-.3-2.6-7.5-6.2-7.5-3.8-8.8-4.1-15.8-4-4.2 0-10 .7-12.9 1.4zM787.6 358.3c-7.3 3.9-12.2 8.8-13.7 13.6-.7 2.2-1.4 17-1.8 38.6-.6 33-.7 35.3-2.8 39.6-2.9 6.5-8.7 12-20.9 19.8l-10.4 6.7 14.4-.4c10.7-.3 16.3 0 22.3 1.2 4.4.9 8.3 1.6 8.6 1.6.4 0 .7-19.6.7-43.5 0-42.8 0-43.5 2-43.5 1.9 0 2 .7 2 13.5 0 7.4.3 13.5.6 13.5 1.6 0 12-7.8 16.8-12.6 6.8-6.8 10.9-14.8 11.4-22.3.6-7.8-1.1-13-5.8-18.4-4-4.5-13.4-10.7-16.1-10.7-.8 0-4.1 1.5-7.3 3.3z"/><path d="M796 418.9l-7.5 4.8v10.7l4.5 1.4c5.8 1.7 16.3 1.7 22-.1 4.4-1.3 4.5-1.4 4.2-5.3-.5-5.7-3.1-9.5-9.2-13.2-3-1.7-5.7-3.2-6-3.1-.3 0-3.9 2.2-8 4.8zM788 448.5c0 9.5 0 9.6 2.3 8.9 8.7-2.8 15.7-3.1 23.7-.9 3 .8 5.6 1.5 5.8 1.5.1 0 .2-4.3.2-9.6v-9.7l-3.2.8c-10.5 2.4-15.3 2.3-26-.1l-2.8-.6v9.7zM792.3 460.7l-4.3 1.5v18.6l4.4 2.6 4.4 2.6 6.3-2.9c3.5-1.5 8.8-3.6 11.7-4.5l5.2-1.8v-14.7l-5.4-1.5c-6.7-2-16.7-1.9-22.3.1zM258 402c0 23.6-.4 36.7-1.2 39.8-1 4-2.9 6.5-12.7 16.5l-11.6 11.9 3 2.4c8.1 6.7 19.3 11.7 28.5 12.9 2.5.4 5.5.8 6.8 1.1l2.2.4-.2-59.7-.3-59.8-7.2-.3-7.3-.3V402zM277 381.8v14l3.3 2.8c1.7 1.5 6.1 4.1 9.7 5.8 5.8 2.8 7.5 3.1 15.5 3.1 7.6 0 9.8-.4 14.5-2.6 3-1.5 7.3-4.2 9.5-6.1l4-3.5-6.5-6.4c-10.2-10-27.9-18.1-44.7-20.4l-5.3-.7v14z"/><path d="M228.2 387.7c-10.8 10.5-16.2 23.1-16.2 37.6 0 9 2 17.7 5.7 25.1 3.4 6.8 10.5 16.6 11.8 16.2.6-.1 2.4-2.4 4-5.1l3-4.8.3-37.9c.2-24.1 0-37.8-.7-37.8-.5 0-4.1 3-7.9 6.7zM331.5 402.8c-16.7 12.2-35.2 12.8-50.2 1.6-1.7-1.3-3.4-2.4-3.7-2.4-.3 0-.6 8.3-.6 18.5s.4 18.5.8 18.5c.5 0 2.1-1.3 3.6-2.9 1.5-1.5 5.3-4.1 8.4-5.7 4.8-2.4 7.2-3 14.7-3.2 10.9-.4 17.4 1.6 26.4 8.4 3.2 2.4 6.1 4.4 6.4 4.4.2 0 1-2.7 1.7-5.9 1.8-8.4.9-24.4-1.6-29.9l-1.9-4.3-4 2.9z"/><path d="M295.7 432.4c-5.1 1.9-10.7 5.6-15.1 10.3l-3.6 3.8v40.4l3.8-.5c14.7-2.1 23.6-5.6 33.1-13.3 7.8-6.2 14.2-13.9 18.5-22l3.5-6.7-3.7-2.9c-5.2-4.3-8.7-6.3-14.5-8.5-6.1-2.3-16.3-2.6-22-.6zM967 402c0 23.6-.4 36.7-1.2 39.8-1 4-2.9 6.5-12.7 16.5l-11.6 11.9 3.5 2.9c8 6.6 22 12.3 32.5 13.1l4 .3v-119l-7.2-.3-7.3-.3V402zM986 382.2v14.3l4.9 3.3c2.6 1.8 7.6 4.5 11.1 5.9 11.8 4.7 26.3 2 36.4-6.9l4-3.5-6.5-6.4c-10.1-10-27.8-18.1-44.6-20.4l-5.3-.7v14.4zM936.8 388.2C926 398.9 921 410.7 921 425.5c0 9.2 1.8 17.2 5.6 24.8 2.8 5.5 10.5 16.6 11.5 16.7 1.3 0 6.1-8 7-11.7 1.2-5.3 1.2-74.3-.1-74.3-.5 0-4.2 3.3-8.2 7.2z"/><path d="M1040.5 402.8c-16.7 12.3-35.2 12.8-50.3 1.5-1.8-1.4-3.5-2.3-3.8-2-.2.2-.3 8.6-.2 18.7l.3 18.3 4.2-3.6c7.5-6.2 12.7-8.2 22.8-8.5 10.9-.4 17.4 1.6 26.4 8.4 3.2 2.4 6.1 4.4 6.4 4.4.3 0 1.1-3.1 1.8-6.9 1.6-9.1.8-23.3-1.7-28.9l-1.9-4.3-4 2.9z"/><path d="M1004.7 432.4c-5.1 1.9-10.7 5.6-15.1 10.3l-3.6 3.8v40.3l4.3-.5c8-.9 16-3.3 23.1-7 9.6-5 22.7-18.1 27.8-27.9l3.7-7-4.7-3.5c-2.6-2-5.8-4.2-7.2-5.1-7.6-4.6-20.5-6.1-28.3-3.4zM291.3 543.7c-5.9 8.1-5.7 7.1-6.3 43.3-.4 28.5-.8 33.9-2.2 36.5-1.6 3.1-9.9 11.3-17.8 17.6l-4.4 3.6 6.9 3.4c6.1 3 8 3.4 16.7 3.7l9.8.4v-55.6c0-30.6-.1-55.6-.3-55.6-.2 0-1.2 1.2-2.4 2.7z"/><path d="M275 551.7c-21.6 14.1-31.9 31.6-32 53.8 0 13.3 3.8 24 11.5 32.8l3.3 3.8 2.5-3.3c6.5-8.7 6.8-10.4 7.6-43.3l.6-27.2 3.9-5.9c2.1-3.2 5.7-8.1 7.9-10.7 2.2-2.6 3.8-4.9 3.6-5.2-.2-.2-4.2 2.2-8.9 5.2zM297.6 586.7c-1 1-.7 19.1.3 19.7.5.3 2.8-.1 5.2-1 5.7-2.1 17.1-2.1 22.8 0 2.4.9 4.5 1.6 4.7 1.6.2 0 .4-4.7.4-10.5s-.2-10.5-.4-10.5-2.5.9-5.1 2c-6.1 2.6-15.8 2.7-22.4.1-2.7-1.1-5.2-1.7-5.5-1.4z"/><path d="M309.5 606.9c-2.2.4-5.8 1.6-8 2.6-4.6 2.3-4.1-.8-3.7 27.4l.2 13.9 4.9-1.3c6.9-1.8 14.9-5.6 22-10.5l6.2-4.1-.3-12.1-.3-12-4.5-1.8c-5.7-2.2-11.4-2.9-16.5-2.1zM861.5 582c-13.5 10.8-14 12.4-5 15.4 9 2.9 23.3 2.8 30.3-.3 2.8-1.3 5.2-2.8 5.2-3.3 0-2.2-3-7.8-6.1-11.3-3.1-3.5-11.4-9.6-12.8-9.4-.4 0-5.5 4-11.6 8.9z"/><path d="M850 610.2c0 10.9 0 11 2.3 10.5 15.8-4.1 20.5-4.5 29.2-2.1 11.7 3.2 10.5 4.2 10.5-8.5 0-6.1-.2-11.1-.3-11.1-.2 0-3 .9-6.2 2-7.7 2.6-19.7 2.7-28.8.1l-6.7-2v11.1zM462.7 549.7c-.9.8-.9 42.3 0 42.3s40.2-29.4 40.3-30.1c0-.4-4.2-1.8-9.4-3.3-5.1-1.5-14-4.2-19.7-6.1-11.9-4-10.4-3.7-11.2-2.8zM439.3 570.7c-10.9 13-13.8 21.2-13.1 37.9.4 11.5 2.1 17.2 7.7 25.7l2.4 3.8 2.9-2.8c1.6-1.5 3.3-4.3 3.9-6.3.6-2.1.9-15 .7-33.4l-.3-29.8-4.2 4.9zM483 587.3l-5.5 1.2v22l6.9 3.5c6.4 3.3 7.5 3.5 16 3.4 8 0 9.9-.4 15.8-3.1l6.7-3.1-1.5-4.6c-4.8-13.9-22.3-22.7-38.4-19.3zM467.3 594l-5.3 3v10.4c0 5.7-.5 11.6-1.1 13.2-.6 1.8-5.2 6.3-11.4 11.4-5.7 4.7-10.4 8.8-10.4 9.2-.1 1.2 11.1 9.8 15.8 12.3 4.5 2.2 13.2 4.5 17.1 4.5 1.9 0 2-.9 2-33.5 0-18.4-.3-33.5-.7-33.5-.5 0-3.2 1.4-6 3z"/><path d="M477 624.4c0 5.3.2 9.6.5 9.6.2 0 3.8-1.1 7.9-2.5 10.8-3.6 19.8-3.1 31.7 1.9 1.3.6 2.1-.5 3.8-5.5 1.8-5.5 2.8-12.9 1.7-12.9-.2 0-3 1.2-6.2 2.6-8.8 4-19.6 4.4-28.9 1.2-3.8-1.4-7.8-2.8-8.7-3.2-1.6-.7-1.8 0-1.8 8.8z"/><path d="M492.3 633.1c-2.9.4-7.4 1.7-10 3l-4.8 2.4-.3 9.7-.3 9.8h3.8c4.9 0 16.1-4 22.1-7.9 2.6-1.6 6.9-5.3 9.6-8l4.9-5-2.7-1.1c-7.4-2.8-15.7-3.9-22.3-2.9zM623.4 552c-11.1 5.5-12.4 19.7-2.4 25.5 3 1.7 5.1 2 15.5 1.8 6.6-.1 14.3-.4 17.2-.8l5.2-.6 4.3-7.7c2.4-4.2 4.4-7.9 4.6-8.3.4-1-17.4-8.6-24.3-10.3-8.2-2.2-15.1-2-20.1.4zM600.2 586.2c-6.8 7.3-3.6 15.8 7.2 19.5 3.9 1.3 8.1 1.7 18.2 1.6 7.2 0 14-.4 15.2-.7 1.7-.6 8.2-9.9 8.2-11.8 0-.2-7.8-.4-17.2-.3-19.3 0-22.2-.8-26.3-7.3-2.4-3.8-2.6-3.8-5.3-1zM658.2 592.9c-4.1.6-4.6 1-7.9 6.9l-3.5 6.2 8.9-.7c4.8-.5 13.5-.8 19.3-.8 9.6 0 10.9.2 15.2 2.7 3.2 1.9 5.2 4.1 6.7 7.1 2.6 5.3 2.6 7 .2 12.2-2.5 5.6-7.7 9.8-18.7 15.3-5.2 2.5-9.4 4.9-9.4 5.2 0 .3 3.9 1.5 8.6 2.8l8.7 2.3 3.9-2.6c17.5-11.6 24.5-28 17.7-41.6-2.9-5.8-10.3-11.6-17.7-13.9-6.5-2-21.6-2.5-32-1.1z"/><path d="M653.1 620.6c-8.4.7-15.5 1.5-15.6 1.6-2 2.6-7.4 13.2-7 13.7.2.5 1.9 1.1 3.7 1.5 1.8.3 8.9 2.3 15.7 4.3l12.4 3.7 6.2-3.3c13.8-7.1 18.8-17.3 10.5-21.6-3.3-1.7-5.1-1.7-25.9.1zM595.2 650c-3.5 2.2-5.2 5.3-4.4 8.3 1.3 5.1 12.3 7.5 24.5 5.4 8-1.4 24.7-7.2 24.7-8.5 0-.4-2.8-1.5-6.2-2.5-18.5-5.2-32.8-6.2-38.6-2.7zM1013 581.5c0 25.3-.3 31.2-1.5 34.3-.9 2-5.7 7.8-10.6 12.8l-9.1 9.1 6.1 4.1c7.4 4.9 14.7 7.8 22.4 8.7l5.7.7v-49.5c0-55.6.8-50.7-8.1-50.7h-4.9v30.5zM1029 563.8v11.9l3.8 2.6c11 7.6 22.3 9.2 32.2 4.5 3-1.5 6.8-3.8 8.5-5.2l3-2.5-6-5.8c-8.8-8.5-21.7-14.3-37.2-16.8l-4.3-.7v12z"/><path d="M989.3 567.8c-17.8 16.3-19.2 41-3.6 62.4l3.5 4.8 2.5-3c1.4-1.7 2.9-4.7 3.4-6.8 1-4.5 1.2-62.2.2-62.2-.5 0-3.1 2.2-6 4.8zM1073.5 582c-6.1 4.5-13.7 7-20.9 7-7.5 0-11.3-1.2-18.3-5.6l-5.3-3.4v32.2l3.7-3.2c6-5.3 11.8-7.4 20.3-7.5 8.8 0 14.8 2 21.2 7 2.4 1.9 4.6 3.5 5 3.5 1.5 0 3-11.8 2.4-18.8-.5-6-2.7-14.3-3.8-14.2-.2.1-2.1 1.4-4.3 3z"/><path d="M1048.3 605.1c-5.6 1-9.7 3.3-14.9 8.1l-4.4 4.1v16.8c0 19.2-.8 17.8 9.1 15.9 14.5-2.7 30.1-14.6 36.9-27.9l3.2-6.4-2.9-2.4c-4-3.4-14.1-8-18.8-8.6-2.2-.2-5.9-.1-8.2.4zM1192.4 560.2c-8.2 8.7-11.4 13.9-14.9 24.2-4.8 14.3-3.2 31.1 4.2 42.9 3 4.9 11.2 13.7 12.8 13.7 1.6 0 7.6-6.1 8.6-8.8.5-1.3.9-19.6.9-40.8V553h-2.4c-1.6 0-4.5 2.2-9.2 7.2z"/><path d="M1221.8 588.6c-.4 37.6.6 34.3-14 46.9l-9.8 8.4 4.8 2.1c9 4.1 19.9 5.7 29.6 4.4l4.6-.7v-90.5l-2.2-.5c-1.3-.3-4.6-.9-7.5-1.3l-5.2-.6-.3 31.8zM495.4 715.6c-13.7 9.3-16.9 11.9-16.8 13.7.1 1.2.8 6.2 1.5 11.1l1.3 8.9 6.6 3.1c6 2.9 7.3 3.1 17.5 3.1 10.3 0 11.4-.2 17.8-3.2 5.4-2.6 6.7-3.6 6.4-5-.3-1-.8-3.4-1.2-5.3-1.7-9.2-8-24.6-14.2-34.7l-2-3.3-16.9 11.6zM564.6 715.5c-8.8 5.8-16.2 10.7-16.4 10.9-.2.2.4 3.8 1.2 8 .9 4.1 1.6 9 1.6 10.9 0 3.2.4 3.6 6 6.1 8.2 3.7 16.6 4.9 24.2 3.6 6.9-1.3 16.8-5.4 16.8-7 0-2.5-3.2-16.2-4.6-19.7-3.7-9.3-10.8-23.3-11.8-23.3-.6 0-8.3 4.8-17 10.5z"/><path d="M522.3 756.6c-6.4 3.1-16 4.7-22.2 3.8-2.5-.4-7.5-1.7-11-3-3.5-1.4-6.6-2.2-6.9-1.9-.3.2-.8 4.4-1.3 9.2-.5 4.8-1.7 12.1-2.7 16-1.1 4-1.9 7.3-1.7 7.3.1 0 2.8-.9 6.1-2.1 12.6-4.4 25.1-3.4 36.7 2.9 4.1 2.2 5 2.4 5.7 1.1 1.9-2.9 4.2-15.7 4.7-25.7.7-11.7.8-11.5-7.4-7.6zM551.5 758.9c-1.2 9.4-2.7 16.6-4.6 21.4-1.1 2.7-1.8 5.1-1.6 5.3.2.2 3.5-.3 7.3-1.1 12.1-2.6 20.5-1.5 31.5 4l6.6 3.3 2.2-6.7c3-9.3 5.1-19.7 5.1-25.8v-5.2l-6.7 2.6c-9.6 3.7-22.8 3.7-32.5.1l-6.7-2.5-.6 4.6z"/><path d="M558 787.7c-1.9.2-6.4 1.3-10 2.3-6.4 1.9-6.6 2.1-10.9 9-5.3 8.7-13.8 19.5-22.8 29.1-7.4 7.8-6.9 8.2 3.9 2.8 17.8-9 35.4-12.1 47.4-8.4 2.7.8 5.2 1.5 5.5 1.5 1.6 0 16.9-24.4 16.9-26.9 0-1.4-9.5-6.9-14-8-4.7-1.2-11.7-1.8-16-1.4zM486.3 789.5c-6.6 1.8-13.3 5.2-13.3 6.7 0 2.1-10.8 23.3-15.7 30.8-2.7 4.1-5.3 8.1-5.7 8.8-.4.7 2.3-.2 6.1-2.1 16.1-8 27.9-11.2 41.9-11l10 .1 4.7-8.2c2.5-4.4 5.5-10.3 6.7-13 2.4-5.6 2.5-5.5-7-10.3-4.5-2.2-7-2.8-14-3-5.2-.2-10.5.3-13.7 1.2zM787.6 702.3c-7.3 3.9-12.2 8.8-13.7 13.6-.7 2.2-1.4 17-1.8 38.6-.7 39.5-.8 40.2-8.9 48.3-3.2 3.2-15.3 11.7-23.7 16.7-1.1.7 3.1.9 13.7.7 11.5-.3 17 0 22.1 1.2 3.8.9 7.2 1.6 7.8 1.6.5 0 .9-17.1.9-43.5 0-42.8 0-43.5 2-43.5 1.9 0 2 .7 2 13.5 0 7.4.2 13.5.6 13.5 1.5 0 12.5-8.4 17.1-13 6.5-6.5 10.3-14 11-21.7.7-7.9-.9-13.1-5.7-18.6-4-4.5-13.4-10.7-16.1-10.7-.8 0-4.1 1.5-7.3 3.3z"/><path d="M795.7 763.1l-7.8 5.1.3 5.1c.3 5.1.4 5.2 4.3 6.3 5.2 1.6 17.9 1.6 23 0 3.9-1.2 4-1.3 3.7-5.2-.5-5.7-3.1-9.5-9.2-13.2-3-1.7-5.7-3.2-6-3.2-.3 0-4 2.3-8.3 5.1zM788 792v9.2l3.3-.6c8.4-1.6 17.4-1.8 23-.3l5.7 1.5v-19.1l-3.2.7c-11.1 2.4-15.5 2.4-25.5.1l-3.3-.8v9.3zM792.3 804.7l-4.3 1.5v18.6l4.6 2.6 4.6 2.6 4.6-2.4c2.6-1.3 7.7-3.3 11.5-4.5l6.7-2.3v-14.7l-5.2-1.6c-6.4-1.9-16.9-1.8-22.5.2zM257.8 748.7c-.2 29.5-.6 38.3-1.7 40.3-.7 1.4-6.3 7.6-12.5 13.8l-11.1 11.3 3.5 2.9c8.3 7 23.6 12.9 33.3 13h3.7V711h-14.9l-.3 37.7zM277 725.8v14l3.9 3.1c2.2 1.7 6.6 4.4 9.8 5.9 5 2.3 7.1 2.7 14.8 2.7 7.8 0 9.8-.4 14.6-2.7 3-1.5 7.3-4.3 9.4-6.1l4-3.4-6.5-6.4c-10.2-10-27.9-18.1-44.7-20.4l-5.3-.7v14zM228.2 731.7c-10.8 10.5-16.2 23.1-16.2 37.6 0 13.6 5.1 27.5 13.8 37.6l3.8 4.4 2.8-4.1c1.5-2.2 3.2-5.8 3.7-7.9 1.2-5.1 1.2-74.3 0-74.3-.5 0-4.1 3-7.9 6.7z"/><path d="M331.5 746.8c-16.7 12.2-35.3 12.8-50.3 1.5-1.8-1.4-3.5-2.3-3.8-2-.2.2-.3 8.6-.2 18.7l.3 18.2 5-4.1c6.8-5.7 14.1-8.2 23.3-8.2 10.7 0 18.1 2.7 26.8 9.8 2.3 1.8 4.4 3.3 4.7 3.3.3 0 1.1-3.1 1.7-6.8 1.7-9.3.9-23.5-1.6-29l-1.9-4.3-4 2.9z"/><path d="M295.6 776.4c-5 1.9-12.4 7-15.9 11.2l-2.7 3.2.2 19.9.3 19.9 8.4-1.2c13-1.9 23.4-7.4 34.1-18.3 5.6-5.7 9.7-11 12.2-15.6l3.7-7-3.8-3.2c-2.1-1.8-6.7-4.7-10.2-6.5-5.4-2.8-7.6-3.3-14.4-3.5-5.1-.2-9.4.2-11.9 1.1zM967 746c0 23.6-.4 36.7-1.2 39.8-1 4-2.9 6.5-12.7 16.5l-11.6 11.9 3.5 2.9c6.1 5.1 18.8 10.8 27.5 12.3 4.4.7 8.3 1 8.8.7.4-.4.6-27.2.5-59.7l-.3-58.9-7.2-.3-7.3-.3V746zM986 725.8v14l3.9 3.1c2.2 1.7 6.6 4.4 9.8 5.9 5 2.3 7.1 2.7 14.8 2.7 7.8 0 9.8-.4 14.6-2.7 3-1.5 7.3-4.3 9.4-6.1l3.8-3.3-6.4-6.5c-10-10-27.7-18.1-44.6-20.4l-5.3-.7v14zM936.8 732.2C926 742.9 921 754.7 921 769.3c0 9 2 17.7 5.7 25.1 2.7 5.4 10.4 16.5 11.4 16.6 1.3 0 6.1-8 7-11.7 1.2-5.3 1.2-74.3-.1-74.3-.5 0-4.2 3.3-8.2 7.2z"/><path d="M1041 746.5c-16.4 12.4-35.8 13.1-50.8 1.8-1.8-1.4-3.5-2.3-3.8-2-.2.2-.3 8.6-.2 18.5l.3 18.1 5-3.9c7.3-5.8 13.9-8 23.8-8 9.8.1 16.9 2.6 25.1 8.9 2.9 2.3 5.5 4.1 5.9 4.1.3 0 1.1-3.1 1.8-6.9 1.6-9.1.8-23.3-1.7-28.9l-1.9-4.3-3.5 2.6z"/><path d="M1006 775.9c-5.6 1.8-11.4 5.5-15.6 9.8l-4.4 4.7v40.2l7.3-.9c13.9-1.7 26.3-8.3 37.1-19.8 3.9-4.2 8.8-10.7 10.8-14.5l3.7-6.9-3.8-3.2c-2.1-1.8-6.7-4.7-10.2-6.5-5.5-2.8-7.6-3.3-14.4-3.5-4.4-.1-9.1.1-10.5.6zM291.3 887.7c-5.9 8-5.7 7.2-6.3 43.3-.4 28.6-.7 33.9-2.1 36.5-1.7 3.1-10 11.3-17.8 17.5l-4.4 3.6 6.8 3.4c6.1 3.1 7.8 3.5 16.6 3.8l9.9.4v-55.6c0-30.6-.1-55.6-.3-55.6-.2 0-1.2 1.2-2.4 2.7z"/><path d="M275 895.7c-21.6 14.3-31.9 31.6-32 53.8 0 13.5 4.5 25.8 12 33l3.1 3 2-2.5c6.4-8.1 7.8-17.3 7.9-50.5 0-20.7.3-21.6 9.2-33 5.5-7.1 7.2-9.5 6.6-9.5-.2.1-4.1 2.6-8.8 5.7zM298 940.5c0 5.8.2 10.5.4 10.5s2.1-.7 4.2-1.7c5.2-2.2 18.5-2.2 23.6.1 2.1.9 4 1.6 4.3 1.6.3 0 .5-4.7.5-10.5s-.2-10.5-.4-10.5-2.5.9-5.1 2c-6.2 2.7-15.8 2.7-22.5 0l-5-2v10.5z"/><path d="M309 950.9c-1.9.4-5.2 1.5-7.2 2.4l-3.8 1.6v40l5.3-1.5c7.6-2.2 14.7-5.6 21.6-10.4l6.2-4.1-.3-12.2-.3-12.1-4.6-1.7c-5.8-2.2-12.4-3-16.9-2zM861.5 925.9c-13.5 10.9-14.1 12.5-5 15.5 9 2.9 23.3 2.8 30.3-.3 2.8-1.3 5.2-2.8 5.2-3.3 0-2.1-3-7.7-6-11.2-3.3-3.7-11.2-9.7-12.7-9.5-.4 0-5.7 4-11.8 8.8z"/><path d="M850 954c0 6 .2 11 .3 11 .2 0 3.9-.9 8.2-2 9.4-2.4 15.2-2.5 22.5-.5 3 .8 7 1.8 8.8 2.1l3.2.7v-11.2c0-6.1-.3-11.1-.7-11.1-.5 0-3.7.9-7.1 2-4.1 1.3-9.2 2-14.2 2s-10.1-.7-14.2-2c-3.4-1.1-6.4-2-6.5-2-.2 0-.3 4.9-.3 11zM462.7 893.6c-.9.9-.9 42.4 0 42.4s39-28.7 39.8-30c.3-.5-1.4-1.4-3.7-2-3.9-1-31.1-9.4-34.1-10.6-.7-.2-1.6-.1-2 .2zM439.3 914.7c-10.9 13-13.8 21.2-13.1 37.9.4 11.5 2.1 17.2 7.7 25.7l2.4 3.8 2.9-2.8c1.6-1.5 3.3-4.3 3.9-6.3.6-2.1.9-15 .7-33.4l-.3-29.8-4.2 4.9zM483 931.3l-5.5 1.2v22l6.6 3.3c11 5.6 22.9 5.3 35.1-.9l3.7-1.9-1.5-4.5c-3.2-9.4-13.3-17.4-24.4-19.5-6.2-1.2-6.8-1.2-14 .3zM467.8 937.6l-5.8 3.6v10.3c0 5.7-.4 11.5-.9 12.8-.9 2.2-5.9 7-18.6 17.5l-4 3.3 5 4.4c6.9 6.1 14.8 10.1 22.8 11.6 3.7.7 6.9 1 7.2.7.3-.3.4-15.6.3-34.1l-.3-33.6-5.7 3.5z"/><path d="M477 968.6c0 10.9-1 10.2 9.2 6.5 9.4-3.4 19.6-2.7 30.9 2.3 1.4.6 2.1-.5 3.8-5.5 1.1-3.5 2.1-7.8 2.1-9.7 0-2.9-.3-3.3-1.7-2.6-7.7 3.3-15.6 5.4-20.9 5.4-6.2 0-18.8-3.2-19.9-5-.3-.6-1.3-1-2.1-1-1.1 0-1.4 1.9-1.4 9.6z"/><path d="M491.3 977c-2.2.5-6.4 1.8-9.2 3.1l-5.1 2.1v19.8h2.8c4.8-.1 11.5-2 18.2-5.3 6.7-3.3 19.7-14.5 18.3-15.7-3.2-3-18.4-5.4-25-4zM623.2 896.1c-10.9 5.4-12.2 19.6-2.2 25.4 3 1.7 5.1 2 15.5 1.8 6.6-.1 14.3-.4 17.2-.8l5.2-.6 4.5-8.1c2.6-4.5 4.5-8.2 4.4-8.3-1.6-1.4-12.7-6.2-19.7-8.5-10.9-3.7-18.7-4-24.9-.9zM599.5 930.7c-3.9 4.2-3.8 10.3.2 14.5 4.4 4.7 11.1 6.2 25.9 6.1 7.3-.1 14.1-.4 15.3-.8 1.6-.5 8.1-9.8 8.1-11.7 0-.2-7.8-.4-17.2-.4-19.3.1-22.2-.7-26.3-7.2-1.1-1.7-2.3-3.1-2.7-3.2-.4 0-1.9 1.2-3.3 2.7zM657.7 936.9c-3.5.5-4.2 1.2-7.4 6.9l-3.5 6.2 8.9-.7c4.8-.5 13.5-.8 19.3-.8 9.3 0 11 .3 14.8 2.5 7.5 4.2 10.5 11.7 7.6 18.9-2.2 5.5-7.7 10.1-19.1 15.9-5.1 2.6-9.3 4.9-9.3 5.2 0 .3 3.9 1.6 8.7 2.8l8.6 2.3 5.4-3.7c6.9-4.7 13.4-12 16.3-18.1 3.5-7.4 3.2-16.5-.7-23.4-3.5-6.2-10-11.1-17.6-13.4-5.1-1.5-24-1.9-32-.6z"/><path d="M652.7 964.5c-8.1.7-14.9 1.4-15.1 1.6-.7.8-7.6 13-7.6 13.4 0 .2 1.9.9 4.3 1.5 2.3.6 9.5 2.7 16.1 4.7l11.8 3.7 6.3-3.3c3.5-1.7 8.1-5.1 10.4-7.4 5.2-5.2 5.7-10.3 1.5-13.6-3.1-2.4-5.2-2.5-27.7-.6zM596.1 993.2c-1.3.7-3.3 2.4-4.3 3.9-1.5 2-1.7 3-.9 5.3 2 5.2 12.3 7.4 24.6 5.2 8.2-1.4 24.5-7.1 24.5-8.5 0-.5-4.6-2.1-10.2-3.6-12.1-3.3-29.7-4.5-33.7-2.3zM1013 925.7c0 36.6.4 34.8-12.4 47.2l-8.7 8.4 2.8 2.3c7 5.8 21.5 11.3 29.6 11.4 1.6 0 1.7-2.8 1.5-49.8l-.3-49.7-6.2-.3-6.3-.3v30.8zM1029 907.8v11.9l3.8 2.6c11 7.6 22.3 9.2 32.2 4.5 3-1.5 6.8-3.8 8.5-5.2l3-2.6-4.8-4.8c-2.6-2.6-7.2-6.3-10.2-8.1-6.4-3.9-19.7-8.6-27.2-9.6l-5.3-.7v12z"/><path d="M988.3 912.7c-9.3 9-13.3 18.3-13.3 31.4 0 10.6 3.3 20 10.7 30.1l3.5 4.8 2.5-3c1.4-1.7 2.9-4.7 3.4-6.8 1.1-4.9 1.2-62.2 0-62.2-.5 0-3.6 2.6-6.8 5.7zM1072.6 926.5c-12.7 9-27.8 8.6-41.3-1.1l-2.3-1.6v32.4l4.2-3.6c11.7-10 28.9-9.9 41.8.4 2.1 1.6 4 3 4.3 3 1.4 0 2.9-12.1 2.4-18.5-.6-6.9-2.5-14.5-3.6-14.5-.3 0-2.8 1.6-5.5 3.5z"/><path d="M1048 948.9c-5.2 1.1-10 3.8-14.7 8.4l-4.3 4.1v33.7l5.8-.7c16.4-2 32.7-13.6 40.4-28.8l3-5.9-2.3-1.9c-5.5-4.4-10.2-6.9-15.6-8.3-6.1-1.6-6.9-1.6-12.3-.6zM1193.5 902.9c-8.3 8.4-13 15.9-16 25.4-4.7 14.9-3.1 31.4 4.2 43 3.2 5.1 11.2 13.7 12.7 13.7 1.7 0 7.7-6 8.7-8.8.5-1.3.9-19.6.9-40.8V897h-2.3c-1.5 0-4.4 2.1-8.2 5.9z"/><path d="M1221.8 932.6c-.3 29.9-.4 32.1-2.3 35.1-1.9 2.9-8.9 9.6-17.9 17l-3.8 3.1 4.8 2.2c7.7 3.4 19.8 5.4 27.7 4.6l6.7-.8v-90.6l-2.2-.5c-1.3-.3-4.6-.9-7.5-1.3l-5.2-.6-.3 31.8zM495.1 1059.6c-16.1 10.9-17.2 11.9-16.7 14.3.3 1.4 1.1 6.4 1.8 11l1.2 8.4 6.6 3.1c6 2.9 7.3 3.1 17.5 3.1 10.3 0 11.4-.2 17.8-3.2 5.4-2.6 6.7-3.6 6.4-5-.3-1-.8-3.4-1.2-5.3-1.9-9.9-7.7-24.5-13.8-34.3l-2.3-3.7-17.3 11.6zM565 1059.1c-8.5 5.6-15.9 10.5-16.3 10.9-.5.4-.1 4.2.7 8.3.9 4.2 1.6 9.1 1.6 11 0 3.2.4 3.6 6 6.1 11.8 5.3 23.8 5.3 35.6.1l5.5-2.4-.6-4.8c-.4-2.7-1.4-7.3-2.2-10.3-2-7.2-12.3-29-13.7-29-.6 0-8.1 4.6-16.6 10.1z"/><path d="M481.5 1099.3c-.2.7-.6 5-.9 9.7-.3 4.7-1.4 11.6-2.5 15.5-1.1 3.8-1.8 7.1-1.7 7.2.2.2 2.9-.6 6.2-1.8 12.6-4.4 25.1-3.4 36.7 2.9 5.8 3.1 5.9 3 8.3-7.3 2-8.6 3.1-27.5 1.7-27.5-.6 0-3.6 1.1-6.6 2.5-11.6 5.1-24.3 5.1-35.5 0-3.7-1.7-5.4-2.1-5.7-1.2zM552 1098.5c0 4.1-2.7 18.2-4.5 23.5-1.4 4.1-2.4 7.5-2.2 7.7.2.1 3.5-.4 7.3-1.2 12.2-2.6 20.5-1.5 31.6 4l6.8 3.4 1.9-6.4c2.9-9.3 5.1-20.7 5.1-26.4v-4.9l-7.2 2.5c-10 3.5-21.4 3.6-31.5.1-4-1.3-7.3-2.4-7.3-2.3z"/><path d="M494.5 1131.7c-4.8.6-13.6 3.3-17.5 5.3-3 1.5-4.1 3-6.3 8.8-3 7.5-11 22-16.3 29.5-1.9 2.6-3.4 4.9-3.4 5.2 0 .3 3-1 6.8-2.8 16.1-8.1 27.8-11.2 41.9-11l10.1.1 5.1-9.2c5.1-9.3 8.5-16.6 7.9-17.1-.2-.2-2.9-1.9-6.1-3.9-6.5-3.8-15.4-5.8-22.2-4.9zM556.5 1131.7c-1.6.2-5.7 1.3-9 2.4-5.9 2-6.1 2.2-12.7 12.2-3.7 5.6-11.2 15.3-16.8 21.4-5.6 6.2-9.6 11.3-9 11.3.6 0 4.2-1.6 8-3.5 19-9.5 37.7-13 49-9 2.3.8 4.6 1.5 5 1.5 2.1 0 17.5-25.3 16.7-27.3-.8-2.2-11.9-7.5-18.1-8.6-6-1.1-7.5-1.1-13.1-.4zM787.1 1046.5c-8 4.3-9.5 5.7-12.3 11.4-2.2 4.4-2.3 5.8-2.8 40.1-.5 33.3-.6 35.8-2.6 40-2.9 6.2-8.5 11.7-19.2 18.6-13.8 9-13.3 8.6-8.8 7.8 7.6-1.1 27.1-.6 34 1 3.7.9 7.1 1.6 7.7 1.6.5 0 .9-17.1.9-43.5 0-42.8 0-43.5 2-43.5 1.9 0 2 .7 2 13.5 0 7.4.3 13.5.6 13.5 1.6 0 13.5-9.4 18.2-14.4 6.3-6.6 9.2-12.7 9.9-20.5.7-7.9-1.1-13.5-6-18.8-4.2-4.6-13-10.3-15.7-10.3-.8 0-4.4 1.6-7.9 3.5z"/><path d="M795.7 1107l-7.8 5 .3 5.2c.3 5.2.4 5.3 4.3 6.4 5.2 1.6 17.9 1.6 23 0 3.9-1.2 4-1.3 3.7-5.1-.4-4.4-2.1-8.2-4.8-10.6-1.6-1.4-9.8-5.9-10.6-5.9-.2 0-3.8 2.3-8.1 5zM788 1136v9.3l3.8-.9c4.9-1.1 18.6-1.1 24 0l4.2.9v-18.5l-3.7.8c-2.1.5-7.6.9-12.3.9-4.7 0-10.2-.4-12.2-.9l-3.8-.8v9.2zM799 1147.1c-2.5.3-6 1.2-7.7 1.9l-3.3 1.2v18.8l4.8 2.4c4.7 2.4 4.8 2.4 8.2.5 1.9-1 7-3 11.3-4.4l7.7-2.7v-14.6l-3.4-1.2c-5.5-1.8-12.8-2.6-17.6-1.9zM258 1090.1c0 23.5-.4 36.6-1.2 39.7-1 4-2.9 6.5-12.7 16.5l-11.6 11.9 3.5 2.9c8.2 6.7 24 12.9 33.3 12.9h3.7v-119h-15v35.1zM277 1069.8v14l3.9 3.1c2.2 1.7 6.6 4.4 9.8 5.9 5 2.3 7.1 2.7 14.8 2.7 7.8 0 9.8-.4 14.6-2.7 3-1.5 7.2-4.2 9.3-6l3.8-3.3-4.2-4.8c-9.6-10.8-28.7-20-46.7-22.3l-5.3-.7v14.1zM229.4 1074.5c-7.6 6.7-11.5 12.7-14.8 22.7-5.9 17.6-1.4 39.1 11.2 53.7l3.8 4.4 2.8-4.1c1.5-2.2 3.2-5.8 3.7-7.9 1-4.6 1.2-74.3.2-74.3-.5 0-3.6 2.5-6.9 5.5z"/><path d="M329.7 1091.9c-8.4 5.8-15.5 8.2-24.4 8.2-8.8.1-15.4-1.9-22.4-6.8-2.8-1.9-5.3-3.3-5.5-3-.3.2-.3 8.6-.2 18.7l.3 18.2 5-4.1c6.8-5.7 14.1-8.2 23.3-8.2 10.7 0 18.1 2.7 26.8 9.8 2.3 1.8 4.4 3.3 4.7 3.3.3 0 1.1-3.1 1.7-6.8 1.7-9.3.9-23.5-1.6-29l-1.9-4.2-5.8 3.9z"/><path d="M295.5 1120.2c-4.8 1.8-12.8 7.4-15.8 11.2l-2.7 3.5.2 19.9.3 19.8 8.4-1.2c13-1.9 23.4-7.4 34.1-18.3 5.8-5.9 9.7-10.9 12.3-15.7l3.7-7.1-4.7-3.7c-8.6-6.7-14.8-9.1-24.3-9.3-4.7-.1-9.8.3-11.5.9zM966.8 1092.2c-.3 34-.5 37.6-2.2 40.8-1 1.9-6.6 8.4-12.5 14.3l-10.6 10.8 3.5 2.9c8.1 6.8 24 13 33.3 13h3.7v-119h-14.9l-.3 37.2zM986 1069.8v14l3.9 3.1c2.2 1.7 6.6 4.4 9.8 5.9 5 2.3 7.1 2.7 14.8 2.7 7.8 0 9.7-.4 14.5-2.7 3-1.5 7.2-4.2 9.3-6l3.9-3.3-4.2-4.8c-9.6-10.8-28.7-20-46.7-22.3l-5.3-.7v14.1z"/><path d="M938.4 1074.5c-11.6 10.3-17.4 23.1-17.4 38.2 0 14 4.2 26 13 37.1l4.1 5.3 2.3-2.8c5.2-6.3 5.1-5.4 5.4-45.6.2-20.7-.1-37.7-.5-37.7s-3.6 2.5-6.9 5.5zM1038.7 1091.9c-8.4 5.8-15.5 8.2-24.4 8.2-8.8.1-15.4-1.9-22.4-6.8-2.8-1.9-5.3-3.3-5.5-3-.3.2-.3 8.6-.2 18.5l.3 18.1 5-3.9c7-5.6 14.2-8.1 23.3-8.1 10.7 0 18.1 2.7 26.8 9.8 2.3 1.8 4.4 3.3 4.7 3.3.3 0 1.1-3.1 1.7-6.8 1.7-9.3.9-23.5-1.6-29l-1.9-4.2-5.8 3.9z"/><path d="M1003.7 1120.5c-5 1.9-12.6 7.5-15.4 11.4-2.2 2.9-2.3 3.9-2.3 22.9v19.9l6.2-.9c9.2-1.2 13.5-2.6 21.3-6.6 9.5-4.9 22.6-18.1 27.7-27.8l3.8-7.1-4.7-3.7c-8.6-6.7-14.8-9.1-24.3-9.3-5.5-.2-9.8.3-12.3 1.2zM1161.2 1c10.7 1.8 21.3 10.4 23.8 19.5 1.5 5.4 1.3 5.4 11.2-1.3 9.1-6.1 13.5-8.4 21.8-11 9.3-2.9 13.6-3.4 21.4-2.3 21.2 3 36.6 21.1 39.5 46.8.6 4.6.9-2.6 1-23L1280 0l-61.7.1c-34.3.1-59.7.5-57.1.9z"/><path d="M1209.3 19.1l-6.3 2.2v28.5l3.4 2.5c6.3 4.9 11.5 7 18.5 7.5 9 .6 16.2-1.6 23.9-7.3l6.1-4.4-1.3-3.9c-3.9-11-12-20.7-20.3-24.3-7.1-3.1-16.4-3.4-24-.8zM67.8 26.3L62 31.5 61.8 61l-.3 29.5-2.7 4.7c-1.5 2.5-7.6 9.2-13.5 14.7L34.5 120l4.5 4.1c9.6 8.6 21.1 14.2 33.4 16.4l3.9.7-.6-36.3c-.4-19.9-.7-47-.7-60.1 0-13.1-.3-23.8-.7-23.8-.5 0-3.4 2.4-6.5 5.3zM1192.8 27.6l-5.8 3.6V127h12V75.5c0-28.3-.1-51.5-.2-51.5-.2 0-2.9 1.7-6 3.6z"/><path d="M1251.9 55.9c-4.7 3.6-12.7 7-19.4 8.2-9.6 1.6-17.3-.2-26.7-6.5l-2.8-1.8v32.1l8.1-4.2c8-4.1 8.2-4.2 18.4-4.2 10.1 0 10.4.1 18.4 4.1l8.1 4.2.7-3.7c1.6-7.8.4-30.1-1.6-30.1-.5 0-1.9.8-3.2 1.9z"/><path d="M1222 84.3c-3 .7-8.4 2.8-12 4.8l-6.5 3.6-.3 17.2-.2 17.3 7.2-.7c9.5-.8 17.6-2.9 23.6-5.9 7.9-4 16-14 20.2-25.1.8-2.1.4-2.7-4.1-5.6-9-5.8-18.5-7.7-27.9-5.6zM69.4 202.6c-4.5 2.9-7.9 7.5-9.5 12.5-1.3 4.3-2.5 40.9-1.3 40.9.5 0 2.4-2.1 4.3-4.5l3.3-4.5h20.1l-.5-17.4c-.6-19.6-1.7-23.3-7.7-27.3-1.9-1.3-3.7-2.3-4-2.3-.4 0-2.5 1.2-4.7 2.6zM110.3 210.6l-7.3 4.6V247h15v-20.5c0-11.3-.1-20.5-.2-20.5-.2 0-3.6 2.1-7.5 4.6zM1192.4 216.2c-11.9 12.6-17.4 25.8-17.4 42 0 9.8 2.1 17.8 6.7 25.1 3 5 11.2 13.7 12.8 13.7.7 0 2.8-1.6 4.8-3.6 2.6-2.6 3.8-4.8 4.2-7.8.3-2.2.5-20.3.3-40.1-.3-35.6-.3-36-2.4-36.3-1.5-.2-4 1.8-9 7zM53.2 213.2c-6.5 6.8-6.6 7.4-7.2 48.8-.7 44.1-.6 43.7-9.8 49.5l-5.6 3.5h5.9c7.2 0 13.6-2.7 16.2-6.6 1.7-2.6 1.8-6.4 2.3-47.4.4-31.8.9-45.3 1.8-47.3 2.1-4.9.9-5.1-3.6-.5z"/><path d="M1221.8 245.3l-.3 32.4-2.8 3.6c-1.5 2-6.6 6.8-11.2 10.7-4.7 3.9-8.5 7.4-8.5 7.8 0 1.3 11 5.2 17.8 6.4 4 .6 9.4.8 13.5.4l6.7-.8v-90.6l-6.3-1.1c-3.5-.6-6.9-1.1-7.5-1.1-.8 0-1.2 9.4-1.4 32.3zM103.2 278.2c.4 19.4.8 21.4 5.4 24.5 2.4 1.6 2.8 1.5 6-.2l3.4-1.8V260h-15.2l.4 18.2zM1208.8 363.2l-5.8 2v28.6l3.4 2.5c6.3 4.9 11.5 7 18.5 7.5 9 .6 16.2-1.6 23.9-7.3l6.1-4.4-1.3-3.9c-2.6-7.3-5.6-12.1-10.8-17.5-9.1-9.3-21.3-12-34-7.5zM67.7 370.3l-5.8 5.2.1 27.3c0 17.3-.4 29-1.1 32-1 4.1-2.8 6.3-13.5 16.9l-12.3 12.2 6.2 5.7c7.2 6.7 17.2 11.7 27.2 13.8 3.8.8 7.1 1.4 7.2 1.2.5-.5-1.1-119.6-1.6-119.6-.3 0-3.2 2.4-6.4 5.3zM1192.3 371.7l-5.3 3.6V471h12v-51.5c0-28.3-.3-51.5-.7-51.4-.5 0-3.2 1.6-6 3.6z"/><path d="M1250.5 400.6c-7.8 5.3-14.8 7.6-23.8 7.7-7.2.1-8.3-.2-15.7-4l-8-4.1V431.9l8.1-4.2c8-4.2 8.2-4.2 18.7-4.2 10.7 0 10.7 0 18.4 4.2l7.7 4.2.8-3.7c1-4.7.7-26-.4-28.8-.8-2.1-.9-2.1-5.8 1.2z"/><path d="M1222.5 428c-5.8 1.2-9.4 2.7-14.7 6.2l-4.8 3v34l7.3-.7c21.7-2 33.3-9.2 41.3-25.7l3.5-7.3-2.3-1.9c-7.2-6-21.3-9.5-30.3-7.6zM69.4 546.6c-4.5 2.9-7.9 7.5-9.5 12.5-1.3 4.3-2.5 40.9-1.3 40.9.5 0 2.4-2.1 4.3-4.5l3.3-4.5h20.1l-.6-17.5c-.6-19.7-1.6-23.2-7.6-27.2-1.9-1.3-3.7-2.3-4-2.3-.4 0-2.5 1.2-4.7 2.6zM110.3 554.6l-7.3 4.6V591h15v-20.5c0-11.3-.1-20.5-.2-20.5-.2 0-3.6 2.1-7.5 4.6zM53.2 557.2c-6.5 6.8-6.6 7.4-7.3 48.8-.4 26-1 38.4-1.8 40.5-1.7 4-4.8 7.3-9.6 9.8l-4 2.2 5 .3c9.9.6 16.5-2.9 18.5-9.9.6-1.9 1-20.4 1-43.4 0-36.8.3-42.8 2.4-49.3 1-3.1-.5-2.7-4.2 1zM103.1 620.7c0 18.5.8 22.4 5.2 25.7 2.7 2 2.8 2 6.2.2l3.5-1.9V604h-15l.1 16.7zM1208.3 707.2l-5.3 2.1v28.5l3.4 2.5c7.6 5.9 11.5 7.2 21.1 7.2 7.8 0 9.7-.4 14.5-2.7 3-1.5 7.2-4.3 9.4-6.1l3.9-3.3-3.5-7.4c-7.1-15.1-18-23.1-31.4-22.9-4.5 0-8.7.8-12.1 2.1zM67.8 714l-5.7 5.1-.3 29.7-.3 29.7-2.7 4.7c-1.5 2.5-7.5 9.1-13.4 14.5l-10.5 10 6.3 5.8c7.3 6.8 17.2 11.8 27.3 13.9 3.8.8 7.1 1.3 7.3 1.2.6-.7-1.1-119.6-1.8-119.6-.3 0-3.1 2.3-6.2 5zM1192.3 715.7l-5.3 3.6V815h12v-51.5c0-28.3-.3-51.5-.7-51.4-.5 0-3.2 1.6-6 3.6z"/><path d="M1249.5 745.2c-7.5 4.9-15 7.1-23.9 7-6.2 0-7.9-.5-14.8-4.1l-7.8-4v31.8l8.1-4.2c8-4.2 8.2-4.2 18.7-4.2 10.7 0 10.7 0 18.4 4.2l7.8 4.2.7-2.7c1-3.6.8-27.2-.3-29.8-.9-2-1.1-1.9-6.9 1.8z"/><path d="M1220.3 772.4c-2.8.7-7.8 2.8-11 4.7l-5.8 3.5-.3 17.3-.2 17.3 7.2-.7c9.5-.8 17.6-2.9 23.6-5.9 7.9-4 16-14 20.2-25.1.8-2.2.4-2.8-3.4-5.4-5.5-3.8-15.4-7.1-20.8-7-2.4 0-6.6.6-9.5 1.3zM69.3 890.6c-5.6 3.3-9 9.3-10.3 17.9-1.1 8.1-1.4 35.5-.2 35.5.4 0 2.2-2.1 4.1-4.5l3.3-4.5h20.1l-.5-17.4c-.6-19.6-1.7-23.3-7.7-27.3-1.9-1.3-3.7-2.3-4-2.3-.3 0-2.5 1.2-4.8 2.6zM109.8 898.7l-6.8 4.6V935h15v-20.5c0-11.3-.3-20.5-.7-20.4-.5 0-3.8 2.1-7.5 4.6zM53.1 901.5c-2.3 2.5-4.7 5.7-5.3 7.3-.8 1.8-1.4 15.6-1.8 40.7-.5 26-1.1 38.9-1.9 41-1.7 4-4.8 7.3-9.6 9.8l-4 2.2 5 .3c9.9.6 16.5-2.9 18.5-9.9.6-1.9 1-20.4 1-43.4 0-32.7.3-41.2 1.5-45.9.9-3.3 1.4-6.1 1.2-6.3-.2-.2-2.3 1.7-4.6 4.2zM103.1 964.7c0 18.5.8 22.4 5.2 25.7 2.7 2 2.8 2 6.2.2l3.5-1.9V948h-15l.1 16.7zM1208.3 1051.1l-5.3 2V1081.8l3.3 2.4c12.8 9.8 27.6 10.3 41.1 1.3 8.3-5.5 8.2-5.3 4.3-13.8-6.9-14.9-17.7-22.7-31.2-22.6-4.5 0-8.9.7-12.2 2zM68.4 1057.2l-6.2 5.3-.3 30c-.4 26.8-.6 30.4-2.3 33.5-1 1.9-6.9 8.5-13.2 14.6l-11.5 11.1 6.3 5.8c7.3 6.8 17.2 11.8 27.3 13.9 3.8.8 7.1 1.3 7.3 1.1.2-.2 0-27.4-.5-60.4l-.8-60.1-6.1 5.2zM1192.2 1059.5l-5.2 3.6v95.9h12v-51.5c0-28.3-.3-51.5-.8-51.5-.4 0-3.1 1.6-6 3.5z"/><path d="M1249.6 1089.1c-6.9 4.7-14.3 7-22.4 7-7.6.1-12.6-1.3-18.5-5.1-2.6-1.6-5-3-5.2-3-.3 0-.5 7.2-.5 16v15.9l8.1-4.2c8-4.2 8.2-4.2 18.7-4.2 11.1 0 14.5 1 23.4 6.9l2.7 1.8.8-2.9c1-3.7.8-27.2-.3-30-.9-2.1-1-2.1-6.8 1.8z"/><path d="M1220.7 1116c-4.2 1.1-10.8 4.2-14.9 7.2l-2.8 1.9v34l7.3-.6c21.4-1.9 32.7-8.8 40.8-24.9l4-8.1-2.8-2.3c-5.8-4.7-12.8-7.3-20.5-7.7-4-.2-9 0-11.1.5zM291.3 1231.7c-5.5 7.6-5.7 8.6-6.1 29l-.4 19.3h9.2v-25.5c0-14-.1-25.5-.3-25.5-.2 0-1.2 1.2-2.4 2.7zM68.8 1234.9c-3.3 2.1-5.3 4.4-7.3 8.4-2.4 5.1-2.7 6.8-3.2 21.3l-.6 15.7 6.3-.6c3.5-.4 9.9-.7 14.3-.7h8l-.5-17.3c-.6-19.3-1.5-22.8-7-27.1-1.9-1.4-3.9-2.6-4.4-2.6-.6 0-3.1 1.3-5.6 2.9zM123.3 1233.7c-2.3 1.5-2.3 1.9-2.3 23.3v21.7l7.7.7c4.2.3 8.9.6 10.5.6h2.8v-37.6l-7-5.2c-3.8-2.8-7.5-5.2-8.2-5.1-.7 0-2.3.7-3.5 1.6zM273.8 1240.5c-15.4 10.5-25 22.5-28.6 35.7l-1 3.8H268v-10.8c0-12.7 1.3-16.1 10.5-27.6 5.2-6.4 6-7.6 5.2-7.6-.2 0-4.6 2.9-9.9 6.5zM462.7 1237.6c-.9.9-.9 42.4 0 42.4.8 0 39.1-28.8 39.8-30 .3-.5-2.1-1.6-5.2-2.5-5.9-1.6-30.2-9.1-32.6-10.1-.7-.2-1.6-.1-2 .2zM109.8 1242.6l-6.8 4.5v31.9h15v-20.5c0-11.3-.3-20.5-.7-20.4-.5 0-3.8 2.1-7.5 4.5zM623.2 1240c-8 4.1-11.2 12.8-7.5 20 3.2 6 7.1 7.5 19.8 7.3 6 0 13.8-.4 17.2-.8l6.2-.6 4.5-8.1c2.6-4.5 4.5-8.2 4.4-8.3-.2-.2-3-1.6-6.3-3.2-9.9-4.9-18.5-7.5-26.5-8-6.3-.4-8.2-.1-11.8 1.7zM1013 1259.5v20.5h13l-.2-20.3-.3-20.2-6.2-.3-6.3-.3v20.6zM1029 1251.8v11.9l3.8 2.6c10.9 7.6 22.8 9.2 32.4 4.3 2.9-1.4 6.6-3.8 8.2-5.2l2.9-2.5-4.7-4.8c-8.6-8.7-23.4-15.7-37.3-17.6l-5.3-.7v12zM52.7 1246c-5.4 6-6.7 10.7-6.7 24.5v9.5h9v-13.3c0-8.7.5-15.3 1.5-19.1.9-3.3 1.4-6.1 1.2-6.3-.3-.2-2.5 1.9-5 4.7zM1193.5 1246.7c-9.1 9.1-13.4 16.3-16.9 28l-1.5 5.3h28.9v-39h-2.4c-1.6 0-4.3 1.9-8.1 5.7zM1222 1262.4v17.6h15v-16.4c0-18.5.7-17.1-8.9-18.2l-6.1-.7v17.7zM988.2 1256.8c-6.1 5.9-9.4 11.3-11.7 18.8l-1.3 4.4H996v-14.5c0-8.7-.4-14.5-1-14.5-.5 0-3.6 2.6-6.8 5.8zM439.2 1258.7c-5.5 6.7-8.9 12.1-10.6 17l-1.5 4.3H444v-13c0-7.2-.2-13-.4-13s-2.2 2.1-4.4 4.7zM861.3 1270c-6.2 5-11.3 9.2-11.3 9.5 0 .3 9.5.5 21 .5h21l-1.9-3.7c-2.7-5.2-13.9-15.4-16.8-15.3-.4.1-5.9 4.1-12 9z"/><path d="M1071.6 1271c-12.8 8.5-27.1 7.9-40.3-1.6l-2.3-1.6v12.2h26.6c24.8 0 26.5-.1 26.1-1.8-.3-.9-1-3.8-1.7-6.5-.7-2.6-1.5-4.7-1.9-4.7-.3 0-3.2 1.8-6.5 4zM599.5 1274.6c-4 4.3-3.3 5.4 3.5 5.4h6l-2.8-4c-1.5-2.1-3.1-3.9-3.5-4-.4 0-1.9 1.2-3.2 2.6zM298 1277.1v2.9h33v-3c0-1.7-.1-3-.2-3-.2 0-2.7.9-5.6 2-6.6 2.5-14.3 2.5-21.5.1l-5.7-2v3zM482.5 1275.4c-3.3.7-5.1 1.7-5.3 2.9-.3 1.6 1 1.7 16.5 1.7 16.1-.1 16.7-.1 13.8-1.7-3.7-2-12.9-4.3-17-4.2-1.6.1-5.2.6-8 1.3zM472 1279c-1.3.8-1.2 1 .3 1 .9 0 1.7-.5 1.7-1 0-1.2-.1-1.2-2 0z"/></svg>